<svg width="48" height="54" viewBox="0 0 48 54" fill="none" xmlns="http://www.w3.org/2000/svg">
  <path
    d="M1.28395 26.7302C0.427983 27.5564 0 28.5574 0 29.7331C0 30.9089 0.460905 31.9416 1.38272 32.8314L20.9383 51.7069C21.2675 52.0882 21.7119 52.406 22.2716 52.6602C22.8313 52.9144 23.4074 53.0415 24 53.0415C24.5926 53.0415 25.1687 52.9144 25.7284 52.6602C26.2881 52.406 26.7654 52.0882 27.1605 51.7069L46.716 32.8314C47.572 31.9416 48 30.9089 48 29.7331C48 28.5574 47.572 27.5564 46.716 26.7302C45.7942 25.8405 44.7243 25.3956 43.5062 25.3956C42.2881 25.3956 41.251 25.8405 40.3951 26.7302L24 42.6505L7.60494 26.7302C6.74897 25.904 5.71193 25.5068 4.49383 25.5386C3.27572 25.5704 2.20576 25.9676 1.28395 26.7302ZM1.28395 1.27693C0.427983 2.10313 0 3.11998 0 4.32751C0 5.53503 0.460905 6.55188 1.38272 7.37809L20.9383 26.2536C21.2675 26.5713 21.7119 26.8573 22.2716 27.1115C22.8313 27.3658 23.4074 27.4929 24 27.4929C24.5926 27.4929 25.1687 27.3658 25.7284 27.1115C26.2881 26.8573 26.7654 26.5713 27.1605 26.2536L46.716 7.37809C47.572 6.55188 48 5.53503 48 4.32751C48 3.11998 47.572 2.10313 46.716 1.27693C45.7942 0.450729 44.7243 0.0376205 43.5062 0.0376205C42.2881 0.0376205 41.251 0.450729 40.3951 1.27693L24 17.1018L7.60494 1.37225C6.74897 0.482502 5.71193 0.0376205 4.49383 0.0376205C3.27572 0.0376205 2.20576 0.450729 1.28395 1.27693Z"
    fill="white" fill-opacity="0.5" />
</svg>