<svg width="124" height="83" viewBox="0 0 124 83" fill="none" xmlns="http://www.w3.org/2000/svg">
  <path
    d="M30.8788 28.5458C31.8499 28.5458 32.6371 27.7585 32.6371 26.7875C32.6371 25.8165 31.8499 25.0293 30.8788 25.0293C29.9078 25.0293 29.1206 25.8165 29.1206 26.7875C29.1206 27.7585 29.9078 28.5458 30.8788 28.5458Z"
    fill="#FFCCB3" />
  <path
    d="M30.7239 28.9759C30.3527 28.9761 29.985 28.903 29.6421 28.7607C29.2993 28.6184 28.9879 28.4098 28.7259 28.1467C28.2867 27.6007 28.0647 26.9117 28.1025 26.212C28.1404 25.5122 28.4353 24.8512 28.9308 24.3557C29.4263 23.8602 30.0874 23.5651 30.7871 23.5273C31.4868 23.4895 32.1759 23.7116 32.7219 24.1508C33.1181 24.5476 33.388 25.0528 33.4978 25.6027C33.6074 26.1527 33.552 26.7228 33.3384 27.2413C33.1248 27.7598 32.7626 28.2035 32.2974 28.5167C31.8321 28.8297 31.2847 28.9982 30.7239 29.0009V28.9759ZM30.7239 24.2906C30.2975 24.2908 29.8843 24.4388 29.5548 24.7094C29.2253 24.9801 28.9998 25.3566 28.9168 25.7749C28.8338 26.1931 28.8983 26.6272 29.0995 27.0032C29.3006 27.3792 29.626 27.6738 30.02 27.8368C30.414 27.9999 30.8523 28.0213 31.2603 27.8973C31.6683 27.7734 32.0207 27.5119 32.2576 27.1572C32.4943 26.8026 32.6008 26.3769 32.5589 25.9525C32.5169 25.5282 32.3292 25.1315 32.0276 24.8301C31.8588 24.654 31.6565 24.5133 31.4326 24.4164C31.2088 24.3195 30.9679 24.2682 30.7239 24.2656V24.2906Z"
    fill="#381609" />
  <path
    d="M63.8506 33.8853C64.5953 33.8853 65.1992 33.1987 65.1992 32.3518C65.1992 31.5049 64.5953 30.8184 63.8506 30.8184C63.1058 30.8184 62.502 31.5049 62.502 32.3518C62.502 33.1987 63.1058 33.8853 63.8506 33.8853Z"
    fill="#4EF94E" />
  <path
    d="M63.5011 34.3851C63.0316 34.3851 62.573 34.2459 62.1829 33.9853C61.7928 33.7246 61.4886 33.354 61.3088 32.9205C61.1295 32.4869 61.0825 32.0099 61.1739 31.5496C61.2653 31.0894 61.4916 30.6666 61.8233 30.3348C62.1549 30.003 62.578 29.777 63.0381 29.6855C63.4986 29.5939 63.9756 29.6409 64.4092 29.8205C64.8427 30.0001 65.2129 30.3042 65.4736 30.6944C65.7343 31.0845 65.8737 31.5433 65.8737 32.0125C65.8737 32.6418 65.6234 33.2452 65.1789 33.6902C64.7338 34.1351 64.1304 34.3851 63.5011 34.3851ZM63.5011 30.6439C63.2294 30.6439 62.9631 30.7246 62.7374 30.8757C62.5116 31.0269 62.3353 31.2417 62.2314 31.493C62.1275 31.7443 62.101 32.0207 62.1539 32.2873C62.2074 32.5539 62.3388 32.7986 62.5316 32.9906C62.7244 33.1825 62.9691 33.3129 63.2363 33.3653C63.5031 33.4178 63.7793 33.3899 64.03 33.2851C64.2813 33.1804 64.4951 33.0035 64.6454 32.777C64.7958 32.5504 64.8757 32.2844 64.8747 32.0125C64.8747 31.8324 64.8392 31.654 64.7698 31.4876C64.7009 31.3212 64.5995 31.1701 64.4721 31.043C64.3442 30.9158 64.1929 30.8151 64.0266 30.7466C63.8597 30.6781 63.6814 30.6432 63.5011 30.6439Z"
    fill="#381609" />
  <path d="M123.501 54.894H119.05V63.8051H123.501V54.894Z" fill="#C0C4C4" />
  <path d="M4.95003 55.1438H0.499512V63.8051H4.95003V55.1438Z" fill="#C0C4C4" />
  <path d="M114.42 31.3433H108.186V77.8712H114.42V31.3433Z" fill="#F9A870" />
  <path opacity="0.49" d="M70.0595 64.7042H66.7129V47.4564L68.6809 46.6922L66.7129 44.8441V15.0591H70.0595V64.7042Z"
    fill="#B3E2FF" />
  <path opacity="0.49" d="M102.152 64.704H98.8054V44.4392L101.787 44.9387L98.8054 41.9567V19.4744H102.152V64.704Z"
    fill="#B3E2FF" />
  <path opacity="0.49" d="M38.4013 64.7056H35.0547V39.8805L37.5172 40.1552L35.0547 37.5778V19.2812H38.4013V64.7056Z"
    fill="#B3E2FF" />
  <path d="M15.0648 31.3433H8.83105V77.8712H15.0648V31.3433Z" fill="#F9A870" />
  <path d="M15.0648 31.3433H8.83105V34.3003H15.0648V31.3433Z" fill="#E28444" />
  <path d="M114.42 31.3433H108.186V34.3003H114.42V31.3433Z" fill="#E28444" />
  <path
    d="M15.0698 78.6265H8.83104C8.69857 78.6265 8.57155 78.574 8.47785 78.4801C8.38419 78.3867 8.33154 78.2593 8.33154 78.127V31.5989C8.33154 31.4664 8.38419 31.3393 8.47785 31.2457C8.57155 31.152 8.69857 31.0994 8.83104 31.0994H15.0698C15.2022 31.0994 15.3293 31.152 15.4229 31.2457C15.5167 31.3393 15.5692 31.4664 15.5692 31.5989V78.127C15.5692 78.2593 15.5167 78.3867 15.4229 78.4801C15.3293 78.574 15.2022 78.6265 15.0698 78.6265ZM9.33054 77.6275H14.5703V32.0984H9.33054V77.6275Z"
    fill="#381609" />
  <path
    d="M11.3286 45.8794C11.2624 45.8794 11.1988 45.8531 11.152 45.8063C11.1052 45.7594 11.0789 45.6959 11.0789 45.6296V34.0163C11.0789 33.9501 11.1052 33.8866 11.152 33.8398C11.1988 33.7929 11.2624 33.7666 11.3286 33.7666C11.3948 33.7666 11.4584 33.7929 11.5052 33.8398C11.5521 33.8866 11.5784 33.9501 11.5784 34.0163V45.6296C11.5784 45.6959 11.5521 45.7594 11.5052 45.8063C11.4584 45.8531 11.3948 45.8794 11.3286 45.8794Z"
    fill="#E58A4C" />
  <path
    d="M12.5723 39.7157C12.506 39.7157 12.4425 39.6894 12.3957 39.6426C12.3488 39.5957 12.3225 39.5322 12.3225 39.466V32.8476C12.3225 32.7814 12.3488 32.7179 12.3957 32.671C12.4425 32.6242 12.506 32.5979 12.5723 32.5979C12.6381 32.5992 12.7009 32.6259 12.7474 32.6725C12.794 32.719 12.8208 32.7818 12.822 32.8476V39.466C12.822 39.5322 12.7957 39.5957 12.7489 39.6426C12.702 39.6894 12.6385 39.7157 12.5723 39.7157Z"
    fill="#E58A4C" />
  <path
    d="M12.9419 55.4493C12.8757 55.4493 12.8121 55.4228 12.7653 55.3759C12.7185 55.3294 12.6921 55.2655 12.6921 55.1996V48.5662C12.6921 48.4999 12.7185 48.4364 12.7653 48.3895C12.8121 48.3427 12.8757 48.3164 12.9419 48.3164C13.0081 48.3164 13.0717 48.3427 13.1185 48.3895C13.1653 48.4364 13.1916 48.4999 13.1916 48.5662V55.1896C13.193 55.223 13.1875 55.2565 13.1756 55.288C13.1636 55.3194 13.1454 55.3484 13.1221 55.3724C13.0988 55.3969 13.0708 55.4163 13.0398 55.4293C13.0089 55.4423 12.9756 55.4493 12.9419 55.4493Z"
    fill="#E58A4C" />
  <path
    d="M112.177 56.1336C112.111 56.1336 112.047 56.1076 112.001 56.0607C111.954 56.0137 111.927 55.9503 111.927 55.8839V49.2607C111.927 49.1945 111.954 49.131 112.001 49.0841C112.047 49.0373 112.111 49.011 112.177 49.011C112.243 49.011 112.307 49.0373 112.354 49.0841C112.4 49.131 112.427 49.1945 112.427 49.2607V55.8839C112.427 55.9503 112.4 56.0137 112.354 56.0607C112.307 56.1076 112.243 56.1336 112.177 56.1336Z"
    fill="#E58A4C" />
  <path
    d="M11.948 77.8413C11.8818 77.8413 11.8182 77.8148 11.7714 77.7684C11.7246 77.7214 11.6982 77.658 11.6982 77.5916V65.9783C11.6995 65.9123 11.7263 65.8499 11.7728 65.8029C11.8194 65.7565 11.8822 65.73 11.948 65.7285C12.0142 65.7285 12.0778 65.755 12.1246 65.8019C12.1714 65.8484 12.1977 65.9123 12.1977 65.9783V77.5916C12.1977 77.658 12.1714 77.7214 12.1246 77.7684C12.0778 77.8148 12.0142 77.8413 11.948 77.8413Z"
    fill="#E58A4C" />
  <path
    d="M13.1916 71.6835C13.1254 71.6835 13.0619 71.657 13.0151 71.6106C12.9682 71.5636 12.9419 71.5002 12.9419 71.4338V64.8154C12.9419 64.749 12.9682 64.6856 13.0151 64.6386C13.0619 64.5921 13.1254 64.5657 13.1916 64.5657C13.2579 64.5657 13.3214 64.5921 13.3683 64.6386C13.4151 64.6856 13.4414 64.749 13.4414 64.8154V71.4338C13.4414 71.5002 13.4151 71.5636 13.3683 71.6106C13.3214 71.657 13.2579 71.6835 13.1916 71.6835Z"
    fill="#E58A4C" />
  <path
    d="M114.425 78.6265H108.186C108.054 78.6265 107.927 78.574 107.833 78.4801C107.739 78.3867 107.687 78.2593 107.687 78.127V31.5989C107.687 31.4664 107.739 31.3393 107.833 31.2457C107.927 31.152 108.054 31.0994 108.186 31.0994H114.425C114.557 31.0994 114.684 31.152 114.778 31.2457C114.872 31.3393 114.924 31.4664 114.924 31.5989V78.127C114.924 78.2593 114.872 78.3867 114.778 78.4801C114.684 78.574 114.557 78.6265 114.425 78.6265ZM108.686 77.6275H113.925V32.0984H108.686V77.6275Z"
    fill="#381609" />
  <path
    d="M110.683 45.8794C110.617 45.8794 110.553 45.8531 110.507 45.8063C110.46 45.7594 110.434 45.6959 110.434 45.6296V34.0163C110.434 33.9501 110.46 33.8866 110.507 33.8398C110.553 33.7929 110.617 33.7666 110.683 33.7666C110.75 33.7666 110.813 33.7929 110.86 33.8398C110.907 33.8866 110.933 33.9501 110.933 34.0163V45.6296C110.933 45.6959 110.907 45.7594 110.86 45.8063C110.813 45.8531 110.75 45.8794 110.683 45.8794Z"
    fill="#E58A4C" />
  <path
    d="M111.927 39.7157C111.861 39.7157 111.797 39.6894 111.751 39.6426C111.704 39.5957 111.677 39.5322 111.677 39.466V32.8476C111.677 32.7814 111.704 32.7179 111.751 32.671C111.797 32.6242 111.861 32.5979 111.927 32.5979C111.994 32.5979 112.057 32.6242 112.104 32.671C112.151 32.7179 112.177 32.7814 112.177 32.8476V39.466C112.177 39.5322 112.151 39.5957 112.104 39.6426C112.057 39.6894 111.994 39.7157 111.927 39.7157Z"
    fill="#E58A4C" />
  <path
    d="M111.303 77.8413C111.236 77.8413 111.173 77.8148 111.126 77.7684C111.079 77.7214 111.053 77.658 111.053 77.5916V65.9783C111.054 65.9123 111.081 65.8499 111.127 65.8029C111.174 65.7565 111.237 65.73 111.303 65.7285C111.369 65.7285 111.433 65.755 111.48 65.8019C111.526 65.8484 111.552 65.9123 111.552 65.9783V77.5916C111.552 77.658 111.526 77.7214 111.48 77.7684C111.433 77.8148 111.369 77.8413 111.303 77.8413Z"
    fill="#E58A4C" />
  <path
    d="M112.547 71.6835C112.481 71.682 112.418 71.6555 112.371 71.6091C112.325 71.5626 112.298 71.4997 112.297 71.4338V64.8154C112.297 64.749 112.323 64.6856 112.37 64.6386C112.417 64.5921 112.48 64.5657 112.547 64.5657C112.613 64.5657 112.676 64.5921 112.723 64.6386C112.77 64.6856 112.796 64.749 112.796 64.8154V71.4338C112.796 71.5002 112.77 71.5636 112.723 71.6106C112.676 71.657 112.613 71.6835 112.547 71.6835Z"
    fill="#E58A4C" />
  <path
    d="M116.568 73.7949V81.7869H7.4375V73.7949H21.6232C22.0035 74.3843 22.4456 74.9318 22.9419 75.4283C23.9992 76.4862 25.2797 77.2949 26.6897 77.7944C28.0998 78.2939 29.6037 78.4722 31.0914 78.3154C32.5791 78.159 34.013 77.6715 35.2882 76.8893C36.5633 76.1071 37.6474 75.0502 38.4612 73.7949H53.596C53.9796 74.3833 54.4232 74.9308 54.9197 75.4283C55.9761 76.4807 57.2543 77.2844 58.6609 77.7809C60.0675 78.2774 61.5675 78.4537 63.0505 78.2969C64.534 78.1405 65.9636 77.655 67.2358 76.8763C68.508 76.0976 69.5904 75.0447 70.4041 73.7949H85.5438C85.9239 74.3843 86.366 74.9318 86.8625 75.4283C87.9189 76.4807 89.1971 77.2844 90.6037 77.7809C92.0103 78.2774 93.5103 78.4537 94.9933 78.2969C96.4768 78.1405 97.9064 77.655 99.1786 76.8763C100.451 76.0976 101.533 75.0447 102.347 73.7949H116.568Z"
    fill="#FFCDAB" />
  <path
    d="M116.238 73.5452V75.2934H102.047C101.234 76.5431 100.151 77.5961 98.8789 78.3748C97.6067 79.1535 96.1771 79.639 94.6936 79.7954C93.2106 79.9522 91.7106 79.7759 90.304 79.2794C88.8975 78.7829 87.6193 77.9792 86.5628 76.9268C86.0663 76.4303 85.6243 75.8828 85.2442 75.2934H70.0844C69.2707 76.5431 68.1883 77.5961 66.9161 78.3748C65.6439 79.1535 64.2143 79.639 62.7308 79.7954C61.2478 79.9522 59.7479 79.7759 58.3413 79.2794C56.9347 78.7829 55.6565 77.9792 54.6 76.9268C54.1035 76.4293 53.66 75.8818 53.2764 75.2934H38.1216C37.3072 76.5426 36.2247 77.5946 34.9526 78.3728C33.6805 79.151 32.251 79.636 30.7679 79.7929C29.2849 79.9492 27.7856 79.7729 26.3791 79.2774C24.9727 78.7814 23.6944 77.9782 22.6373 76.9268C22.141 76.4303 21.6989 75.8828 21.3186 75.2934H7.10791V73.5452H21.2936C21.6739 74.1346 22.116 74.682 22.6123 75.1785C23.6694 76.23 24.9477 77.0331 26.3542 77.5291C27.7606 78.0246 29.2599 78.201 30.7429 78.0446C32.226 77.8878 33.6555 77.4028 34.9276 76.6246C36.1997 75.8463 37.2822 74.7944 38.0967 73.5452H53.2314C53.615 74.1336 54.0586 74.681 54.5551 75.1785C55.612 76.231 56.8897 77.0346 58.2963 77.5311C59.7029 78.0276 61.2029 78.204 62.6859 78.0471C64.1694 77.8908 65.599 77.4053 66.8712 76.6266C68.1434 75.8478 69.2258 74.7949 70.0395 73.5452H85.1792C85.5593 74.1346 86.0014 74.682 86.4979 75.1785C87.5543 76.231 88.8325 77.0346 90.2391 77.5311C91.6457 78.0276 93.1457 78.204 94.6287 78.0471C96.1122 77.8908 97.5417 77.4053 98.814 76.6266C100.086 75.8478 101.169 74.7949 101.982 73.5452H116.238Z"
    fill="white" />
  <path
    d="M21.3635 38.5661C27.6422 38.9557 30.0947 36.3733 33.1367 37.1325C34.8494 37.5078 36.3784 38.4666 37.4623 39.8448L30.2296 42.4621L22.6872 41.0386L21.3635 38.5661Z"
    fill="#EF9170" />
  <path
    d="M30.2295 44.0657H30.1196L22.5872 42.4024C22.5107 42.3856 22.4392 42.3512 22.3784 42.3017C22.3177 42.2522 22.2694 42.1892 22.2375 42.1177L20.9388 39.1606C20.9024 39.0804 20.8877 38.9919 20.8965 38.9041C20.9053 38.8164 20.9371 38.7326 20.9888 38.6611C21.0398 38.5943 21.1068 38.5414 21.1836 38.5073C21.2604 38.4733 21.3446 38.4592 21.4283 38.4663C23.5536 38.5908 25.6827 38.3007 27.697 37.6122L28.1516 37.4623C30.4492 36.6931 32.647 35.9639 35.1145 37.3974C36.2855 38.0356 37.2675 38.9711 37.9617 40.1097C37.9948 40.1702 38.015 40.237 38.0211 40.3058C38.0271 40.3746 38.0188 40.4438 37.9966 40.5093C37.975 40.5752 37.9398 40.6359 37.8934 40.6875C37.8469 40.7391 37.7902 40.7805 37.7269 40.809L30.4293 44.0257C30.3657 44.0514 30.298 44.0649 30.2295 44.0657ZM23.0517 41.4633L30.1745 43.0217L36.7779 40.1097C36.1943 39.3411 35.4579 38.7016 34.615 38.2316C32.5122 37.0228 30.729 37.6222 28.4662 38.3764L28.0117 38.5313C26.1336 39.177 24.1584 39.4946 22.1726 39.4703L23.0517 41.4633Z"
    fill="#381609" />
  <path
    d="M38.3364 40.1551V60.6992C38.3364 68.2266 34.4953 74.3354 29.7551 74.3554H29.6302H29.4704C29.2543 74.3494 29.039 74.3274 28.826 74.2905C26.828 73.9608 24.9999 72.5222 23.6412 70.3644C22.0828 67.8669 21.1438 64.4804 21.1438 60.7092V41.3889C21.1438 39.7955 20.859 39.256 22.7621 39.0562C25.0717 38.821 27.4002 39.2545 29.4704 40.305C31.808 41.4938 33.6711 41.7435 36.2735 40.9443C36.9765 40.7231 37.6654 40.4596 38.3364 40.1551Z"
    fill="#FFCCB3" />
  <path
    d="M30.2045 74.3358H30.0746C29.9797 74.3358 29.8898 74.3358 29.7949 74.3358H29.73H29.4703C29.3399 74.3328 29.2098 74.3228 29.0806 74.3058C28.9708 74.3058 28.8609 74.3058 28.751 74.2808H28.8259C33.0516 73.7314 35.1246 70.12 35.1246 65.7444L35.1895 41.2239C35.9038 41.0041 37.687 40.4547 38.3363 40.155V38.3518L38.4012 65.7444C38.3999 67.9547 37.5479 70.0806 36.0218 71.68C34.4958 73.2793 32.4127 74.2304 30.2045 74.3358Z"
    fill="#EFAB89" />
  <path
    d="M32.787 74.0252C31.7181 74.5247 30.8739 74.3499 29.6252 74.3599H29.5503C28.4194 74.3599 27.2997 74.1371 26.2549 73.7045C25.2101 73.2715 24.2608 72.6376 23.4612 71.8379C22.6615 71.0382 22.0272 70.0887 21.5945 69.0442C21.1617 67.9993 20.939 66.8794 20.939 65.7486V39.2753C21.2986 39.2303 21.6083 39.1804 21.883 39.1255C22.4125 39.0755 22.9619 39.0056 23.5314 38.9906C24.2695 38.9484 25.01 38.9886 25.7391 39.1105L26.1088 40.9037C27.882 49.445 31.3035 58.5159 29.0058 66.9324C27.3925 72.8614 30.6242 73.0362 31.0038 73.9253C31.7181 75.7385 31.848 73.5957 32.787 74.0252Z"
    fill="#FFDACC" />
  <path
    d="M31.4382 73.9752C30.8638 74.0252 30.2794 73.9752 29.5551 73.9752H29.4702C27.1864 73.9752 24.996 73.0681 23.3811 71.4533C21.7662 69.8384 20.8589 67.6481 20.8589 65.3639V38.8907C21.2185 38.8457 21.5282 38.7958 21.8029 38.7408V38.8108C22.3324 38.7608 22.8868 38.7209 23.4563 38.7059C24.0257 38.6909 24.6451 38.7059 25.2495 38.7059C24.8049 38.7059 24.3654 38.7558 23.9458 38.7958V38.7259C23.6711 38.7808 23.3614 38.8308 23.0017 38.8757V65.3489C23.0012 67.6006 23.8832 69.763 25.4586 71.3719C27.0339 72.9807 29.177 73.9083 31.4282 73.9552L31.4382 73.9752Z"
    fill="white" />
  <path
    d="M21.1186 49.3659C20.9199 49.3659 20.7294 49.287 20.5889 49.1465C20.4484 49.006 20.3694 48.8154 20.3694 48.6167V19.2812C20.3694 19.0825 20.4484 18.892 20.5889 18.7515C20.7294 18.611 20.9199 18.532 21.1186 18.532H38.3363C38.535 18.532 38.7256 18.611 38.8661 18.7515C39.0066 18.892 39.0855 19.0825 39.0855 19.2812V41.349C39.0855 41.5477 39.0066 41.7383 38.8661 41.8788C38.7256 42.0193 38.535 42.0982 38.3363 42.0982C38.1376 42.0982 37.947 42.0193 37.8065 41.8788C37.666 41.7383 37.587 41.5477 37.587 41.349V20.0305H21.8679V48.6167C21.8679 48.8154 21.789 49.006 21.6484 49.1465C21.5079 49.287 21.3174 49.3659 21.1186 49.3659Z"
    fill="#381609" />
  <path
    d="M29.7251 75.0646C27.2442 75.0621 24.8656 74.0756 23.1108 72.3219C21.3561 70.5682 20.3685 68.1901 20.3645 65.7091V52.7221C20.3645 52.5233 20.4435 52.333 20.584 52.1922C20.7245 52.0518 20.915 51.9729 21.1137 51.9729C21.3124 51.9729 21.5031 52.0518 21.6436 52.1922C21.7841 52.333 21.863 52.5233 21.863 52.7221V65.7091C21.9147 67.7595 22.7654 69.708 24.2338 71.1401C25.7021 72.5716 27.6717 73.3728 29.7226 73.3728C31.7734 73.3728 33.7431 72.5716 35.2114 71.1401C36.6797 69.708 37.5304 67.7595 37.5821 65.7091V59.5153C37.5821 59.3165 37.6611 59.1262 37.8016 58.9853C37.9421 58.845 38.1327 58.7661 38.3314 58.7661C38.5301 58.7661 38.7207 58.845 38.8612 58.9853C39.0017 59.1262 39.0806 59.3165 39.0806 59.5153V65.7091C39.078 68.1896 38.0915 70.5677 36.3375 72.3214C34.5836 74.0756 32.2055 75.0621 29.7251 75.0646Z"
    fill="#381609" />
  <path
    d="M38.3313 55.0689C38.1326 55.0689 37.942 54.99 37.8015 54.8496C37.661 54.7092 37.582 54.5184 37.582 54.3196V46.5527C37.582 46.354 37.661 46.1634 37.8015 46.0229C37.942 45.8824 38.1326 45.8035 38.3313 45.8035C38.53 45.8035 38.7205 45.8824 38.8611 46.0229C39.0016 46.1634 39.0805 46.354 39.0805 46.5527V54.3196C39.0805 54.5184 39.0016 54.7092 38.8611 54.8496C38.7205 54.99 38.53 55.0689 38.3313 55.0689Z"
    fill="#381609" />
  <path
    d="M23.0017 35.1699C22.9616 35.1706 22.922 35.1613 22.8863 35.1431C22.8505 35.1248 22.8199 35.098 22.7969 35.065C22.7778 35.0382 22.7641 35.0078 22.7568 34.9757C22.7494 34.9435 22.7485 34.9102 22.7541 34.8777C22.7596 34.8452 22.7716 34.8141 22.7893 34.7863C22.8069 34.7584 22.8299 34.7343 22.8569 34.7154L25.4243 32.8922C25.4789 32.8548 25.546 32.8401 25.6113 32.8513C25.6765 32.8625 25.7349 32.8987 25.7739 32.9522C25.7931 32.979 25.8068 33.0094 25.8142 33.0415C25.8215 33.0737 25.8224 33.107 25.8168 33.1395C25.8113 33.172 25.7993 33.2031 25.7817 33.2309C25.7641 33.2588 25.741 33.2829 25.714 33.3018L23.1466 35.125C23.1039 35.154 23.0534 35.1697 23.0017 35.1699Z"
    fill="#381609" />
  <path
    d="M24.3205 35.4397C24.2625 35.4466 24.2039 35.4329 24.1549 35.4011C24.1059 35.3692 24.0696 35.3212 24.0524 35.2653C24.0351 35.2095 24.038 35.1493 24.0606 35.0954C24.0831 35.0415 24.1238 34.9972 24.1757 34.9701L25.4244 34.086C25.4785 34.0481 25.5451 34.0326 25.6103 34.0429C25.6756 34.0531 25.7343 34.0883 25.7741 34.141C25.7933 34.1679 25.8069 34.1982 25.8142 34.2303C25.8216 34.2625 25.8225 34.2958 25.817 34.3283C25.8114 34.3608 25.7995 34.3919 25.7818 34.4197C25.7641 34.4476 25.7412 34.4717 25.7141 34.4906L24.4754 35.3947C24.4302 35.4264 24.3757 35.4422 24.3205 35.4397Z"
    fill="#381609" />
  <path
    d="M24.0058 29.216C23.9658 29.2158 23.9265 29.2062 23.8908 29.188C23.8553 29.1698 23.8245 29.1434 23.801 29.1111C23.7639 29.0572 23.7493 28.991 23.7605 28.9265C23.7718 28.8621 23.8078 28.8046 23.8609 28.7664L25.1097 27.8773C25.164 27.8389 25.2313 27.8236 25.2969 27.8349C25.3625 27.8462 25.4209 27.883 25.4593 27.9373C25.4977 27.9916 25.513 28.059 25.5018 28.1245C25.4905 28.1901 25.4537 28.2485 25.3994 28.2869L24.1506 29.171C24.1079 29.2001 24.0575 29.2157 24.0058 29.216Z"
    fill="#381609" />
  <path
    d="M25.8789 58.4403C26.2623 58.4403 26.5732 57.738 26.5732 56.8719C26.5732 56.0058 26.2623 55.3035 25.8789 55.3035C25.4954 55.3035 25.1846 56.0058 25.1846 56.8719C25.1846 57.738 25.4954 58.4403 25.8789 58.4403Z"
    fill="white" />
  <path
    d="M26.1535 60.8888C26.5369 60.8888 26.8478 60.5782 26.8478 60.1945C26.8478 59.8114 26.5369 59.5002 26.1535 59.5002C25.7701 59.5002 25.4592 59.8114 25.4592 60.1945C25.4592 60.5782 25.7701 60.8888 26.1535 60.8888Z"
    fill="white" />
  <path
    d="M27.1177 55.3046C27.2694 55.3046 27.3925 55.1817 27.3925 55.0298C27.3925 54.8785 27.2694 54.7551 27.1177 54.7551C26.966 54.7551 26.843 54.8785 26.843 55.0298C26.843 55.1817 26.966 55.3046 27.1177 55.3046Z"
    fill="white" />
  <path
    d="M34.0995 68.1226C34.2438 67.6386 34.1249 67.176 33.8341 67.0896C33.5433 67.0027 33.1907 67.3249 33.0464 67.8084C32.9022 68.2924 33.0211 68.7549 33.3119 68.8413C33.6027 68.9282 33.9553 68.6061 34.0995 68.1226Z"
    fill="#EFAB89" />
  <path
    d="M33.3964 69.6097C33.5151 69.6097 33.6112 69.5138 33.6112 69.395C33.6112 69.2766 33.5151 69.1802 33.3964 69.1802C33.2778 69.1802 33.1816 69.2766 33.1816 69.395C33.1816 69.5138 33.2778 69.6097 33.3964 69.6097Z"
    fill="#EFAB89" />
  <path
    d="M33.8859 46.2725C34.1783 46.2725 34.4154 45.7246 34.4154 45.0487C34.4154 44.3728 34.1783 43.825 33.8859 43.825C33.5935 43.825 33.3564 44.3728 33.3564 45.0487C33.3564 45.7246 33.5935 46.2725 33.8859 46.2725Z"
    fill="#EFAB89" />
  <path
    d="M25.1845 52.4778C24.9858 52.4778 24.7953 52.3989 24.6548 52.2585C24.5143 52.1177 24.4353 51.9274 24.4353 51.7286V43.4619C24.4353 43.2632 24.5143 43.0726 24.6548 42.9321C24.7953 42.7916 24.9858 42.7126 25.1845 42.7126C25.3832 42.7126 25.5739 42.7916 25.7144 42.9321C25.8549 43.0726 25.9338 43.2632 25.9338 43.4619V51.7535C25.9273 51.9478 25.8455 52.1322 25.7057 52.267C25.5659 52.4024 25.379 52.4778 25.1845 52.4778Z"
    fill="white" />
  <path
    d="M32.677 41.9032C31.1803 41.8709 29.7141 41.4731 28.4063 40.7443C26.4212 39.7414 24.1906 39.3271 21.9778 39.5505C21.8453 39.5644 21.7127 39.5252 21.6092 39.4413C21.5057 39.3575 21.4398 39.236 21.4258 39.1035C21.412 38.971 21.4512 38.8384 21.5351 38.7349C21.6189 38.6314 21.7404 38.5654 21.8729 38.5516C24.2801 38.3066 26.7071 38.7573 28.8658 39.8503C31.1685 41.0241 32.9118 41.1889 35.2944 40.4596C35.9853 40.2443 36.6625 39.9875 37.3223 39.6904C37.3824 39.6638 37.447 39.6494 37.5126 39.6478C37.5783 39.6462 37.6435 39.6575 37.7047 39.6812C37.766 39.7048 37.8219 39.7404 37.8695 39.7856C37.917 39.8309 37.9551 39.8851 37.9816 39.9452C38.0082 40.0051 38.0227 40.0698 38.0243 40.1354C38.0259 40.201 38.0145 40.2663 37.9908 40.3276C37.9672 40.3888 37.9317 40.4447 37.8864 40.4922C37.8411 40.5398 37.7869 40.5779 37.7269 40.6045C37.032 40.9187 36.3179 41.1889 35.5891 41.4137C34.6485 41.7222 33.6667 41.8871 32.677 41.9032Z"
    fill="#381609" />
  <path
    d="M53.9456 46.3076C60.2242 46.6972 62.6818 44.1148 65.7187 44.8691C67.439 45.243 68.9749 46.2036 70.0643 47.5863L62.8116 50.1837L55.2692 48.7602L53.9456 46.3076Z"
    fill="#0DCC0D" />
  <path
    d="M62.8067 50.6288H62.7118L55.1694 49.2051C55.0965 49.1909 55.0281 49.1607 54.9681 49.1166C54.9087 49.0726 54.8598 49.0158 54.8248 48.9504L53.5011 46.4979C53.4592 46.4196 53.4392 46.3316 53.4422 46.2429C53.4457 46.1542 53.4727 46.0679 53.5206 45.9932C53.5686 45.9183 53.6355 45.8577 53.7144 45.8173C53.7938 45.777 53.8822 45.7585 53.9707 45.7636C56.1894 45.8847 58.4127 45.6348 60.549 45.0243C62.8967 44.38 65.1144 43.7706 67.6269 44.9844C68.7553 45.4873 69.7358 46.2715 70.474 47.2621C70.5155 47.325 70.5424 47.3965 70.5524 47.4711C70.5624 47.5458 70.5554 47.6218 70.532 47.6935C70.508 47.765 70.4685 47.8304 70.4166 47.8846C70.3641 47.9388 70.3002 47.9804 70.2293 48.0063L62.9766 50.6088C62.9211 50.6228 62.8642 50.6293 62.8067 50.6288ZM55.589 48.2611L62.7668 49.6147L69.2602 47.2971C68.6673 46.7082 67.976 46.228 67.2173 45.8785C65.0445 44.8295 63.0965 45.379 60.8387 45.9834C58.8887 46.5327 56.8707 46.805 54.8448 46.7926L55.589 48.2611Z"
    fill="#381609" />
  <path
    d="M86.5327 43.6915C92.8114 44.0812 94.3748 41.0292 97.4167 41.7835C99.136 42.1589 100.672 43.1193 101.762 44.5007L94.5047 47.0981L86.9623 45.6745L86.5327 43.6915Z"
    fill="#BF0DAF" />
  <path
    d="M94.5048 48.6663H94.3999L86.8675 47.008C86.7985 46.9929 86.7331 46.9632 86.6761 46.921C86.6192 46.8789 86.5723 46.8251 86.5378 46.7632C84.7746 43.5615 84.9444 43.4166 85.2541 43.1469C85.33 43.0818 85.4229 43.0393 85.5218 43.0243C85.6207 43.0093 85.7216 43.0224 85.8135 43.062C88.0123 43.1642 90.2096 42.835 92.282 42.0929C96.9873 40.4995 100.424 41.4036 102.227 44.7103C102.26 44.7709 102.28 44.8377 102.286 44.9065C102.292 44.9752 102.284 45.0445 102.262 45.1099C102.24 45.1758 102.205 45.2366 102.159 45.2882C102.112 45.3398 102.056 45.3811 101.992 45.4096L94.7096 48.6313C94.6446 48.6572 94.5747 48.6692 94.5048 48.6663ZM87.302 46.0739L94.4548 47.6423L101.073 44.7103C99.4498 42.2128 96.6076 41.6734 92.5817 43.032C90.5547 43.7536 88.4144 44.1055 86.2631 44.0709C86.5228 44.5904 86.9124 45.3646 87.302 46.0739Z"
    fill="#381609" />
  <path
    d="M70.0544 46.8735V63.6166C70.0544 69.7505 66.2133 74.7254 61.4731 74.7454H61.3482H61.1884C60.9726 74.7399 60.7573 74.7215 60.544 74.6905C59.5121 74.5246 58.5231 74.157 57.6335 73.6086C56.7434 73.0601 55.9706 72.3413 55.3593 71.4937C53.6884 69.215 52.8113 66.4518 52.8618 63.6266V47.8775C52.8618 46.5788 52.5771 46.1392 54.4801 45.9794C56.7653 45.776 59.0665 46.1184 61.1934 46.9784C63.3247 47.9647 65.7393 48.1508 67.9965 47.5028C68.6928 47.3283 69.3796 47.1182 70.0544 46.8735Z"
    fill="#4EF94E" />
  <path
    d="M61.9375 74.7255H61.8126H61.5279H61.438H61.1783C61.0484 74.7255 60.9185 74.7255 60.7936 74.7005H60.459H60.5339C64.7596 74.2559 66.8326 71.3139 66.8326 67.7525L66.8975 47.7726C67.6118 47.5928 69.395 47.1483 70.0443 46.9085V45.46L70.1093 67.7575C70.1192 71.4887 66.4829 74.5506 61.9375 74.7255Z"
    fill="#1BDD1B" />
  <path
    d="M64.51 74.5241C63.441 74.9287 62.5919 74.7889 61.3432 74.7988H61.2682C59.06 74.8283 56.9091 74.0946 55.1794 72.7209C54.4176 72.1265 53.7983 71.3698 53.3662 70.5057C52.9341 69.6415 52.7004 68.692 52.6819 67.726V45.903C53.0415 45.868 53.3512 45.828 53.6259 45.7831C54.1554 45.7381 54.7048 45.6832 55.2743 45.6732C56.0115 45.6367 56.7508 45.6702 57.482 45.7731L57.8517 47.2716C59.6249 54.3095 63.0464 61.782 60.7537 68.715C59.1354 73.6001 62.3671 73.7449 62.7517 74.4942C63.436 75.9277 63.5709 74.1695 64.51 74.5241Z"
    fill="#86FC86" />
  <path
    d="M63.1564 74.4857C62.582 74.5306 61.9976 74.4857 61.2733 74.4857H61.1984C58.9931 74.5222 56.8428 73.7974 55.1095 72.4328C54.3478 71.8384 53.7284 71.0816 53.2964 70.2175C52.8643 69.3534 52.6305 68.4038 52.6121 67.4378V45.5997C52.9717 45.5598 53.2814 45.5198 53.5561 45.4748V45.5298C54.0856 45.4898 54.64 45.4549 55.2094 45.4449C55.7789 45.4349 56.3982 45.4449 57.0026 45.4449C56.5581 45.4449 56.1185 45.4898 55.6989 45.5198V45.4599C55.4242 45.5048 55.1145 45.5448 54.7549 45.5847V67.3829C54.7764 68.3509 55.0141 69.3014 55.4507 70.1661C55.8868 71.0302 56.5111 71.7859 57.2774 72.3778C58.9432 73.7235 61.0151 74.4662 63.1564 74.4857Z"
    fill="white" />
  <path
    d="M52.8366 49.2548C52.6378 49.2548 52.4475 49.1759 52.3067 49.0354C52.1663 48.8948 52.0874 48.7043 52.0874 48.5056V19.6697C52.0874 19.471 52.1663 19.2803 52.3067 19.1398C52.4475 18.9993 52.6378 18.9204 52.8366 18.9204H70.0543C70.2531 18.9204 70.4434 18.9993 70.5843 19.1398C70.7246 19.2803 70.8035 19.471 70.8035 19.6697V35.244C70.8035 35.4427 70.7246 35.6332 70.5843 35.7737C70.4434 35.9142 70.2531 35.9932 70.0543 35.9932C69.8555 35.9932 69.6652 35.9142 69.5243 35.7737C69.384 35.6332 69.305 35.4427 69.305 35.244V20.4189H53.5859V48.5056C53.5859 48.7043 53.507 48.8948 53.3666 49.0354C53.2258 49.1759 53.0354 49.2548 52.8366 49.2548Z"
    fill="#381609" />
  <path
    d="M61.4381 75.4544C58.9571 75.4504 56.579 74.4624 54.8253 72.7076C53.0715 70.9529 52.085 68.5743 52.0825 66.0938V52.6074C52.0825 52.4086 52.1614 52.2178 52.3018 52.0774C52.4427 51.9371 52.633 51.8582 52.8318 51.8582C53.0306 51.8582 53.2209 51.9371 53.3617 52.0774C53.5021 52.2178 53.581 52.4086 53.581 52.6074V66.0938C53.5545 67.1423 53.7384 68.1857 54.1215 69.1627C54.5046 70.1392 55.079 71.0293 55.8118 71.7806C56.544 72.5318 57.4196 73.1287 58.3862 73.5363C59.3527 73.9439 60.3916 74.1537 61.4406 74.1537C62.4895 74.1537 63.5285 73.9439 64.495 73.5363C65.4615 73.1287 66.3372 72.5318 67.0694 71.7806C67.8022 71.0293 68.3766 70.1392 68.7597 69.1627C69.1428 68.1857 69.3266 67.1423 69.3002 66.0938V59.9C69.3002 59.7012 69.3791 59.5104 69.5194 59.3701C69.6603 59.2297 69.8506 59.1508 70.0494 59.1508C70.2482 59.1508 70.4385 59.2297 70.5794 59.3701C70.7197 59.5104 70.7987 59.7012 70.7987 59.9V66.0938C70.7947 68.5748 69.8072 70.9534 68.0524 72.7081C66.2982 74.4629 63.9196 75.4504 61.4381 75.4544Z"
    fill="#381609" />
  <path
    d="M70.0544 55.4499C69.8556 55.4499 69.6653 55.371 69.5245 55.2306C69.3841 55.0898 69.3052 54.8995 69.3052 54.7007V38.467C69.3052 38.2683 69.3841 38.0777 69.5245 37.9372C69.6653 37.7967 69.8556 37.7178 70.0544 37.7178C70.2532 37.7178 70.4435 37.7967 70.5844 37.9372C70.7247 38.0777 70.8037 38.2683 70.8037 38.467V54.7256C70.7972 54.9199 70.7153 55.1042 70.5754 55.2391C70.4355 55.3745 70.2487 55.4499 70.0544 55.4499Z"
    fill="#381609" />
  <path
    d="M53.7107 20.2042H69.6347C71.792 20.2042 73.5408 18.4554 73.5408 16.2982C73.5408 14.1409 71.792 12.3921 69.6347 12.3921H53.7107C51.5534 12.3921 49.8047 14.1409 49.8047 16.2982C49.8047 18.4554 51.5534 20.2042 53.7107 20.2042Z"
    fill="white" />
  <path opacity="0.49"
    d="M65.4341 12.5967H69.2602C72.2322 12.5967 74.6498 14.3449 74.6498 16.5027C74.6263 17.0557 74.471 17.5951 74.1963 18.0756C73.9215 18.5562 73.5359 18.964 73.0714 19.265C71.951 20.0335 70.6189 20.4334 69.2602 20.4088H65.4341C66.7912 20.4347 68.1224 20.0347 69.2402 19.265C69.7068 18.9619 70.0944 18.5517 70.3706 18.0687C70.6468 17.5857 70.8042 17.0437 70.8286 16.4878C70.8286 14.3449 68.4311 12.5967 65.4341 12.5967Z"
    fill="#B3E2FF" />
  <path
    d="M68.5979 17.3924C68.7248 16.9525 68.5465 16.5145 68.1993 16.4142C67.8522 16.3139 67.4676 16.5892 67.3407 17.0291C67.2133 17.469 67.3916 17.907 67.7388 18.0073C68.0859 18.1077 68.4706 17.8323 68.5979 17.3924Z"
    fill="white" />
  <path
    d="M70.2293 21.0595H53.2464C52.0541 21.0595 50.9108 20.5859 50.0676 19.7428C49.2246 18.8997 48.751 17.7563 48.751 16.564V16.2394C48.751 15.0471 49.2246 13.9037 50.0676 13.0606C50.9108 12.2175 52.0541 11.7439 53.2464 11.7439H55.0646C55.2634 11.7439 55.4537 11.8228 55.5945 11.9633C55.7349 12.1038 55.8138 12.2944 55.8138 12.4931C55.8138 12.6918 55.7349 12.8824 55.5945 13.023C55.4537 13.1635 55.2634 13.2424 55.0646 13.2424H53.2464C52.4517 13.2424 51.6895 13.5581 51.127 14.1202C50.5651 14.6822 50.2494 15.4445 50.2494 16.2394V16.564C50.2494 17.3589 50.5651 18.1212 51.127 18.6832C51.6895 19.2453 52.4517 19.561 53.2464 19.561H70.2293C71.024 19.561 71.7867 19.2453 72.3486 18.6832C72.9106 18.1212 73.2263 17.3589 73.2263 16.564V16.2394C73.2263 15.4445 72.9106 14.6822 72.3486 14.1202C71.7867 13.5581 71.024 13.2424 70.2293 13.2424H63.4361C63.2373 13.2424 63.047 13.1635 62.9062 13.023C62.7658 12.8824 62.6869 12.6918 62.6869 12.4931C62.6869 12.2944 62.7658 12.1038 62.9062 11.9633C63.047 11.8228 63.2373 11.7439 63.4361 11.7439H70.2293C71.4216 11.7439 72.5649 12.2175 73.4081 13.0606C74.2512 13.9037 74.7247 15.0471 74.7247 16.2394V16.564C74.7247 17.7563 74.2512 18.8997 73.4081 19.7428C72.5649 20.5859 71.4216 21.0595 70.2293 21.0595Z"
    fill="#381609" />
  <path
    d="M60.464 13.2463H57.9665C57.7677 13.2463 57.5774 13.1674 57.4366 13.0269C57.2962 12.8864 57.2173 12.6957 57.2173 12.497C57.2173 12.2983 57.2962 12.1078 57.4366 11.9673C57.5774 11.8267 57.7677 11.7478 57.9665 11.7478H60.464C60.6628 11.7478 60.8531 11.8267 60.994 11.9673C61.1343 12.1078 61.2133 12.2983 61.2133 12.497C61.2133 12.6957 61.1343 12.8864 60.994 13.0269C60.8531 13.1674 60.6628 13.2463 60.464 13.2463Z"
    fill="#381609" />
  <path
    d="M56.7778 59.5507C57.1614 59.5507 57.4721 58.8484 57.4721 57.9822C57.4721 57.1161 57.1614 56.4138 56.7778 56.4138C56.3942 56.4138 56.0835 57.1161 56.0835 57.9822C56.0835 58.8484 56.3942 59.5507 56.7778 59.5507Z"
    fill="white" />
  <path
    d="M58.8358 55.6932C58.9876 55.6932 59.1105 55.5699 59.1105 55.4185C59.1105 55.2667 58.9876 55.1438 58.8358 55.1438C58.6839 55.1438 58.561 55.2667 58.561 55.4185C58.561 55.5699 58.6839 55.6932 58.8358 55.6932Z"
    fill="white" />
  <path
    d="M65.8881 68.9559C66.1618 68.0498 65.943 67.1827 65.4006 67.0189C64.8576 66.855 64.1958 67.4559 63.9221 68.362C63.6483 69.2676 63.8666 70.1347 64.4096 70.2986C64.9525 70.4629 65.6143 69.8615 65.8881 68.9559Z"
    fill="#1BDD1B" />
  <path
    d="M64.1752 71.5482C64.396 71.5482 64.5748 71.3694 64.5748 71.1486C64.5748 70.9278 64.396 70.749 64.1752 70.749C63.9545 70.749 63.7756 70.9278 63.7756 71.1486C63.7756 71.3694 63.9545 71.5482 64.1752 71.5482Z"
    fill="#1BDD1B" />
  <path
    d="M64.5098 54.0013C65.0643 54.0013 65.5138 53.1516 65.5138 52.1032C65.5138 51.0547 65.0643 50.2051 64.5098 50.2051C63.9554 50.2051 63.5059 51.0547 63.5059 52.1032C63.5059 53.1516 63.9554 54.0013 64.5098 54.0013Z"
    fill="#1BDD1B" />
  <path
    d="M56.7778 54.7739C56.579 54.7739 56.3887 54.695 56.2478 54.5547C56.1075 54.4138 56.0286 54.2235 56.0286 54.0247V49.729C56.0286 49.5303 56.1075 49.3397 56.2478 49.1992C56.3887 49.0587 56.579 48.9797 56.7778 48.9797C56.9766 48.9797 57.1669 49.0587 57.3078 49.1992C57.4481 49.3397 57.5271 49.5303 57.5271 49.729V54.0247C57.5271 54.2235 57.4481 54.4138 57.3078 54.5547C57.1669 54.695 56.9766 54.7739 56.7778 54.7739Z"
    fill="white" />
  <path
    d="M64.3952 48.3856C62.9347 48.366 61.4936 48.0499 60.1595 47.4565C58.1046 46.615 55.8788 46.2727 53.666 46.4575C53.5342 46.4686 53.4033 46.4269 53.3024 46.3417C53.201 46.2565 53.1381 46.1347 53.1266 46.003C53.1206 45.9361 53.1276 45.8687 53.1481 45.8049C53.1685 45.741 53.202 45.6818 53.2455 45.631C53.2894 45.5802 53.3429 45.5387 53.4033 45.5091C53.4637 45.4794 53.5292 45.4623 53.5961 45.4585C55.9627 45.2594 58.3428 45.6205 60.5441 46.5124C62.5766 47.4601 64.8842 47.6376 67.0376 47.0119C67.7259 46.84 68.4042 46.6315 69.0705 46.3876C69.1944 46.3423 69.3312 46.3479 69.4511 46.4032C69.5705 46.4584 69.6639 46.5587 69.7099 46.6823C69.7328 46.7439 69.7438 46.8096 69.7413 46.8753C69.7393 46.9412 69.7239 47.0059 69.6964 47.0657C69.6689 47.1256 69.6299 47.1795 69.582 47.2243C69.5335 47.269 69.4771 47.3039 69.4152 47.3266C68.6959 47.5864 67.9766 47.8261 67.2823 47.981C66.3403 48.2353 65.3707 48.3712 64.3952 48.3856Z"
    fill="#381609" />
  <path
    d="M55.6589 39.4905C55.5925 39.4905 55.5291 39.4642 55.4821 39.4174C55.4357 39.3705 55.4092 39.307 55.4092 39.2408V33.6164C55.4092 33.5502 55.4357 33.4867 55.4821 33.4398C55.5291 33.393 55.5925 33.3667 55.6589 33.3667C55.7254 33.3667 55.7888 33.393 55.8352 33.4398C55.8822 33.4867 55.9087 33.5502 55.9087 33.6164V39.2408C55.9087 39.307 55.8822 39.3705 55.8352 39.4174C55.7888 39.4642 55.7254 39.4905 55.6589 39.4905Z"
    fill="#381609" />
  <path
    d="M56.9026 36.3241C56.8361 36.3241 56.7727 36.2978 56.7258 36.251C56.6793 36.2041 56.6528 36.1406 56.6528 36.0744V27.9775C56.6528 27.9113 56.6793 27.8478 56.7258 27.8009C56.7727 27.7541 56.8361 27.7278 56.9026 27.7278C56.969 27.7278 57.0325 27.7541 57.0789 27.8009C57.1259 27.8478 57.1523 27.9113 57.1523 27.9775V36.0744C57.1523 36.1406 57.1259 36.2041 57.0789 36.251C57.0325 36.2978 56.969 36.3241 56.9026 36.3241Z"
    fill="#381609" />
  <path
    d="M97.0822 71.204C97.2006 71.204 97.297 71.1076 97.297 70.9892C97.297 70.8703 97.2006 70.7744 97.0822 70.7744C96.9633 70.7744 96.8674 70.8703 96.8674 70.9892C96.8674 71.1076 96.9633 71.204 97.0822 71.204Z"
    fill="#EFAB89" />
  <path
    d="M102.017 46.6821V63.4403C102.017 69.5742 98.1761 74.5541 93.4359 74.5691H93.311H93.1512C92.9354 74.5651 92.7206 74.5486 92.5068 74.5192C90.4234 74.1785 88.5598 73.0272 87.3221 71.3174C85.6502 69.0392 84.7726 66.2755 84.8246 63.4503V47.6861C84.8246 46.3824 83.2362 43.9399 85.1343 43.775C87.4319 43.5802 90.5738 45.4184 94.33 44.9289C96.8275 44.5992 104.495 45.1586 102.042 46.6821C101.398 47.0667 101.348 46.9218 102.017 46.6821Z"
    fill="#F759D9" />
  <path
    d="M93.9053 74.5351H93.7754H93.4907H93.4058H93.146C93.0162 74.5351 92.8913 74.5351 92.7614 74.5351C92.6316 74.5351 92.5366 74.5351 92.4268 74.5102H92.5017C96.7274 74.0606 98.8053 71.1236 98.8053 67.5572L98.9252 45.4595C99.6395 45.2797 101.672 46.0589 102.342 45.8141L102.017 45.2297L102.082 67.5272C102.082 71.2984 98.4457 74.3553 93.9053 74.5351Z"
    fill="#D81EBE" />
  <path
    d="M96.4728 74.3208C95.4039 74.7304 94.5597 74.5905 93.311 74.6005H93.2361C91.0198 74.627 88.8645 73.8743 87.1472 72.4727C86.3745 71.8543 85.7481 71.0731 85.3121 70.1845C84.876 69.2959 84.6412 68.3224 84.6248 67.3329V45.0004C84.9844 44.9604 84.8345 43.8266 85.1243 43.7766L85.5838 44.8705C86.1133 44.8305 85.4489 43.7267 86.0184 43.7117C86.7376 43.7117 88.7106 44.7406 89.4349 44.8605L89.8095 46.359C91.5827 53.5667 95.0043 61.224 92.7066 68.3368C91.0882 73.3318 94.32 73.4867 94.7046 74.2559C95.4039 75.7644 95.5338 73.9562 96.4728 74.3208Z"
    fill="#FC90ED" />
  <path
    d="M95.124 74.2948C94.5496 74.3348 93.9652 74.2948 93.2409 74.2948H93.166C90.9577 74.3243 88.8069 73.5905 87.0771 72.2169C86.3109 71.625 85.6865 70.8693 85.2505 70.0051C84.8139 69.141 84.5762 68.19 84.5547 67.2219V45.4039C84.9143 45.3639 84.6046 43.7655 84.8794 43.7206V43.7805C85.4088 43.7356 85.9633 43.7056 86.5327 43.6906C87.1021 43.6756 86.0831 43.7356 86.6875 43.7605C86.243 43.7605 87.4418 43.7605 87.0222 43.7605L87.177 44.26C86.9023 44.305 86.8973 44.26 86.5377 44.26L86.6975 67.157C86.719 68.125 86.9568 69.0761 87.3933 69.9402C87.8294 70.8043 88.4538 71.5601 89.22 72.152C90.8898 73.5121 92.9707 74.2673 95.124 74.2948Z"
    fill="white" />
  <path
    d="M84.7995 47.0633C84.6007 47.0633 84.4104 46.9843 84.2696 46.8438C84.1292 46.7033 84.0503 46.5127 84.0503 46.314V19.4861C84.0503 19.2874 84.1292 19.0968 84.2696 18.9562C84.4104 18.8157 84.6007 18.7368 84.7995 18.7368H102.017C102.216 18.7368 102.406 18.8157 102.547 18.9562C102.688 19.0968 102.766 19.2874 102.766 19.4861V37.5479C102.766 37.7466 102.688 37.9372 102.547 38.0777C102.406 38.2182 102.216 38.2971 102.017 38.2971C101.818 38.2971 101.628 38.2182 101.487 38.0777C101.347 37.9372 101.268 37.7466 101.268 37.5479V20.2253H85.5488V46.314C85.5488 46.5127 85.4699 46.7033 85.3295 46.8438C85.1886 46.9843 84.9983 47.0633 84.7995 47.0633Z"
    fill="#381609" />
  <path
    d="M93.4057 75.259C90.9242 75.255 88.5456 74.2675 86.7914 72.5128C85.0367 70.7585 84.0492 68.3799 84.0452 65.8984V50.414C84.0452 50.2152 84.1241 50.0249 84.2645 49.8842C84.4053 49.7437 84.5956 49.6648 84.7944 49.6648C84.9932 49.6648 85.1835 49.7437 85.3244 49.8842C85.4647 50.0249 85.5437 50.2152 85.5437 50.414V65.8984C85.5172 66.9474 85.701 67.9908 86.0841 68.9673C86.4672 69.9443 87.0416 70.8345 87.7744 71.5852C88.5067 72.3364 89.3823 72.9333 90.3488 73.3409C91.3153 73.7485 92.3543 73.9588 93.4032 73.9588C94.4522 73.9588 95.4911 73.7485 96.4577 73.3409C97.4242 72.9333 98.2998 72.3364 99.0321 71.5852C99.7648 70.8345 100.339 69.9443 100.722 68.9673C101.105 67.9908 101.289 66.9474 101.263 65.8984V59.7047C101.263 59.5059 101.342 59.3156 101.482 59.1747C101.623 59.0344 101.813 58.9554 102.012 58.9554C102.211 58.9554 102.401 59.0344 102.542 59.1747C102.682 59.3156 102.761 59.5059 102.761 59.7047V65.8984C102.759 68.3794 101.772 70.758 100.019 72.5128C98.2648 74.2675 95.8867 75.255 93.4057 75.259Z"
    fill="#381609" />
  <path
    d="M102.017 55.264C101.818 55.264 101.628 55.1851 101.487 55.0448C101.347 54.9039 101.268 54.7136 101.268 54.5148V43.2512C101.268 43.0525 101.347 42.8619 101.487 42.7214C101.628 42.5809 101.818 42.502 102.017 42.502C102.216 42.502 102.406 42.5809 102.547 42.7214C102.687 42.8619 102.766 43.0525 102.766 43.2512V54.5148C102.766 54.7136 102.687 54.9039 102.547 55.0448C102.406 55.1851 102.216 55.264 102.017 55.264Z"
    fill="#381609" />
  <path
    d="M97.7884 68.3194C97.9328 67.8359 97.8139 67.3734 97.5232 67.2865C97.2325 67.2001 96.8798 67.5217 96.7355 68.0058C96.5911 68.4893 96.71 68.9518 97.0007 69.0387C97.2914 69.1251 97.6441 68.8035 97.7884 68.3194Z"
    fill="#D81EBE" />
  <path
    d="M97.5717 51.6823C97.8639 51.6823 98.1012 51.2372 98.1012 50.6883C98.1012 50.1393 97.8639 49.6941 97.5717 49.6941C97.2795 49.6941 97.0422 50.1393 97.0422 50.6883C97.0422 51.2372 97.2795 51.6823 97.5717 51.6823Z"
    fill="#D81EBE" />
  <path
    d="M88.271 59.6551C88.0722 59.6551 87.8819 59.5762 87.741 59.4353C87.6006 59.295 87.5217 59.1042 87.5217 58.9059V54.6052C87.5217 54.4064 87.6006 54.2156 87.741 54.0752C87.8819 53.9349 88.0722 53.856 88.271 53.856C88.4698 53.856 88.6601 53.9349 88.8009 54.0752C88.9413 54.2156 89.0202 54.4064 89.0202 54.6052V58.9059C89.0202 59.1042 88.9413 59.295 88.8009 59.4353C88.6601 59.5762 88.4698 59.6551 88.271 59.6551Z"
    fill="white" />
  <path
    d="M87.6267 39.2963C87.5603 39.2963 87.4968 39.27 87.4499 39.2231C87.4034 39.1763 87.377 39.1128 87.377 39.0466V32.9277C87.377 32.8614 87.4034 32.798 87.4499 32.7511C87.4968 32.7043 87.5603 32.678 87.6267 32.678C87.6931 32.678 87.7566 32.7043 87.803 32.7511C87.85 32.798 87.8764 32.8614 87.8764 32.9277V39.0466C87.8764 39.1128 87.85 39.1763 87.803 39.2231C87.7566 39.27 87.6931 39.2963 87.6267 39.2963Z"
    fill="#381609" />
  <path
    d="M88.8655 35.1287C88.799 35.1287 88.7356 35.1023 88.6886 35.0555C88.6422 35.0087 88.6157 34.9451 88.6157 34.8789V23.2656C88.6167 23.1998 88.6437 23.137 88.6901 23.0904C88.7366 23.0439 88.7995 23.0172 88.8655 23.0159C88.9319 23.0159 88.9953 23.0422 89.0418 23.089C89.0887 23.1358 89.1152 23.1994 89.1152 23.2656V34.8789C89.1152 34.9451 89.0887 35.0087 89.0418 35.0555C88.9953 35.1023 88.9319 35.1287 88.8655 35.1287Z"
    fill="#381609" />
  <path
    d="M92.7366 45.7443C87.407 45.7443 84.8895 43.5914 84.7796 43.4965C84.6802 43.409 84.6198 43.2857 84.6113 43.1537C84.6033 43.0216 84.6472 42.8916 84.7347 42.7922C84.8221 42.693 84.9454 42.6325 85.0773 42.6241C85.2097 42.6157 85.3395 42.66 85.4389 42.7473C85.4389 42.7473 87.9364 44.8252 93.0762 44.7453C96.6926 44.6803 101.508 44.7453 101.568 44.7453C101.7 44.7453 101.827 44.7979 101.921 44.8916C102.015 44.9852 102.067 45.1123 102.067 45.2448C102.067 45.3772 102.015 45.5042 101.921 45.598C101.827 45.6916 101.7 45.7443 101.568 45.7443C101.523 45.7443 96.7226 45.6793 93.1212 45.7443H92.7366Z"
    fill="#381609" />
  <path
    d="M88.7404 62.5121C89.1241 62.5121 89.4347 62.2014 89.4347 61.8178C89.4347 61.4347 89.1241 61.1235 88.7404 61.1235C88.3568 61.1235 88.0461 61.4347 88.0461 61.8178C88.0461 62.2014 88.3568 62.5121 88.7404 62.5121Z"
    fill="white" />
  <path
    d="M46.7679 75.793H40.8039C40.7377 75.793 40.6742 75.7665 40.6274 75.7195C40.5805 75.6726 40.5542 75.6091 40.5542 75.5432C40.5555 75.4773 40.5822 75.4143 40.6288 75.3679C40.6753 75.3214 40.7381 75.2945 40.8039 75.2935H46.7679C46.8342 75.2935 46.8977 75.3194 46.9446 75.3664C46.9914 75.4133 47.0177 75.4768 47.0177 75.5432C47.0177 75.6091 46.9914 75.6726 46.9446 75.7195C46.8977 75.7665 46.8342 75.793 46.7679 75.793Z"
    fill="#381609" />
  <path
    d="M50.2344 75.793H48.7659C48.6996 75.793 48.6361 75.7665 48.5892 75.7195C48.5424 75.6726 48.5161 75.6091 48.5161 75.5432C48.5161 75.4768 48.5424 75.4133 48.5892 75.3664C48.6361 75.3194 48.6996 75.2935 48.7659 75.2935H50.2344C50.3004 75.2945 50.3628 75.3214 50.4098 75.3679C50.4562 75.4143 50.4827 75.4773 50.4842 75.5432C50.4842 75.6091 50.4577 75.6726 50.4108 75.7195C50.3643 75.7665 50.3004 75.793 50.2344 75.793Z"
    fill="#381609" />
  <path
    d="M13.0719 79.5156H7.1079C7.04167 79.5156 6.97813 79.4891 6.93128 79.4422C6.88448 79.3952 6.85815 79.3318 6.85815 79.2659C6.85815 79.1994 6.88448 79.136 6.93128 79.089C6.97813 79.0421 7.04167 79.0161 7.1079 79.0161H13.0719C13.1381 79.0161 13.2017 79.0421 13.2485 79.089C13.2953 79.136 13.3216 79.1994 13.3216 79.2659C13.3216 79.3318 13.2953 79.3952 13.2485 79.4422C13.2017 79.4891 13.1381 79.5156 13.0719 79.5156Z"
    fill="#381609" />
  <path
    d="M16.5333 79.5156H15.0698C15.0036 79.5156 14.94 79.4891 14.8932 79.4422C14.8464 79.3952 14.8201 79.3318 14.8201 79.2659C14.8201 79.1994 14.8464 79.136 14.8932 79.089C14.94 79.0421 15.0036 79.0161 15.0698 79.0161H16.5333C16.5996 79.0161 16.6631 79.0421 16.71 79.089C16.7568 79.136 16.7831 79.1994 16.7831 79.2659C16.7831 79.3318 16.7568 79.3952 16.71 79.4422C16.6631 79.4891 16.5996 79.5156 16.5333 79.5156Z"
    fill="#381609" />
  <path d="M116.238 80.1145H6.59326V81.7678H116.238V80.1145Z" fill="#F9AB75" />
  <path
    d="M116.238 82.2668H7.10789C6.97543 82.2668 6.84836 82.2139 6.7547 82.1205C6.661 82.0266 6.6084 81.8997 6.6084 81.7673V73.7754C6.6084 73.6425 6.661 73.5156 6.7547 73.4217C6.84836 73.3283 6.97543 73.2759 7.10789 73.2759H21.2936C21.3772 73.2759 21.4594 73.2969 21.5327 73.3368C21.606 73.3773 21.668 73.4352 21.7132 73.5051C22.0744 74.0651 22.4947 74.5841 22.9669 75.0536C23.9708 76.0586 25.1865 76.8258 26.5252 77.2998C27.8638 77.7743 29.2915 77.9432 30.7039 77.7948C32.1163 77.6465 33.4776 77.1844 34.6884 76.4422C35.8992 75.6999 36.9289 74.6964 37.7021 73.5051C37.7472 73.4352 37.8092 73.3773 37.8825 73.3368C37.9558 73.2969 38.0381 73.2759 38.1216 73.2759H53.2564C53.3398 73.2759 53.4222 73.2969 53.4956 73.3368C53.5686 73.3773 53.631 73.4352 53.6759 73.5051C54.5411 74.8373 55.7254 75.9317 57.121 76.6894C58.5171 77.4467 60.08 77.8438 61.6679 77.8438C63.2558 77.8438 64.8187 77.4467 66.2148 76.6894C67.6104 75.9317 68.7947 74.8373 69.6598 73.5051C69.7048 73.4352 69.7672 73.3773 69.8402 73.3368C69.9136 73.2969 69.996 73.2759 70.0794 73.2759H85.2192C85.3026 73.2759 85.385 73.2969 85.4584 73.3368C85.5313 73.3773 85.5938 73.4352 85.6387 73.5051C85.9999 74.0651 86.4204 74.5841 86.8925 75.0536C87.896 76.0581 89.1112 76.8258 90.4494 77.2998C91.7875 77.7743 93.2151 77.9432 94.6272 77.7948C96.0392 77.6465 97.3999 77.1844 98.6107 76.4422C99.8209 75.6999 100.85 74.6964 101.623 73.5051C101.668 73.4352 101.73 73.3773 101.803 73.3368C101.876 73.2969 101.959 73.2759 102.042 73.2759H116.233C116.365 73.2759 116.493 73.3283 116.586 73.4217C116.68 73.5156 116.732 73.6425 116.732 73.7754V81.7673C116.732 81.8987 116.68 82.0251 116.588 82.1185C116.495 82.2119 116.369 82.2653 116.238 82.2668ZM7.60739 81.2678H115.738V74.2749H102.312C101.438 75.5496 100.294 76.6165 98.9618 77.3992C97.6291 78.1824 96.1406 78.6624 94.6017 78.8053C93.0627 78.9487 91.5108 78.7509 90.0568 78.2269C88.6027 77.7029 87.2821 76.8653 86.1882 75.7734C85.7336 75.3108 85.3206 74.8093 84.9544 74.2749H70.3491C69.475 75.5496 68.3312 76.6165 66.999 77.3992C65.6664 78.1824 64.1779 78.6624 62.6389 78.8053C61.1 78.9487 59.548 78.7509 58.094 78.2269C56.64 77.7029 55.3193 76.8653 54.2254 75.7734C53.7684 75.3118 53.3533 74.8103 52.9866 74.2749H38.3864C37.5119 75.5496 36.3676 76.6165 35.0347 77.3997C33.7017 78.1824 32.2127 78.6624 30.6733 78.8058C29.134 78.9487 27.5821 78.7514 26.1276 78.2269C24.6732 77.7029 23.3519 76.8653 22.2576 75.7734C21.8014 75.3123 21.3884 74.8108 21.0239 74.2749H7.60739V81.2678Z"
    fill="#381609" />
  <g opacity="0.45">
    <path opacity="0.45"
      d="M41.0785 78.2712C40.9105 78.2647 40.7477 78.2113 40.609 78.1164C40.3407 78.0265 40.0561 77.9955 39.7748 78.0265C39.7423 78.036 39.7079 78.0385 39.6743 78.0335C39.6407 78.029 39.6085 78.0165 39.58 77.998C39.5515 77.9795 39.5274 77.9551 39.5093 77.9261C39.4912 77.8976 39.4795 77.8651 39.4751 77.8317C39.4398 77.6624 39.4572 77.486 39.5251 77.3272C39.593 77.1683 39.708 77.034 39.8547 76.9426C40.0048 76.8567 40.1803 76.8272 40.3502 76.8582C40.5201 76.8891 40.6737 76.979 40.7838 77.1124C40.8438 77.1873 40.8837 77.2722 40.9486 77.3422C41.0068 77.4041 41.0808 77.4491 41.1627 77.472C41.2446 77.495 41.3313 77.495 41.4132 77.472C41.4961 77.4331 41.5864 77.4126 41.6779 77.4121C41.7365 77.4261 41.7911 77.4536 41.8378 77.492C41.9414 77.5535 42.0301 77.6369 42.0975 77.7368C42.133 77.7872 42.152 77.8472 42.152 77.9091C42.152 77.9705 42.133 78.031 42.0975 78.0814C42.0589 78.1209 42.0132 78.1534 41.9626 78.1763C41.6897 78.3007 41.3867 78.3437 41.0899 78.3007C40.7931 78.2572 40.5151 78.1289 40.2893 77.9316"
      fill="#FFEDE1" />
    <path opacity="0.45"
      d="M44.1538 77.8144C44.3215 77.5921 44.1305 77.1656 43.7273 76.8619C43.324 76.5577 42.8612 76.4923 42.6936 76.7145C42.526 76.9373 42.7169 77.3639 43.1202 77.6676C43.5234 77.9713 43.9861 78.0372 44.1538 77.8144Z"
      fill="#FFEDE1" />
    <path opacity="0.45"
      d="M43.7459 79.6086C43.9225 79.6086 44.0656 79.4652 44.0656 79.2889C44.0656 79.1121 43.9225 78.9692 43.7459 78.9692C43.5694 78.9692 43.4263 79.1121 43.4263 79.2889C43.4263 79.4652 43.5694 79.6086 43.7459 79.6086Z"
      fill="#FFEDE1" />
    <path opacity="0.45"
      d="M45.1995 79.095C45.5719 79.095 45.8738 78.8782 45.8738 78.6105C45.8738 78.3433 45.5719 78.126 45.1995 78.126C44.827 78.126 44.5251 78.3433 44.5251 78.6105C44.5251 78.8782 44.827 79.095 45.1995 79.095Z"
      fill="#FFEDE1" />
    <path opacity="0.45"
      d="M45.3943 77.3519C45.6233 77.3519 45.8089 77.1661 45.8089 76.9373C45.8089 76.708 45.6233 76.5227 45.3943 76.5227C45.1653 76.5227 44.9797 76.708 44.9797 76.9373C44.9797 77.1661 45.1653 77.3519 45.3943 77.3519Z"
      fill="#FFEDE1" />
    <path opacity="0.45"
      d="M40.524 79.5345C40.6812 79.5345 40.8087 79.4071 40.8087 79.2498C40.8087 79.0925 40.6812 78.9651 40.524 78.9651C40.3667 78.9651 40.2393 79.0925 40.2393 79.2498C40.2393 79.4071 40.3667 79.5345 40.524 79.5345Z"
      fill="#FFEDE1" />
  </g>
  <g opacity="0.45">
    <path opacity="0.45"
      d="M18.3714 78.4508C18.2615 78.4508 18.1616 78.3959 18.0567 78.3509C17.8786 78.2905 17.6893 78.27 17.5023 78.291C17.4755 78.296 17.4479 78.295 17.4214 78.289C17.3947 78.283 17.3696 78.272 17.3474 78.256C17.3247 78.2286 17.3092 78.1961 17.3025 78.1611C17.2797 78.0477 17.2918 77.9304 17.3373 77.8245C17.3828 77.7181 17.4595 77.6282 17.5572 77.5667C17.658 77.5118 17.7745 77.4933 17.8874 77.5143C18.0001 77.5353 18.1023 77.5942 18.1766 77.6816C18.2166 77.7316 18.2415 77.7865 18.2865 77.8365C18.3261 77.8769 18.3755 77.9059 18.4299 77.9209C18.4843 77.9354 18.5417 77.9359 18.5962 77.9214C18.6511 77.8964 18.7106 77.8829 18.771 77.8814C18.8094 77.8899 18.8453 77.9069 18.8759 77.9314C18.9434 77.9758 19.0026 78.0313 19.0507 78.0962C19.0751 78.1297 19.0882 78.1696 19.0882 78.2111C19.0882 78.2525 19.0751 78.2925 19.0507 78.326C19.0265 78.3549 18.9956 78.3769 18.9608 78.3909C18.7793 78.4733 18.5779 78.5023 18.3805 78.4738C18.1831 78.4458 17.9979 78.3614 17.8469 78.2311"
      fill="#FFEDE1" />
    <path opacity="0.45"
      d="M20.4189 78.1474C20.5301 77.9996 20.4023 77.7159 20.1335 77.5136C19.8647 77.3108 19.5566 77.2663 19.4454 77.4142C19.3342 77.5615 19.462 77.8453 19.7308 78.0481C19.9996 78.2504 20.3077 78.2948 20.4189 78.1474Z"
      fill="#FFEDE1" />
    <path opacity="0.45"
      d="M20.1496 79.3444C20.2682 79.3444 20.3644 79.248 20.3644 79.1296C20.3644 79.0107 20.2682 78.9148 20.1496 78.9148C20.031 78.9148 19.9348 79.0107 19.9348 79.1296C19.9348 79.248 20.031 79.3444 20.1496 79.3444Z"
      fill="#FFEDE1" />
    <path opacity="0.45"
      d="M21.1187 78.9997C21.367 78.9997 21.5683 78.8569 21.5683 78.68C21.5683 78.5037 21.367 78.3604 21.1187 78.3604C20.8704 78.3604 20.6692 78.5037 20.6692 78.68C20.6692 78.8569 20.8704 78.9997 21.1187 78.9997Z"
      fill="#FFEDE1" />
    <path opacity="0.45"
      d="M21.2486 77.8409C21.4003 77.8409 21.5233 77.7176 21.5233 77.5662C21.5233 77.4144 21.4003 77.2915 21.2486 77.2915C21.0969 77.2915 20.9739 77.4144 20.9739 77.5662C20.9739 77.7176 21.0969 77.8409 21.2486 77.8409Z"
      fill="#FFEDE1" />
    <path opacity="0.45"
      d="M18.0018 79.2944C18.1067 79.2944 18.1916 79.209 18.1916 79.1046C18.1916 78.9997 18.1067 78.9148 18.0018 78.9148C17.897 78.9148 17.812 78.9997 17.812 79.1046C17.812 79.209 17.897 79.2944 18.0018 79.2944Z"
      fill="#FFEDE1" />
  </g>
  <g opacity="0.45">
    <path opacity="0.45"
      d="M110.589 77.9767C110.479 77.9767 110.379 77.9218 110.279 77.8768C110.099 77.8169 109.908 77.7964 109.719 77.8169C109.667 77.8234 109.613 77.8114 109.57 77.7819C109.543 77.7574 109.527 77.7235 109.525 77.687C109.5 77.5741 109.511 77.4567 109.555 77.3503C109.6 77.244 109.676 77.1535 109.774 77.0926C109.875 77.0377 109.992 77.0192 110.105 77.0402C110.217 77.0611 110.319 77.1201 110.394 77.2075C110.428 77.2594 110.464 77.3094 110.504 77.3573C110.542 77.3993 110.591 77.4298 110.646 77.4458C110.7 77.4617 110.758 77.4622 110.813 77.4473C110.868 77.4223 110.928 77.4088 110.988 77.4073C111.027 77.4158 111.063 77.4328 111.093 77.4572C111.163 77.5002 111.224 77.5561 111.273 77.6221C111.296 77.656 111.308 77.696 111.308 77.737C111.308 77.7779 111.296 77.8179 111.273 77.8518C111.248 77.8798 111.217 77.9023 111.183 77.9168C111.001 77.9997 110.799 78.0287 110.602 77.9992C110.404 77.9702 110.219 77.8843 110.069 77.7519"
      fill="#FFEDE1" />
    <path opacity="0.45"
      d="M112.552 77.4033C112.663 77.2554 112.535 76.9722 112.266 76.7699C111.997 76.5681 111.688 76.5241 111.577 76.672C111.467 76.8199 111.595 77.1036 111.864 77.3054C112.133 77.5077 112.442 77.5511 112.552 77.4033Z"
      fill="#FFEDE1" />
    <path opacity="0.45"
      d="M112.367 78.8698C112.486 78.8698 112.581 78.7739 112.581 78.655C112.581 78.5366 112.486 78.4402 112.367 78.4402C112.248 78.4402 112.152 78.5366 112.152 78.655C112.152 78.7739 112.248 78.8698 112.367 78.8698Z"
      fill="#FFEDE1" />
    <path opacity="0.45"
      d="M113.336 78.5256C113.584 78.5256 113.785 78.3822 113.785 78.2059C113.785 78.0296 113.584 77.8862 113.336 77.8862C113.088 77.8862 112.886 78.0296 112.886 78.2059C112.886 78.3822 113.088 78.5256 113.336 78.5256Z"
      fill="#FFEDE1" />
    <path opacity="0.45"
      d="M113.466 77.3663C113.617 77.3663 113.74 77.2435 113.74 77.0916C113.74 76.9403 113.617 76.8169 113.466 76.8169C113.314 76.8169 113.191 76.9403 113.191 77.0916C113.191 77.2435 113.314 77.3663 113.466 77.3663Z"
      fill="#FFEDE1" />
    <path opacity="0.45"
      d="M110.219 78.8198C110.324 78.8198 110.409 78.7349 110.409 78.63C110.409 78.5251 110.324 78.4402 110.219 78.4402C110.114 78.4402 110.029 78.5251 110.029 78.63C110.029 78.7349 110.114 78.8198 110.219 78.8198Z"
      fill="#FFEDE1" />
  </g>
  <g opacity="0.45">
    <path opacity="0.45"
      d="M78.5408 77.7858C78.3735 77.7788 78.2116 77.7274 78.0713 77.636C77.8035 77.5441 77.5188 77.5116 77.2371 77.5411C77.1976 77.5486 77.1567 77.5476 77.1172 77.5391C77.0778 77.5306 77.0403 77.5141 77.0073 77.4911C76.9709 77.4512 76.9479 77.4002 76.9424 77.3463C76.9049 77.1774 76.9209 77.0011 76.9883 76.8423C77.0553 76.6829 77.1702 76.5481 77.317 76.4572C77.4679 76.3712 77.6442 76.3413 77.815 76.3722C77.9858 76.4032 78.1402 76.4936 78.2511 76.627C78.2995 76.7069 78.353 76.7833 78.4109 76.8567C78.4698 76.9192 78.5448 76.9646 78.6277 76.9871C78.7101 77.0101 78.7975 77.0101 78.8804 76.9866C78.9614 76.9472 79.0503 76.9267 79.1402 76.9267C79.1986 76.9412 79.2536 76.9681 79.3 77.0066C79.4029 77.0705 79.4928 77.1535 79.5647 77.2514C79.5987 77.3023 79.6172 77.3622 79.6172 77.4237C79.6172 77.4851 79.5987 77.5451 79.5647 77.596C79.5263 77.636 79.4803 77.6679 79.4299 77.6909C79.1572 77.8168 78.854 77.8607 78.5568 77.8173C78.2596 77.7738 77.9818 77.645 77.7566 77.4462"
      fill="#FFEDE1" />
    <path opacity="0.45"
      d="M81.6169 77.3309C81.7842 77.1081 81.5934 76.6815 81.1903 76.3778C80.7867 76.0742 80.3242 76.0082 80.1563 76.2305C79.989 76.4533 80.1798 76.8798 80.5829 77.1835C80.986 77.4872 81.449 77.5532 81.6169 77.3309Z"
      fill="#FFEDE1" />
    <path opacity="0.45"
      d="M81.2083 79.1245C81.3847 79.1245 81.528 78.9816 81.528 78.8048C81.528 78.6285 81.3847 78.4851 81.2083 78.4851C81.0315 78.4851 80.8887 78.6285 80.8887 78.8048C80.8887 78.9816 81.0315 79.1245 81.2083 79.1245Z"
      fill="#FFEDE1" />
    <path opacity="0.45"
      d="M82.6616 78.6096C83.0338 78.6096 83.3359 78.3924 83.3359 78.1251C83.3359 77.8574 83.0338 77.6406 82.6616 77.6406C82.289 77.6406 81.9873 77.8574 81.9873 78.1251C81.9873 78.3924 82.289 78.6096 82.6616 78.6096Z"
      fill="#FFEDE1" />
    <path opacity="0.45"
      d="M82.8565 76.8677C83.0852 76.8677 83.2711 76.6819 83.2711 76.4532C83.2711 76.2239 83.0852 76.0386 82.8565 76.0386C82.6277 76.0386 82.4419 76.2239 82.4419 76.4532C82.4419 76.6819 82.6277 76.8677 82.8565 76.8677Z"
      fill="#FFEDE1" />
    <path opacity="0.45"
      d="M77.9864 79.0487C78.1437 79.0487 78.2711 78.9213 78.2711 78.764C78.2711 78.6071 78.1437 78.4792 77.9864 78.4792C77.829 78.4792 77.7017 78.6071 77.7017 78.764C77.7017 78.9213 77.829 79.0487 77.9864 79.0487Z"
      fill="#FFEDE1" />
  </g>
  <path opacity="0.45"
    d="M50.624 77.7874C52.4557 77.7874 53.9407 77.5971 53.9407 77.3628C53.9407 77.128 52.4557 76.9382 50.624 76.9382C48.7923 76.9382 47.3074 77.128 47.3074 77.3628C47.3074 77.5971 48.7923 77.7874 50.624 77.7874Z"
    fill="#FFEDE1" />
  <path opacity="0.45"
    d="M14.0957 76.9483C15.9274 76.9483 17.4124 76.758 17.4124 76.5237C17.4124 76.2889 15.9274 76.0991 14.0957 76.0991C12.264 76.0991 10.7791 76.2889 10.7791 76.5237C10.7791 76.758 12.264 76.9483 14.0957 76.9483Z"
    fill="#FFEDE1" />
  <path opacity="0.45"
    d="M73.0813 79.19C74.913 79.19 76.398 79.0002 76.398 78.7654C76.398 78.5311 74.913 78.3408 73.0813 78.3408C71.2497 78.3408 69.7646 78.5311 69.7646 78.7654C69.7646 79.0002 71.2497 79.19 73.0813 79.19Z"
    fill="#FFEDE1" />
  <path opacity="0.45"
    d="M105.813 77.2915C107.645 77.2915 109.13 77.1017 109.13 76.867C109.13 76.6327 107.645 76.4424 105.813 76.4424C103.982 76.4424 102.497 76.6327 102.497 76.867C102.497 77.1017 103.982 77.2915 105.813 77.2915Z"
    fill="#FFEDE1" />
  <path d="M119.964 27.0234H3.38159V31.444H119.964V27.0234Z" fill="#FFCDAB" />
  <path d="M119.964 27.0234H3.38159V28.9715H119.964V27.0234Z" fill="white" />
  <path
    d="M113.885 31.6438H102.896C102.697 31.6438 102.507 31.5648 102.366 31.4243C102.226 31.2838 102.147 31.0933 102.147 30.8945C102.147 30.6958 102.226 30.5053 102.366 30.3647C102.507 30.2242 102.697 30.1453 102.896 30.1453H113.885C114.084 30.1453 114.274 30.2242 114.415 30.3647C114.555 30.5053 114.634 30.6958 114.634 30.8945C114.634 31.0933 114.555 31.2838 114.415 31.4243C114.274 31.5648 114.084 31.6438 113.885 31.6438Z"
    fill="#F9AB75" />
  <path
    d="M119.58 32.0986H2.99706C2.86458 32.0986 2.73753 32.046 2.64386 31.9523C2.55019 31.8586 2.49756 31.7316 2.49756 31.5991V27.1836C2.49756 27.0511 2.55019 26.924 2.64386 26.8303C2.73753 26.7367 2.86458 26.6841 2.99706 26.6841H119.58C119.712 26.6841 119.839 26.7367 119.933 26.8303C120.027 26.924 120.079 27.0511 120.079 27.1836V31.5991C120.079 31.7316 120.027 31.8586 119.933 31.9523C119.839 32.046 119.712 32.0986 119.58 32.0986ZM3.49655 31.0996H119.08V27.6831H3.49655V31.0996Z"
    fill="#381609" />
  <path
    d="M53.3163 16.1385C53.2759 16.1373 53.2364 16.1268 53.2009 16.1077C53.1655 16.0886 53.135 16.0615 53.1115 16.0286C53.0756 15.9743 53.0621 15.9084 53.0731 15.8444C53.084 15.7803 53.1195 15.7229 53.1715 15.6839L54.4202 14.7948C54.4472 14.7758 54.4776 14.7623 54.5096 14.755C54.5416 14.7477 54.575 14.7468 54.6075 14.7524C54.64 14.758 54.671 14.7698 54.6989 14.7874C54.7269 14.805 54.7509 14.8279 54.7699 14.8548C54.7888 14.8817 54.8023 14.9121 54.8098 14.9442C54.8168 14.9763 54.8178 15.0096 54.8123 15.042C54.8068 15.0745 54.7948 15.1055 54.7773 15.1334C54.7599 15.1612 54.7369 15.1854 54.7099 15.2044L53.4462 16.0885C53.4092 16.1182 53.3638 16.1357 53.3163 16.1385Z"
    fill="#381609" />
  <path
    d="M54.3202 17.5165C54.2797 17.5162 54.2398 17.506 54.2043 17.4869C54.1684 17.4677 54.1379 17.4402 54.1154 17.4066C54.0964 17.3799 54.0834 17.3497 54.0764 17.3177C54.0695 17.2858 54.069 17.2528 54.075 17.2206C54.0814 17.1885 54.0934 17.1579 54.1119 17.1306C54.1299 17.1034 54.1534 17.0801 54.1803 17.062L56.9276 15.1739C56.9825 15.1368 57.05 15.123 57.1154 15.1357C57.1803 15.1484 57.2378 15.1863 57.2747 15.2413C57.3117 15.2963 57.3257 15.3638 57.3127 15.4288C57.3002 15.494 57.2622 15.5514 57.2073 15.5885L54.4451 17.4866C54.4066 17.5068 54.3637 17.5171 54.3202 17.5165Z"
    fill="#381609" />
  <path
    d="M85.7635 20.1046H101.687C103.845 20.1046 105.593 18.3558 105.593 16.1985C105.593 14.0413 103.845 12.2925 101.687 12.2925H85.7635C83.6062 12.2925 81.8574 14.0413 81.8574 16.1985C81.8574 18.3558 83.6062 20.1046 85.7635 20.1046Z"
    fill="white" />
  <path opacity="0.49"
    d="M97.0671 12.2981H100.898C103.865 12.2981 106.288 14.0463 106.288 16.2042C106.264 16.7604 106.109 17.3031 105.833 17.7871C105.558 18.271 105.171 18.6822 104.704 18.9864C103.583 19.7468 102.253 20.1396 100.898 20.1102H97.0721C98.4238 20.1399 99.7509 19.747 100.868 18.9864C101.333 18.6854 101.718 18.2776 101.993 17.797C102.268 17.3164 102.423 16.7771 102.447 16.2241C102.447 14.0463 100.034 12.2981 97.0671 12.2981Z"
    fill="#B3E2FF" />
  <path
    d="M101.847 20.8586H84.8644C83.6721 20.8586 82.5287 20.3849 81.6856 19.5419C80.8424 18.6988 80.3689 17.5554 80.3689 16.3631V16.0384C80.3689 14.8461 80.8424 13.7027 81.6856 12.8596C82.5287 12.0166 83.6721 11.543 84.8644 11.543H101.847C103.04 11.543 104.183 12.0166 105.026 12.8596C105.869 13.7027 106.343 14.8461 106.343 16.0384V16.3631C106.343 17.5554 105.869 18.6988 105.026 19.5419C104.183 20.3849 103.04 20.8586 101.847 20.8586ZM84.8644 13.0465C84.0697 13.0465 83.3069 13.3622 82.745 13.9242C82.1831 14.4863 81.8674 15.2486 81.8674 16.0434V16.3681C81.8674 17.163 82.1831 17.9252 82.745 18.4873C83.3069 19.0493 84.0697 19.3651 84.8644 19.3651H101.847C102.642 19.3651 103.404 19.0493 103.967 18.4873C104.529 17.9252 104.844 17.163 104.844 16.3681V16.0384C104.844 15.2436 104.529 14.4813 103.967 13.9192C103.404 13.3572 102.642 13.0415 101.847 13.0415L84.8644 13.0465Z"
    fill="#381609" />
  <path
    d="M84.9393 15.989C84.8993 15.9897 84.8593 15.9804 84.8239 15.9622C84.7879 15.9438 84.7574 15.9171 84.7345 15.8841C84.7155 15.8573 84.7015 15.8269 84.694 15.7948C84.687 15.7626 84.686 15.7293 84.6915 15.6968C84.697 15.6643 84.709 15.6332 84.7265 15.6054C84.7445 15.5775 84.7674 15.5534 84.7944 15.5345L86.0431 14.6504C86.0696 14.6313 86.0996 14.6178 86.1311 14.6105C86.163 14.6032 86.196 14.6023 86.228 14.6079C86.2599 14.6135 86.2909 14.6254 86.3184 14.643C86.3458 14.6606 86.3693 14.6834 86.3878 14.7103C86.4068 14.7371 86.4208 14.7675 86.4278 14.7997C86.4353 14.8318 86.4363 14.8651 86.4308 14.8976C86.4253 14.9301 86.4133 14.9612 86.3953 14.9891C86.3778 15.017 86.3548 15.041 86.3279 15.06L85.0841 15.9441C85.0412 15.9731 84.9907 15.9888 84.9393 15.989Z"
    fill="#381609" />
  <path
    d="M85.9435 17.353C85.903 17.353 85.8631 17.3431 85.8271 17.3239C85.7916 17.3047 85.7612 17.2769 85.7387 17.2431C85.7197 17.2159 85.7067 17.1853 85.6997 17.1529C85.6927 17.1206 85.6922 17.0872 85.6982 17.0547C85.7042 17.0221 85.7167 16.9912 85.7347 16.9635C85.7527 16.9358 85.7762 16.912 85.8036 16.8935L88.5459 14.9904C88.5728 14.9696 88.6033 14.9545 88.6363 14.946C88.6692 14.9375 88.7032 14.9357 88.7367 14.9409C88.7701 14.946 88.8021 14.9579 88.8311 14.9758C88.8601 14.9938 88.8845 15.0173 88.904 15.0452C88.9235 15.073 88.937 15.1045 88.9435 15.1377C88.9505 15.1709 88.9505 15.2052 88.9435 15.2383C88.9365 15.2715 88.923 15.303 88.9035 15.3307C88.8845 15.3585 88.8596 15.3821 88.8306 15.4L86.0833 17.2881C86.0449 17.3242 85.9959 17.347 85.9435 17.353Z"
    fill="#381609" />
  <path
    d="M21.783 20.5048H37.707C39.8642 20.5048 41.613 18.7559 41.613 16.5987C41.613 14.4414 39.8642 12.6926 37.707 12.6926H21.783C19.6257 12.6926 17.877 14.4414 17.877 16.5987C17.877 18.7559 19.6257 20.5048 21.783 20.5048Z"
    fill="white" />
  <path opacity="0.49"
    d="M33.0916 12.698H36.9177C39.9147 12.698 42.3073 14.4462 42.3073 16.6041C42.2814 17.1565 42.1248 17.6949 41.8504 18.1751C41.5761 18.6552 41.1916 19.0635 40.7289 19.3663C39.6084 20.1349 38.2762 20.5347 36.9177 20.5101H33.0916C34.4486 20.536 35.7797 20.136 36.8977 19.3663C37.3578 19.0618 37.7392 18.6528 38.0109 18.1728C38.2826 17.6927 38.4369 17.1552 38.4611 16.6041C38.4611 14.4462 36.0636 12.698 33.0916 12.698Z"
    fill="#B3E2FF" />
  <path
    d="M37.8719 21.2535H20.889C19.6967 21.2535 18.5533 20.7799 17.7102 19.9368C16.8672 19.0938 16.3936 17.9503 16.3936 16.758V16.4383C16.3936 15.2461 16.8672 14.1026 17.7102 13.2596C18.5533 12.4165 19.6967 11.9429 20.889 11.9429H37.8719C39.0642 11.9429 40.2076 12.4165 41.0506 13.2596C41.8937 14.1026 42.3674 15.2461 42.3674 16.4383V16.763C42.366 17.9545 41.8918 19.0966 41.0489 19.9386C40.206 20.7806 39.0633 21.2535 37.8719 21.2535ZM20.889 13.4464C20.0942 13.4464 19.3318 13.7621 18.7698 14.3242C18.2078 14.8862 17.892 15.6485 17.892 16.4433V16.768C17.892 17.5629 18.2078 18.3252 18.7698 18.8872C19.3318 19.4493 20.0942 19.765 20.889 19.765H37.8719C38.6668 19.765 39.429 19.4493 39.9911 18.8872C40.5531 18.3252 40.8689 17.5629 40.8689 16.768V16.4383C40.8689 15.6435 40.5531 14.8812 39.9911 14.3192C39.429 13.7571 38.6668 13.4414 37.8719 13.4414L20.889 13.4464Z"
    fill="#381609" />
  <path
    d="M20.9788 16.368C20.9387 16.3687 20.899 16.3594 20.8633 16.3411C20.8276 16.3229 20.7969 16.2961 20.774 16.2631C20.7366 16.2085 20.722 16.1414 20.7332 16.0762C20.7443 16.0109 20.7805 15.9525 20.834 15.9135L22.0827 15.0294C22.1096 15.0102 22.1399 14.9965 22.1721 14.9892C22.2042 14.9819 22.2375 14.9809 22.27 14.9865C22.3025 14.9921 22.3336 15.004 22.3615 15.0217C22.3893 15.0393 22.4134 15.0623 22.4323 15.0893C22.4686 15.1443 22.4825 15.2111 22.4714 15.276C22.4603 15.3409 22.4249 15.3991 22.3724 15.439L21.1237 16.3231C21.081 16.3521 21.0305 16.3678 20.9788 16.368Z"
    fill="#381609" />
  <path
    d="M21.9779 17.7477C21.9377 17.7488 21.8979 17.7398 21.8621 17.7215C21.8263 17.7031 21.7957 17.6761 21.7731 17.6428C21.7542 17.6157 21.7409 17.585 21.7339 17.5527C21.7269 17.5204 21.7264 17.4869 21.7325 17.4544C21.7385 17.4219 21.751 17.3909 21.7691 17.3632C21.7872 17.3355 21.8107 17.3117 21.838 17.2932L24.5803 15.4101C24.6074 15.3912 24.6381 15.3778 24.6704 15.3708C24.7027 15.3639 24.7362 15.3634 24.7687 15.3694C24.8012 15.3755 24.8322 15.3879 24.8599 15.406C24.8876 15.4242 24.9114 15.4476 24.9299 15.475C24.9487 15.5017 24.962 15.532 24.9689 15.564C24.9758 15.5959 24.9763 15.6289 24.9702 15.661C24.9641 15.6932 24.9517 15.7238 24.9337 15.751C24.9156 15.7783 24.8922 15.8016 24.865 15.8197L22.1177 17.7078C22.0767 17.7359 22.0276 17.7499 21.9779 17.7477Z"
    fill="#381609" />
  <path d="M118.86 56.6033H4.75513V60.0148H118.86V56.6033Z" fill="#DCE0E2" />
  <path d="M118.765 58.4702H4.6604V60.0137H118.765V58.4702Z" fill="#A0A6A7" />
  <path
    d="M7.962 58.3865C7.93168 58.3865 7.90181 58.379 7.87484 58.365C7.84791 58.3515 7.82469 58.3311 7.80715 58.3066C7.79282 58.2866 7.78263 58.2641 7.77713 58.2401C7.77164 58.2162 7.77099 58.1912 7.77519 58.1672C7.77933 58.1432 7.78832 58.1198 7.80151 58.0993C7.81475 58.0783 7.83193 58.0608 7.85211 58.0468L8.60135 57.5124C8.62168 57.4979 8.64466 57.4874 8.66894 57.4819C8.69326 57.4764 8.71843 57.4759 8.74301 57.4799C8.76759 57.4839 8.79111 57.4929 8.81224 57.5064C8.83337 57.5194 8.85165 57.5369 8.86609 57.5573C8.88037 57.5773 8.89056 57.5998 8.89606 57.6238C8.90155 57.6477 8.90225 57.6722 8.89805 57.6967C8.89386 57.7207 8.88492 57.7437 8.87168 57.7646C8.85849 57.7851 8.84131 57.8031 8.82113 57.8171L8.06689 58.3515C8.03592 58.3725 7.99956 58.385 7.962 58.3865Z"
    fill="#381609" />
  <path
    d="M7.962 59.1961C7.93168 59.1961 7.90181 59.1886 7.87484 59.1751C7.84791 59.1611 7.82469 59.1406 7.80715 59.1162C7.79282 59.0962 7.78263 59.0737 7.77713 59.0497C7.77164 59.0257 7.77099 59.0008 7.77519 58.9768C7.77933 58.9528 7.78832 58.9293 7.80151 58.9089C7.81475 58.8884 7.83193 58.8704 7.85211 58.8564L8.60135 58.322C8.62168 58.3075 8.64466 58.297 8.66894 58.2915C8.69326 58.286 8.71843 58.2855 8.74301 58.2895C8.76759 58.2935 8.79111 58.3025 8.81224 58.316C8.83337 58.3294 8.85165 58.3464 8.86609 58.3669C8.88037 58.3869 8.89056 58.4094 8.89606 58.4333C8.90155 58.4573 8.90225 58.4818 8.89805 58.5063C8.89386 58.5302 8.88492 58.5532 8.87168 58.5742C8.85849 58.5947 8.84131 58.6127 8.82113 58.6266L8.06689 59.1611C8.03697 59.1846 7.99991 59.1966 7.962 59.1961Z"
    fill="#381609" />
  <path
    d="M49.192 57.9977C49.2382 57.74 48.8815 57.4602 48.3954 57.3733C47.9093 57.2864 47.4779 57.4253 47.4318 57.683C47.3856 57.9413 47.7422 58.2205 48.2284 58.3074C48.7144 58.3943 49.1459 58.2559 49.192 57.9977Z"
    fill="#A0A6A7" />
  <path
    d="M75.0943 57.7466H65.8686C65.7363 57.7466 65.6094 57.6936 65.5155 57.6002C65.4216 57.5063 65.3691 57.3794 65.3691 57.2471C65.3691 57.1142 65.4216 56.9873 65.5155 56.8939C65.6094 56.8 65.7363 56.7476 65.8686 56.7476H75.0943C75.2267 56.7476 75.3541 56.8 75.4475 56.8939C75.5414 56.9873 75.5938 57.1142 75.5938 57.2471C75.5938 57.3794 75.5414 57.5063 75.4475 57.6002C75.3541 57.6936 75.2267 57.7466 75.0943 57.7466Z"
    fill="white" />
  <path
    d="M4.95001 64.305H0.499496C0.367022 64.305 0.239973 64.252 0.146299 64.1586C0.0526254 64.0647 0 63.9378 0 63.8055V53.0813C0 52.9489 0.0526254 52.8215 0.146299 52.7281C0.239973 52.6342 0.367022 52.5818 0.499496 52.5818H4.95001C5.08248 52.5818 5.20955 52.6342 5.3032 52.7281C5.39686 52.8215 5.44951 52.9489 5.44951 53.0813V63.8055C5.44951 63.9378 5.39686 64.0647 5.3032 64.1586C5.20955 64.252 5.08248 64.305 4.95001 64.305ZM0.998993 63.306H4.45051V53.5808H0.998993V63.306Z"
    fill="#381609" />
  <path
    d="M123.501 64.305H119.05C118.918 64.305 118.791 64.252 118.697 64.1586C118.603 64.0647 118.551 63.9378 118.551 63.8055V53.0813C118.551 52.9489 118.603 52.8215 118.697 52.7281C118.791 52.6342 118.918 52.5818 119.05 52.5818H123.501C123.633 52.5818 123.76 52.6342 123.854 52.7281C123.948 52.8215 124 52.9489 124 53.0813V63.8055C124 63.9378 123.948 64.0647 123.854 64.1586C123.76 64.252 123.633 64.305 123.501 64.305ZM119.55 63.306H123.001V53.5808H119.55V63.306Z"
    fill="#381609" />
  <path
    d="M119.05 60.5392H4.94994C4.81746 60.5392 4.69041 60.4868 4.59674 60.3929C4.50307 60.2995 4.45044 60.1726 4.45044 60.0397V56.6282C4.45044 56.4958 4.50307 56.3689 4.59674 56.275C4.69041 56.1816 4.81746 56.1287 4.94994 56.1287H42.3472C42.4797 56.1287 42.6068 56.1816 42.7004 56.275C42.7941 56.3689 42.8467 56.4958 42.8467 56.6282C42.8467 56.761 42.7941 56.8879 42.7004 56.9813C42.6068 57.0752 42.4797 57.1277 42.3472 57.1277H5.44943V59.5402H118.55V57.1277H46.4531C46.3206 57.1277 46.1936 57.0752 46.0999 56.9813C46.0062 56.8879 45.9536 56.761 45.9536 56.6282C45.9536 56.4958 46.0062 56.3689 46.0999 56.275C46.1936 56.1816 46.3206 56.1287 46.4531 56.1287H119.03C119.162 56.1287 119.289 56.1816 119.383 56.275C119.477 56.3689 119.529 56.4958 119.529 56.6282V60.0397C119.529 60.1691 119.48 60.293 119.39 60.3864C119.301 60.4793 119.179 60.5342 119.05 60.5392Z"
    fill="#381609" />
  <path
    d="M62.8068 8.73185C63.7419 8.73185 64.5001 7.87087 64.5001 6.80879C64.5001 5.74671 63.7419 4.88574 62.8068 4.88574C61.8718 4.88574 61.1135 5.74671 61.1135 6.80879C61.1135 7.87087 61.8718 8.73185 62.8068 8.73185Z"
    fill="#4EF94E" />
  <path
    d="M62.3722 9.23137C61.8103 9.23137 61.2603 9.06468 60.7933 8.7524C60.3258 8.44011 59.9616 7.99621 59.7464 7.47689C59.5311 6.95756 59.4751 6.38608 59.5845 5.83479C59.6944 5.28345 59.9651 4.77704 60.3627 4.37956C60.7598 3.98208 61.2663 3.7114 61.8178 3.60173C62.3692 3.49207 62.9406 3.54835 63.4596 3.76346C63.9791 3.97858 64.4232 4.34286 64.7353 4.81025C65.0475 5.27765 65.2144 5.82715 65.2144 6.38923C65.2144 6.76251 65.1409 7.13208 64.9981 7.47689C64.8552 7.82174 64.6459 8.13502 64.3817 8.39896C64.118 8.66284 63.8048 8.87223 63.4596 9.01503C63.115 9.15789 62.7453 9.23137 62.3722 9.23137ZM62.3722 4.54611C62.0076 4.54611 61.6514 4.65421 61.3483 4.85674C61.0451 5.05927 60.8088 5.34713 60.6694 5.68389C60.5301 6.0207 60.4931 6.39128 60.5645 6.74882C60.6355 7.10636 60.8113 7.43478 61.069 7.69257C61.3268 7.95031 61.6549 8.12588 62.0126 8.19696C62.3702 8.26809 62.7408 8.23157 63.0775 8.09211C63.4142 7.9526 63.7024 7.71634 63.9047 7.41325C64.1075 7.11015 64.2154 6.75381 64.2154 6.38923C64.2154 5.90042 64.0211 5.4316 63.6754 5.08595C63.3298 4.7403 62.8612 4.54611 62.3722 4.54611Z"
    fill="#381609" />
  <path
    d="M61.2233 42.0068C62.1584 42.0068 62.9166 41.1458 62.9166 40.0837C62.9166 39.0216 62.1584 38.1606 61.2233 38.1606C60.2883 38.1606 59.53 39.0216 59.53 40.0837C59.53 41.1458 60.2883 42.0068 61.2233 42.0068Z"
    fill="#4EF94E" />
  <path
    d="M60.7887 42.5065C60.2268 42.5065 59.6773 42.3398 59.2098 42.0275C58.7423 41.7153 58.3782 41.2714 58.1629 40.752C57.9476 40.2327 57.8916 39.6612 58.001 39.1099C58.1109 38.5586 58.3816 38.0522 58.7792 37.6547C59.1763 37.2572 59.6828 36.9865 60.2343 36.8769C60.7857 36.7672 61.3571 36.8235 61.8761 37.0386C62.3956 37.2537 62.8397 37.618 63.1518 38.0854C63.464 38.5528 63.6309 39.1023 63.6309 39.6644C63.6294 40.4178 63.3297 41.1399 62.7972 41.6727C62.2642 42.2054 61.542 42.5052 60.7887 42.5065ZM60.7887 37.8212C60.4241 37.8212 60.0679 37.9294 59.7648 38.1319C59.4616 38.3344 59.2253 38.6223 59.0859 38.959C58.9466 39.2959 58.9101 39.6664 58.981 40.024C59.052 40.3815 59.2278 40.7099 59.4855 40.9677C59.7433 41.2255 60.0714 41.401 60.4291 41.4721C60.7867 41.5432 61.1574 41.5067 61.494 41.3672C61.8307 41.2278 62.1189 40.9915 62.3212 40.6884C62.524 40.3853 62.6319 40.029 62.6319 39.6644C62.6304 39.176 62.4361 38.7079 62.0904 38.3625C61.7453 38.0172 61.2772 37.8226 60.7887 37.8212Z"
    fill="#381609" />
  <path
    d="M94.3 9.80503C95.271 9.80503 96.0582 9.01787 96.0582 8.0468C96.0582 7.07578 95.271 6.28857 94.3 6.28857C93.3289 6.28857 92.5417 7.07578 92.5417 8.0468C92.5417 9.01787 93.3289 9.80503 94.3 9.80503Z"
    fill="#F759D9" />
  <path
    d="M94.1451 10.2147C93.677 10.2169 93.2155 10.1036 92.8019 9.88457C92.3883 9.66559 92.0352 9.34781 91.774 8.95951C91.5122 8.5712 91.3509 8.12435 91.3039 7.65867C91.257 7.19299 91.3254 6.72286 91.5037 6.2901C91.682 5.85733 91.9643 5.47527 92.3259 5.17792C92.6875 4.88051 93.1166 4.677 93.5756 4.58543C94.0347 4.49387 94.5092 4.51708 94.9572 4.65302C95.4048 4.78895 95.8124 5.03341 96.143 5.36463C96.5391 5.76153 96.8094 6.26672 96.9188 6.81667C97.0287 7.36661 96.9732 7.93669 96.7594 8.45521C96.5461 8.97369 96.1835 9.41744 95.7185 9.73053C95.2534 10.0437 94.706 10.2121 94.1451 10.2147ZM94.1451 5.52946C93.7185 5.52966 93.3054 5.67766 92.9757 5.94834C92.6466 6.21897 92.4208 6.59549 92.3379 7.01377C92.255 7.432 92.3194 7.86611 92.5207 8.24208C92.722 8.61805 93.0472 8.91265 93.4413 9.07574C93.8349 9.23877 94.2734 9.26015 94.6815 9.13623C95.0896 9.0123 95.4418 8.75072 95.6785 8.39612C95.9153 8.04148 96.0222 7.61571 95.9802 7.19139C95.9383 6.76707 95.7504 6.37037 95.4487 6.06892C95.2774 5.89779 95.0741 5.76208 94.8503 5.66952C94.6271 5.57696 94.3873 5.52936 94.1451 5.52946Z"
    fill="#381609" />
  <path
    d="M35.2094 7.58797C36.7267 7.58797 37.9566 6.35801 37.9566 4.84074C37.9566 3.32348 36.7267 2.09351 35.2094 2.09351C33.6921 2.09351 32.4622 3.32348 32.4622 4.84074C32.4622 6.35801 33.6921 7.58797 35.2094 7.58797Z"
    fill="#FFCCB3" />
  <path
    d="M35.0547 7.942C34.1359 7.9412 33.2458 7.62178 32.536 7.03821C31.8263 6.4546 31.341 5.64302 31.1627 4.74165C30.9843 3.8403 31.1241 2.90501 31.5582 2.09517C31.9922 1.28532 32.6936 0.651058 33.5429 0.300458C34.3922 -0.050142 35.3368 -0.0953758 36.2157 0.172465C37.0946 0.440306 37.8535 1.00465 38.3629 1.76931C38.8723 2.53397 39.1009 3.45162 39.0095 4.36589C38.9181 5.28014 38.5125 6.13443 37.8619 6.78317C37.4932 7.1515 37.0554 7.44346 36.5737 7.6423C36.092 7.84115 35.5758 7.943 35.0547 7.942ZM35.0547 1.00399C34.3669 1.00346 33.7003 1.24148 33.1683 1.67748C32.6364 2.11349 32.2722 2.72047 32.1377 3.39497C32.0033 4.06947 32.1069 4.76972 32.431 5.37634C32.7551 5.98298 33.2795 6.45845 33.9149 6.72168C34.5503 6.98492 35.2573 7.01963 35.9154 6.81993C36.5736 6.62019 37.1421 6.19841 37.524 5.62644C37.9059 5.05446 38.0777 4.36772 38.01 3.6833C37.9422 2.99887 37.6392 2.35912 37.1526 1.87311C36.8772 1.59737 36.5502 1.37866 36.1902 1.22953C35.8302 1.08039 35.4443 1.00374 35.0547 1.00399Z"
    fill="#381609" />
  <g opacity="0.7">
    <path opacity="0.7"
      d="M100.634 17.2923C101.078 17.2923 101.438 16.778 101.438 16.1435C101.438 15.509 101.078 14.9946 100.634 14.9946C100.189 14.9946 99.8293 15.509 99.8293 16.1435C99.8293 16.778 100.189 17.2923 100.634 17.2923Z"
      fill="#B3E2FF" />
    <path opacity="0.7"
      d="M99.0351 18.247C99.2864 18.247 99.4896 18.0435 99.4896 17.7924C99.4896 17.5414 99.2864 17.3379 99.0351 17.3379C98.7844 17.3379 98.5806 17.5414 98.5806 17.7924C98.5806 18.0435 98.7844 18.247 99.0351 18.247Z"
      fill="#B3E2FF" />
    <path opacity="0.7"
      d="M98.5906 15.5241C98.9687 15.5241 99.2749 15.2178 99.2749 14.8398C99.2749 14.4619 98.9687 14.1555 98.5906 14.1555C98.2124 14.1555 97.9062 14.4619 97.9062 14.8398C97.9062 15.2178 98.2124 15.5241 98.5906 15.5241Z"
      fill="#B3E2FF" />
  </g>
  <path
    d="M94.0047 52.0159C94.5147 51.8271 94.6271 50.8626 94.2564 49.8614C93.8858 48.8603 93.172 48.2017 92.662 48.3904C92.1526 48.5791 92.0402 49.5437 92.4108 50.5449C92.7814 51.5459 93.4952 52.2047 94.0047 52.0159Z"
    fill="#FC90ED" />
</svg>