<svg width="40" height="40" viewBox="0 0 40 40" fill="none" xmlns="http://www.w3.org/2000/svg">
  <path
    d="M24.4062 24.4062L32 8L15.5938 15.5938L8 32L24.4062 24.4062ZM5.84375 5.9375C9.78125 2 14.5 0.03125 20 0.03125C25.5 0.03125 30.1875 2 34.0625 5.9375C38 9.8125 39.9688 14.5 39.9688 20C39.9688 25.5 38 30.2188 34.0625 34.1562C30.1875 38.0312 25.5 39.9688 20 39.9688C14.5 39.9688 9.78125 38.0312 5.84375 34.1562C1.96875 30.2188 0.03125 25.5 0.03125 20C0.03125 14.5 1.96875 9.8125 5.84375 5.9375ZM18.4062 18.5C18.8438 18.0625 19.375 17.8438 20 17.8438C20.625 17.8438 21.125 18.0625 21.5 18.5C21.9375 18.875 22.1562 19.375 22.1562 20C22.1562 20.625 21.9375 21.1562 21.5 21.5938C21.125 21.9688 20.625 22.1562 20 22.1562C19.375 22.1562 18.8438 21.9688 18.4062 21.5938C18.0312 21.1562 17.8438 20.625 17.8438 20C17.8438 19.375 18.0312 18.875 18.4062 18.5Z"
    fill="black" />
</svg>