<svg width="162" height="87" viewBox="0 0 162 87" fill="none" xmlns="http://www.w3.org/2000/svg">
  <g opacity="0.3">
    <path opacity="0.3"
      d="M36.3734 30.03V78.7645C36.3734 79.2502 36.2774 79.7312 36.0907 80.1797C35.9041 80.6282 35.6307 81.0354 35.2861 81.3776C34.9416 81.7198 34.5327 81.9905 34.0832 82.174C33.6336 82.3574 33.1522 82.4501 32.6667 82.4466H26.3134C27.551 82.4466 28.738 81.9546 29.6132 81.0789C30.4884 80.2033 30.98 79.0156 30.98 77.7773C30.98 76.5388 30.4884 75.3512 29.6132 74.4755C28.738 73.5998 27.551 73.1079 26.3134 73.1079H4.66668C3.429 73.1079 2.242 72.616 1.36683 71.7403C0.491666 70.8646 0 69.677 0 68.4386C0 67.2002 0.491666 66.0126 1.36683 65.1369C2.242 64.2612 3.429 63.7693 4.66668 63.7693H16.4933C17.7311 63.7693 18.9181 63.2773 19.7931 62.4016C20.6683 61.5259 21.1601 60.3383 21.1601 59.1C21.1601 57.8615 20.6683 56.6739 19.7931 55.7982C18.9181 54.9225 17.7311 54.4306 16.4933 54.4306H4.66668C3.429 54.4306 2.242 53.9387 1.36683 53.063C0.491666 52.1873 0 50.9997 0 49.7612C0 48.5229 0.491666 47.3353 1.36683 46.4596C2.242 45.5839 3.429 45.092 4.66668 45.092H19.9C21.1377 45.092 22.3247 44.6 23.1998 43.7243C24.075 42.8486 24.5667 41.661 24.5667 40.4226C24.5667 39.1842 24.075 37.9966 23.1998 37.1209C22.3247 36.2452 21.1377 35.7533 19.9 35.7533H11.0867C9.849 35.7533 8.66202 35.2614 7.78684 34.3857C6.91167 33.51 6.42001 32.3224 6.42001 31.0839C6.42001 29.8456 6.91167 28.658 7.78684 27.7823C8.66202 26.9066 9.849 26.4147 11.0867 26.4147H32.6667C33.6359 26.4075 34.5687 26.7831 35.2628 27.46C35.9568 28.1369 36.3559 29.0604 36.3734 30.03Z"
      fill="#BDDFE9" />
    <path opacity="0.3"
      d="M125.647 9.98504V58.7395C125.647 59.2236 125.742 59.7029 125.928 60.1502C126.113 60.5973 126.385 61.0035 126.727 61.3455C127.069 61.6875 127.475 61.9586 127.923 62.1432C128.37 62.3279 128.85 62.4225 129.333 62.4216H135.707C134.469 62.4216 133.282 61.9297 132.407 61.054C131.531 60.1784 131.04 58.9906 131.04 57.7523C131.04 56.5139 131.531 55.3262 132.407 54.4505C133.282 53.5748 134.469 53.0829 135.707 53.0829H157.333C158.572 53.0829 159.758 52.591 160.633 51.7153C161.509 50.8397 162 49.652 162 48.4136C162 47.1752 161.509 45.9876 160.633 45.1119C159.758 44.2362 158.572 43.7443 157.333 43.7443H145.527C144.289 43.7443 143.102 43.2524 142.227 42.3767C141.352 41.501 140.861 40.3133 140.861 39.075C140.861 37.8365 141.352 36.6489 142.227 35.7732C143.102 34.8975 144.289 34.4056 145.527 34.4056H157.333C158.572 34.4056 159.758 33.9137 160.633 33.038C161.509 32.1623 162 30.9747 162 29.7363C162 28.4979 161.509 27.3103 160.633 26.4346C159.758 25.5589 158.572 25.067 157.333 25.067H142.114C140.876 25.067 139.689 24.575 138.814 23.6993C137.938 22.8237 137.447 21.636 137.447 20.3976C137.447 19.1592 137.938 17.9716 138.814 17.0959C139.689 16.2202 140.876 15.7283 142.114 15.7283H150.933C152.172 15.7283 153.358 15.2364 154.233 14.3607C155.109 13.485 155.6 12.2974 155.6 11.0589C155.6 9.8206 155.109 8.63293 154.233 7.75727C153.358 6.8816 152.172 6.38966 150.933 6.38966H129.333C128.371 6.38765 127.446 6.76288 126.757 7.43494C126.068 8.10701 125.669 9.02243 125.647 9.98504Z"
      fill="#BDDFE9" />
  </g>
  <path
    d="M127.74 79.7647C127.741 80.674 127.563 81.5744 127.216 82.4149C126.869 83.2553 126.36 84.019 125.718 84.6626C125.076 85.3061 124.314 85.8169 123.475 86.1657C122.635 86.5145 121.736 86.6944 120.827 86.6953H29.94C29.2242 86.6953 28.5154 86.5541 27.8542 86.2798C27.193 86.0055 26.5922 85.6035 26.0863 85.0967C25.5805 84.5899 25.1794 83.9884 24.9061 83.3264C24.6328 82.6645 24.4925 81.9551 24.4934 81.2389V9.09772C24.4934 7.65236 25.0673 6.26618 26.0888 5.24415C27.1102 4.22212 28.4955 3.64795 29.94 3.64795H98.2868C96.4896 3.70378 94.7846 4.45739 93.533 5.74916C92.2815 7.04093 91.5816 8.76943 91.5816 10.5685C91.5816 12.3677 92.2815 14.0962 93.533 15.388C94.7846 16.6797 96.4896 17.4333 98.2868 17.4892H111.333C113.131 17.545 114.835 18.2986 116.088 19.5904C117.339 20.8821 118.038 22.6107 118.038 24.4098C118.038 26.2089 117.339 27.9374 116.088 29.2292C114.835 30.521 113.131 31.2746 111.333 31.3304H88.7935C87.8857 31.3304 86.9866 31.5093 86.1479 31.857C85.3091 32.2046 84.547 32.7141 83.905 33.3564C83.2631 33.9987 82.7539 34.7613 82.4064 35.6005C82.059 36.4398 81.8802 37.3393 81.8802 38.2477C81.8802 39.1561 82.059 40.0555 82.4064 40.8948C82.7539 41.734 83.2631 42.4966 83.905 43.1389C84.547 43.7813 85.3091 44.2908 86.1479 44.6384C86.9866 44.9861 87.8857 45.165 88.7935 45.165H106.287C108.084 45.2207 109.789 45.9743 111.041 47.2662C112.292 48.558 112.992 50.2864 112.992 52.0855C112.992 53.8847 112.292 55.6132 111.041 56.905C109.789 58.1967 108.084 58.9503 106.287 59.0062H88.7935C87.8672 58.9774 86.9444 59.1351 86.0801 59.4699C85.2158 59.8048 84.4276 60.31 83.7621 60.9554C83.0966 61.6009 82.5675 62.3736 82.2063 63.2275C81.8449 64.0815 81.6588 64.9994 81.6588 65.9268C81.6588 66.8541 81.8449 67.7721 82.2063 68.6261C82.5675 69.48 83.0966 70.2526 83.7621 70.8982C84.4276 71.5436 85.2158 72.0488 86.0801 72.3836C86.9444 72.7185 87.8672 72.8762 88.7935 72.8474H120.827C122.66 72.8474 124.419 73.5762 125.716 74.8734C127.012 76.1707 127.74 77.9301 127.74 79.7647Z"
    fill="#E0F0F5" />
  <path
    d="M52.8668 28.2223C52.8632 31.6965 52.0824 35.1258 50.5819 38.2588C49.0812 41.3918 46.8989 44.1491 44.1946 46.3283C41.4905 48.5076 38.3331 50.0537 34.9541 50.8531C31.5751 51.6526 28.06 51.6852 24.6667 50.9486L24.4668 50.9019V46.9796C19.7667 46.7438 15.2512 45.0749 11.5267 42.1969L11.3334 42.0569C11.02 41.8234 10.7067 41.5832 10.4067 41.3297L10.3201 41.2097C7.96663 37.7084 6.60939 33.6325 6.39371 29.4186C6.17803 25.2046 7.11203 21.0113 9.09569 17.2878C11.0793 13.5642 14.038 10.4508 17.6546 8.28076C21.2713 6.11074 25.4097 4.96596 29.6268 4.969H29.9134C30.8343 4.9816 31.7537 5.04842 32.6668 5.16911C37.0088 5.73958 41.1002 7.52975 44.4667 10.332C44.6401 10.4654 44.8067 10.6122 44.9667 10.759C47.4239 12.9169 49.3981 15.5695 50.7602 18.5434C50.8935 18.8302 51.0201 19.1238 51.1334 19.4173C52.2806 22.2107 52.8694 25.2021 52.8668 28.2223Z"
    fill="#BDDFE9" />
  <path
    d="M62.5602 68.5316L58.5268 61.541L55.1202 67.4444L52.9336 63.6555L46.0869 51.7954L39.2468 63.6555L32.4001 75.5157H46.0869H50.4602L50.4535 75.5223H58.5268H66.5935L62.5602 68.5316Z"
    fill="#A8FF8C" />
  <path
    d="M135.714 9.09813V81.2326C135.715 81.9494 135.575 82.6595 135.302 83.3223C135.03 83.985 134.628 84.5873 134.123 85.0948C133.616 85.6023 133.016 86.0048 132.354 86.2796C131.692 86.5543 130.983 86.6957 130.267 86.6957H120.827C122.624 86.6399 124.329 85.8863 125.58 84.5945C126.831 83.3028 127.532 81.5742 127.532 79.7751C127.532 77.976 126.831 76.2474 125.58 74.9557C124.329 73.6639 122.624 72.9103 120.827 72.8545H88.7932C87.8669 72.8832 86.9442 72.7256 86.0798 72.3907C85.2155 72.0558 84.4272 71.5507 83.7618 70.9052C83.0963 70.2598 82.5673 69.4871 82.206 68.6331C81.8446 67.7791 81.6584 66.8612 81.6584 65.9338C81.6584 65.0065 81.8446 64.0886 82.206 63.2346C82.5673 62.3806 83.0963 61.608 83.7618 60.9625C84.4272 60.317 85.2155 59.8118 86.0798 59.477C86.9442 59.1422 87.8669 58.9845 88.7932 59.0133H106.286C108.083 58.9574 109.789 58.2038 111.041 56.9121C112.292 55.6202 112.992 53.8918 112.992 52.0927C112.992 50.2935 112.292 48.565 111.041 47.2732C109.789 45.9815 108.083 45.2279 106.286 45.172H88.7932C87.8854 45.172 86.9863 44.9931 86.1476 44.6455C85.3088 44.2978 84.5467 43.7883 83.9047 43.146C83.2628 42.5037 82.7536 41.7411 82.4061 40.9019C82.0587 40.0627 81.8799 39.1631 81.8799 38.2548C81.8799 37.3463 82.0587 36.4469 82.4061 35.6077C82.7536 34.7683 83.2628 34.0059 83.9047 33.3635C84.5467 32.7212 85.3088 32.2116 86.1476 31.864C86.9863 31.5164 87.8854 31.3375 88.7932 31.3375H111.333C113.131 31.2816 114.835 30.528 116.087 29.2363C117.339 27.9445 118.038 26.216 118.038 24.4168C118.038 22.6177 117.339 20.8892 116.087 19.5975C114.835 18.3057 113.131 17.5521 111.333 17.4963H98.2866C96.4893 17.4404 94.7844 16.6868 93.5328 15.3951C92.2812 14.1032 91.5813 12.3748 91.5813 10.5757C91.5813 8.77651 92.2812 7.04801 93.5328 5.75624C94.7844 4.46447 96.4893 3.71086 98.2866 3.65503H130.286C131.726 3.66032 133.106 4.23591 134.123 5.25593C135.14 6.27594 135.712 7.65737 135.714 9.09813Z"
    fill="#BDDFE9" />
  <path
    d="M51.28 3.50146H64.1734C64.1734 3.89067 64.0189 4.26393 63.7439 4.53914C63.4688 4.81435 63.0958 4.96897 62.7067 4.96897H52.7467C52.3578 4.96897 51.9847 4.81435 51.7097 4.53914C51.4346 4.26393 51.28 3.89067 51.28 3.50146Z"
    fill="white" />
  <path
    d="M51.28 12.6533H64.1734C64.1734 13.0425 64.0189 13.4157 63.7439 13.6909C63.4688 13.9662 63.0958 14.1208 62.7067 14.1208H52.7467C52.3578 14.1208 51.9847 13.9662 51.7097 13.6909C51.4346 13.4157 51.28 13.0425 51.28 12.6533Z"
    fill="white" />
  <path opacity="0.7"
    d="M65.6067 12.6533H78.4933C78.4933 13.0425 78.3388 13.4157 78.0637 13.6909C77.7887 13.9662 77.4157 14.1208 77.0266 14.1208H67.0734C66.6843 14.1208 66.3113 13.9662 66.0363 13.6909C65.7611 13.4157 65.6067 13.0425 65.6067 12.6533Z"
    fill="white" />
  <path
    d="M36.3733 3.50146H49.26C49.26 3.89067 49.1055 4.26393 48.8305 4.53914C48.5553 4.81435 48.1823 4.96897 47.7933 4.96897H37.84C37.4509 4.96897 37.078 4.81435 36.8029 4.53914C36.5278 4.26393 36.3733 3.89067 36.3733 3.50146Z"
    fill="white" />
  <path
    d="M16.7134 24.4402L13.6667 22.846L10.24 23.1529L11.8267 20.1045L11.5201 16.6758L14.5734 18.2634L18.0001 17.9566L16.4068 21.0116L16.7134 24.4402Z"
    fill="#EEF0F1" />
  <path
    d="M14.5 30.6837C15.137 30.6837 15.6534 30.1671 15.6534 29.5298C15.6534 28.8924 15.137 28.3757 14.5 28.3757C13.8631 28.3757 13.3467 28.8924 13.3467 29.5298C13.3467 30.1671 13.8631 30.6837 14.5 30.6837Z"
    fill="#EEF0F1" />
  <path
    d="M75.6068 3.86827H70.0002C69.8233 3.86827 69.6538 3.798 69.5288 3.6729C69.4037 3.54781 69.3335 3.37814 69.3335 3.20123C69.3335 3.02432 69.4037 2.85465 69.5288 2.72955C69.6538 2.60447 69.8233 2.53418 70.0002 2.53418H75.5868C75.7636 2.53418 75.9332 2.60447 76.0582 2.72955C76.1832 2.85465 76.2535 3.02432 76.2535 3.20123C76.2535 3.37814 76.1832 3.54781 76.0582 3.6729C75.9332 3.798 75.7636 3.86827 75.5868 3.86827H75.6068Z"
    fill="#183154" />
  <path
    d="M70.9734 86.9023H30.0934C28.476 86.8952 26.9272 86.2479 25.7855 85.1017C24.6436 83.9555 24.0017 82.4037 24 80.7855V8.651C24.0018 7.02926 24.6465 5.47446 25.7925 4.32771C26.9386 3.18097 28.4925 2.53595 30.1133 2.53418H64.7134C64.8902 2.53418 65.0597 2.60447 65.1848 2.72955C65.3098 2.85465 65.38 3.02432 65.38 3.20123C65.38 3.37814 65.3098 3.54781 65.1848 3.6729C65.0597 3.798 64.8902 3.86827 64.7134 3.86827H30.0934C28.8297 3.87532 27.6199 4.38211 26.7283 5.27809C25.8365 6.17408 25.3351 7.38654 25.3334 8.651V80.7855C25.3351 82.0533 25.8393 83.2688 26.7353 84.1654C27.6314 85.062 28.8462 85.5664 30.1133 85.5681H70.9934C71.1702 85.5681 71.3398 85.6385 71.4648 85.7635C71.5899 85.8886 71.6601 86.0583 71.6601 86.2352C71.6601 86.4121 71.5899 86.5818 71.4648 86.7069C71.3398 86.832 71.1702 86.9023 70.9934 86.9023H70.9734Z"
    fill="#183154" />
  <path
    d="M82.0735 86.9022H74.7402C74.5634 86.9022 74.3938 86.8319 74.2688 86.7068C74.1437 86.5817 74.0735 86.4121 74.0735 86.2351C74.0735 86.0582 74.1437 85.8885 74.2688 85.7635C74.3938 85.6384 74.5634 85.5681 74.7402 85.5681H82.0735C82.2503 85.5681 82.4199 85.6384 82.5449 85.7635C82.67 85.8885 82.7402 86.0582 82.7402 86.2351C82.7402 86.4121 82.67 86.5817 82.5449 86.7068C82.4199 86.8319 82.2503 86.9022 82.0735 86.9022Z"
    fill="#183154" />
  <path
    d="M85.4335 86.9022H84.8869C84.71 86.9022 84.5405 86.8319 84.4155 86.7068C84.2905 86.5817 84.2202 86.4121 84.2202 86.2351C84.2202 86.0582 84.2905 85.8885 84.4155 85.7635C84.5405 85.6384 84.71 85.5681 84.8869 85.5681H85.4335C85.6104 85.5681 85.7799 85.6384 85.9049 85.7635C86.0299 85.8885 86.1002 86.0582 86.1002 86.2351C86.1002 86.4121 86.0299 86.5817 85.9049 86.7068C85.7799 86.8319 85.6104 86.9022 85.4335 86.9022Z"
    fill="#183154" />
  <path
    d="M130.42 86.9024H88.6C88.4233 86.9024 88.2537 86.8322 88.1286 86.7071C88.0036 86.5819 87.9333 86.4123 87.9333 86.2353C87.9333 86.0585 88.0036 85.8888 88.1286 85.7637C88.2537 85.6386 88.4233 85.5684 88.6 85.5684H130.42C131.688 85.5684 132.904 85.0644 133.801 84.1675C134.696 83.2706 135.2 82.054 135.2 80.7856V42.5171C135.2 42.3402 135.27 42.1705 135.395 42.0455C135.521 41.9203 135.69 41.8501 135.866 41.8501C136.043 41.8501 136.213 41.9203 136.338 42.0455C136.463 42.1705 136.534 42.3402 136.534 42.5171V80.7856C136.532 82.4073 135.887 83.9621 134.741 85.1089C133.594 86.2557 132.041 86.9006 130.42 86.9024Z"
    fill="#183154" />
  <path
    d="M135.867 39.5956C135.69 39.5956 135.521 39.5253 135.396 39.4002C135.27 39.2751 135.2 39.1055 135.2 38.9285V37.8746C135.2 37.6976 135.27 37.528 135.396 37.4029C135.521 37.2778 135.69 37.2075 135.867 37.2075C136.043 37.2075 136.213 37.2778 136.339 37.4029C136.463 37.528 136.534 37.6976 136.534 37.8746V38.9285C136.534 39.1055 136.463 39.2751 136.339 39.4002C136.213 39.5253 136.043 39.5956 135.867 39.5956Z"
    fill="#183154" />
  <path
    d="M135.867 35.0393C135.69 35.0393 135.521 34.969 135.396 34.8439C135.27 34.7188 135.2 34.5491 135.2 34.3722V28.7557C135.2 28.5788 135.27 28.4091 135.396 28.284C135.521 28.159 135.69 28.0886 135.867 28.0886C136.043 28.0886 136.213 28.159 136.339 28.284C136.463 28.4091 136.534 28.5788 136.534 28.7557V34.3722C136.534 34.5491 136.463 34.7188 136.339 34.8439C136.213 34.969 136.043 35.0393 135.867 35.0393Z"
    fill="#183154" />
  <path
    d="M135.867 24.2199C135.69 24.2199 135.521 24.1496 135.396 24.0245C135.27 23.8994 135.2 23.7298 135.2 23.5528V8.651C135.2 7.38255 134.696 6.16604 133.801 5.26911C132.904 4.37217 131.688 3.86827 130.42 3.86827H83.1335C82.9567 3.86827 82.7871 3.798 82.6621 3.6729C82.537 3.54781 82.4668 3.37814 82.4668 3.20123C82.4668 3.02432 82.537 2.85465 82.6621 2.72955C82.7871 2.60447 82.9567 2.53418 83.1335 2.53418H130.42C132.041 2.53595 133.595 3.18097 134.741 4.32771C135.887 5.47446 136.532 7.02926 136.534 8.651V23.5528C136.534 23.7298 136.463 23.8994 136.339 24.0245C136.213 24.1496 136.043 24.2199 135.867 24.2199Z"
    fill="#183154" />
  <path
    d="M79.3334 3.86827H78.5268C78.35 3.86827 78.1804 3.798 78.0554 3.6729C77.9304 3.54781 77.8601 3.37814 77.8601 3.20123C77.8601 3.02432 77.9304 2.85465 78.0554 2.72955C78.1804 2.60447 78.35 2.53418 78.5268 2.53418H79.3334C79.5102 2.53418 79.6798 2.60447 79.8049 2.72955C79.9299 2.85465 80.0001 3.02432 80.0001 3.20123C80.0001 3.37814 79.9299 3.54781 79.8049 3.6729C79.6798 3.798 79.5102 3.86827 79.3334 3.86827Z"
    fill="#183154" />
  <path
    d="M47.9935 9.4113C48.774 9.4113 49.4068 8.77816 49.4068 7.99715C49.4068 7.21614 48.774 6.58301 47.9935 6.58301C47.2129 6.58301 46.5801 7.21614 46.5801 7.99715C46.5801 8.77816 47.2129 9.4113 47.9935 9.4113Z"
    fill="#8BBBC6" />
  <path
    d="M52.06 9.4113C52.8406 9.4113 53.4733 8.77816 53.4733 7.99715C53.4733 7.21614 52.8406 6.58301 52.06 6.58301C51.2794 6.58301 50.6467 7.21614 50.6467 7.99715C50.6467 8.77816 51.2794 9.4113 52.06 9.4113Z"
    fill="#8BBBC6" />
  <path
    d="M56.3135 9.4113C57.094 9.4113 57.7268 8.77816 57.7268 7.99715C57.7268 7.21614 57.094 6.58301 56.3135 6.58301C55.5329 6.58301 54.9001 7.21614 54.9001 7.99715C54.9001 8.77816 55.5329 9.4113 56.3135 9.4113Z"
    fill="#8BBBC6" />
  <path
    d="M48.0868 9.73849C47.7415 9.73849 47.4041 9.63615 47.1171 9.44442C46.83 9.25267 46.6061 8.98012 46.4737 8.66116C46.3413 8.3422 46.3063 7.99115 46.3732 7.65232C46.44 7.31349 46.6058 7.00208 46.8494 6.7574C47.0929 6.51272 47.4035 6.34575 47.7419 6.27756C48.0803 6.20938 48.4313 6.24304 48.7505 6.37429C49.0698 6.50554 49.3431 6.72851 49.5358 7.01503C49.7285 7.30155 49.8321 7.63879 49.8334 7.98415C49.8344 8.21422 49.7898 8.44219 49.7023 8.655C49.615 8.86781 49.4865 9.06126 49.3242 9.22426C49.1619 9.38725 48.9691 9.51657 48.7567 9.60482C48.5444 9.69307 48.3167 9.73849 48.0868 9.73849ZM48.0868 6.91688C47.8726 6.9169 47.6633 6.98063 47.4854 7.09996C47.3075 7.2193 47.1691 7.38887 47.0878 7.58711C47.0064 7.78534 46.9858 8.0033 47.0286 8.21327C47.0713 8.42324 47.1755 8.61576 47.3279 8.76634C47.4803 8.91693 47.674 9.01878 47.8843 9.05895C48.0947 9.09913 48.3123 9.07581 48.5094 8.99197C48.7065 8.90814 48.8743 8.76756 48.9913 8.5881C49.1083 8.40865 49.1694 8.19843 49.1668 7.98415C49.1615 7.70042 49.0457 7.42998 48.8438 7.23056C48.6421 7.03114 48.3704 6.91858 48.0868 6.91688Z"
    fill="#183154" />
  <path
    d="M52.1534 9.73849C51.8082 9.73849 51.4707 9.63615 51.1837 9.44442C50.8965 9.25267 50.6727 8.98012 50.5404 8.66116C50.4079 8.3422 50.373 7.99115 50.4398 7.65232C50.5067 7.31349 50.6724 7.00208 50.9159 6.7574C51.1595 6.51272 51.4701 6.34575 51.8085 6.27756C52.1469 6.20938 52.4979 6.24304 52.8172 6.37429C53.1364 6.50554 53.4097 6.72851 53.6025 7.01503C53.7952 7.30155 53.8987 7.63879 53.9 7.98415C53.9009 8.21422 53.8564 8.44219 53.769 8.655C53.6816 8.86781 53.5531 9.06126 53.3908 9.22426C53.2285 9.38725 53.0356 9.51657 52.8233 9.60482C52.6109 9.69307 52.3833 9.73849 52.1534 9.73849ZM52.1534 6.91688C51.9392 6.9169 51.7299 6.98063 51.552 7.09996C51.3741 7.2193 51.2357 7.38887 51.1544 7.58711C51.073 7.78534 51.0524 8.0033 51.0952 8.21327C51.138 8.42324 51.2422 8.61576 51.3945 8.76634C51.5469 8.91693 51.7406 9.01878 51.9509 9.05895C52.1614 9.09913 52.3789 9.07581 52.576 8.99197C52.7731 8.90814 52.9408 8.76756 53.0579 8.5881C53.1749 8.40865 53.236 8.19843 53.2333 7.98415C53.2282 7.70042 53.1123 7.42998 52.9105 7.23056C52.7087 7.03114 52.437 6.91858 52.1534 6.91688Z"
    fill="#183154" />
  <path
    d="M56.4065 9.73849C56.0614 9.73849 55.7239 9.63615 55.4369 9.44442C55.1498 9.25267 54.9259 8.98012 54.7935 8.66116C54.6611 8.3422 54.6261 7.99115 54.693 7.65232C54.7599 7.31349 54.9255 7.00207 55.1691 6.7574C55.4127 6.51272 55.7233 6.34575 56.0617 6.27756C56.4001 6.20938 56.7511 6.24304 57.0704 6.37429C57.3897 6.50554 57.6629 6.72851 57.8556 7.01503C58.0484 7.30155 58.1519 7.63878 58.1532 7.98415C58.155 8.21447 58.111 8.44284 58.024 8.65606C57.9369 8.86926 57.8084 9.06306 57.646 9.22623C57.4835 9.3894 57.2903 9.51869 57.0776 9.60663C56.8648 9.69456 56.6367 9.73938 56.4065 9.73849ZM56.4065 6.91688C56.1924 6.9169 55.9831 6.98063 55.8052 7.09996C55.6273 7.2193 55.4889 7.38887 55.4075 7.58711C55.3262 7.78534 55.3057 8.00329 55.3484 8.21327C55.3912 8.42324 55.4954 8.61576 55.6477 8.76634C55.8001 8.91693 55.9938 9.01878 56.2041 9.05895C56.4145 9.09913 56.632 9.07581 56.8291 8.99197C57.0262 8.90814 57.194 8.76756 57.3111 8.5881C57.4281 8.40865 57.4892 8.19843 57.4865 7.98415C57.4831 7.69987 57.3678 7.42843 57.1655 7.22865C56.9634 7.02888 56.6907 6.91686 56.4065 6.91688Z"
    fill="#183154" />
  <path
    d="M120.667 27.5885H80.26C79.9065 27.5885 79.5673 27.448 79.3172 27.1978C79.0672 26.9476 78.9268 26.6083 78.9268 26.2545C78.9268 25.9006 79.0672 25.5613 79.3172 25.3112C79.5673 25.0609 79.9065 24.9204 80.26 24.9204H120.667C121.021 24.9204 121.359 25.0609 121.609 25.3112C121.86 25.5613 122 25.9006 122 26.2545C122 26.6083 121.86 26.9476 121.609 27.1978C121.359 27.448 121.021 27.5885 120.667 27.5885Z"
    fill="#8BBBC6" />
  <path
    d="M94.0001 33.9253H80.26C79.9065 33.9253 79.5673 33.7847 79.3172 33.5346C79.0672 33.2843 78.9268 32.945 78.9268 32.5911C78.9268 32.2374 79.0672 31.898 79.3172 31.6478C79.5673 31.3977 79.9065 31.2571 80.26 31.2571H94.0001C94.3537 31.2571 94.6928 31.3977 94.9429 31.6478C95.193 31.898 95.3335 32.2374 95.3335 32.5911C95.3335 32.945 95.193 33.2843 94.9429 33.5346C94.6928 33.7847 94.3537 33.9253 94.0001 33.9253Z"
    fill="#8BBBC6" />
  <path
    d="M94.0001 48.3471H80.26C79.9065 48.3471 79.5673 48.2065 79.3172 47.9563C79.0672 47.7062 78.9268 47.3668 78.9268 47.013C78.9268 46.6592 79.0672 46.3199 79.3172 46.0697C79.5673 45.8194 79.9065 45.679 80.26 45.679H94.0001C94.3537 45.679 94.6928 45.8194 94.9429 46.0697C95.193 46.3199 95.3335 46.6592 95.3335 47.013C95.3335 47.3668 95.193 47.7062 94.9429 47.9563C94.6928 48.2065 94.3537 48.3471 94.0001 48.3471Z"
    fill="#389D9C" />
  <path
    d="M112.36 40.2625H104.614C104.26 40.2625 103.92 40.1219 103.671 39.8717C103.42 39.6216 103.28 39.2822 103.28 38.9284C103.28 38.5745 103.42 38.2352 103.671 37.985C103.92 37.7348 104.26 37.5942 104.614 37.5942H112.36C112.714 37.5942 113.053 37.7348 113.303 37.985C113.553 38.2352 113.693 38.5745 113.693 38.9284C113.693 39.2822 113.553 39.6216 113.303 39.8717C113.053 40.1219 112.714 40.2625 112.36 40.2625Z"
    fill="#8BBBC6" />
  <path opacity="0.8"
    d="M124.54 40.2625H116.793C116.44 40.2625 116.101 40.1219 115.851 39.8717C115.6 39.6216 115.46 39.2822 115.46 38.9284C115.46 38.5745 115.6 38.2352 115.851 37.985C116.101 37.7348 116.44 37.5942 116.793 37.5942H124.54C124.894 37.5942 125.233 37.7348 125.483 37.985C125.733 38.2352 125.874 38.5745 125.874 38.9284C125.874 39.2822 125.733 39.6216 125.483 39.8717C125.233 40.1219 124.894 40.2625 124.54 40.2625Z"
    fill="#8BBBC6" />
  <path
    d="M88.0001 40.2625H80.26C79.9065 40.2625 79.5673 40.1219 79.3172 39.8717C79.0672 39.6216 78.9268 39.2822 78.9268 38.9284C78.9268 38.5745 79.0672 38.2352 79.3172 37.985C79.5673 37.7348 79.9065 37.5942 80.26 37.5942H88.0001C88.3536 37.5942 88.6928 37.7348 88.9429 37.985C89.193 38.2352 89.3334 38.5745 89.3334 38.9284C89.3334 39.2822 89.193 39.6216 88.9429 39.8717C88.6928 40.1219 88.3536 40.2625 88.0001 40.2625Z"
    fill="#8BBBC6" />
  <path opacity="0.3"
    d="M100.18 40.2625H92.4402C92.0866 40.2625 91.7474 40.1219 91.4974 39.8717C91.2473 39.6216 91.1069 39.2822 91.1069 38.9284C91.1069 38.5745 91.2473 38.2352 91.4974 37.985C91.7474 37.7348 92.0866 37.5942 92.4402 37.5942H100.18C100.534 37.5942 100.873 37.7348 101.123 37.985C101.373 38.2352 101.514 38.5745 101.514 38.9284C101.514 39.2822 101.373 39.6216 101.123 39.8717C100.873 40.1219 100.534 40.2625 100.18 40.2625Z"
    fill="#8BBBC6" />
  <path
    d="M120.667 55.4109H80.26C79.9065 55.4109 79.5673 55.2703 79.3172 55.0202C79.0672 54.7699 78.9268 54.4306 78.9268 54.0768C78.9268 53.723 79.0672 53.3837 79.3172 53.1334C79.5673 52.8833 79.9065 52.7427 80.26 52.7427H120.667C121.021 52.7427 121.359 52.8833 121.609 53.1334C121.86 53.3837 122 53.723 122 54.0768C122 54.4306 121.86 54.7699 121.609 55.0202C121.359 55.2703 121.021 55.4109 120.667 55.4109Z"
    fill="#8BBBC6" />
  <path
    d="M94.0001 61.7481H80.26C79.9065 61.7481 79.5673 61.6075 79.3172 61.3573C79.0672 61.1072 78.9268 60.7678 78.9268 60.414C78.9268 60.0601 79.0672 59.7208 79.3172 59.4706C79.5673 59.2204 79.9065 59.0798 80.26 59.0798H94.0001C94.3537 59.0798 94.6928 59.2204 94.9429 59.4706C95.193 59.7208 95.3335 60.0601 95.3335 60.414C95.3335 60.7678 95.193 61.1072 94.9429 61.3573C94.6928 61.6075 94.3537 61.7481 94.0001 61.7481Z"
    fill="#8BBBC6" />
  <path
    d="M94.0001 76.1694H80.26C79.9065 76.1694 79.5673 76.0289 79.3172 75.7787C79.0672 75.5284 78.9268 75.1891 78.9268 74.8353C78.9268 74.4815 79.0672 74.1421 79.3172 73.892C79.5673 73.6418 79.9065 73.5012 80.26 73.5012H94.0001C94.3537 73.5012 94.6928 73.6418 94.9429 73.892C95.193 74.1421 95.3335 74.4815 95.3335 74.8353C95.3335 75.1891 95.193 75.5284 94.9429 75.7787C94.6928 76.0289 94.3537 76.1694 94.0001 76.1694Z"
    fill="#389D9C" />
  <path
    d="M112.36 68.0849H104.614C104.26 68.0849 103.92 67.9444 103.671 67.6941C103.42 67.444 103.28 67.1047 103.28 66.7508C103.28 66.397 103.42 66.0576 103.671 65.8075C103.92 65.5572 104.26 65.4167 104.614 65.4167H112.36C112.714 65.4167 113.053 65.5572 113.303 65.8075C113.553 66.0576 113.693 66.397 113.693 66.7508C113.693 67.1047 113.553 67.444 113.303 67.6941C113.053 67.9444 112.714 68.0849 112.36 68.0849Z"
    fill="#8BBBC6" />
  <path opacity="0.8"
    d="M124.54 68.0849H116.793C116.44 68.0849 116.101 67.9444 115.851 67.6941C115.6 67.444 115.46 67.1047 115.46 66.7508C115.46 66.397 115.6 66.0576 115.851 65.8075C116.101 65.5572 116.44 65.4167 116.793 65.4167H124.54C124.894 65.4167 125.233 65.5572 125.483 65.8075C125.733 66.0576 125.874 66.397 125.874 66.7508C125.874 67.1047 125.733 67.444 125.483 67.6941C125.233 67.9444 124.894 68.0849 124.54 68.0849Z"
    fill="#8BBBC6" />
  <path
    d="M88.0001 68.0849H80.26C79.9065 68.0849 79.5673 67.9444 79.3172 67.6941C79.0672 67.444 78.9268 67.1047 78.9268 66.7508C78.9268 66.397 79.0672 66.0576 79.3172 65.8075C79.5673 65.5572 79.9065 65.4167 80.26 65.4167H88.0001C88.3536 65.4167 88.6928 65.5572 88.9429 65.8075C89.193 66.0576 89.3334 66.397 89.3334 66.7508C89.3334 67.1047 89.193 67.444 88.9429 67.6941C88.6928 67.9444 88.3536 68.0849 88.0001 68.0849Z"
    fill="#8BBBC6" />
  <path opacity="0.3"
    d="M100.18 68.0849H92.4402C92.0866 68.0849 91.7474 67.9444 91.4974 67.6941C91.2473 67.444 91.1069 67.1047 91.1069 66.7508C91.1069 66.397 91.2473 66.0576 91.4974 65.8075C91.7474 65.5572 92.0866 65.4167 92.4402 65.4167H100.18C100.534 65.4167 100.873 65.5572 101.123 65.8075C101.373 66.0576 101.514 66.397 101.514 66.7508C101.514 67.1047 101.373 67.444 101.123 67.6941C100.873 67.9444 100.534 68.0849 100.18 68.0849Z"
    fill="#8BBBC6" />
  <path
    d="M49.46 23.7661C49.46 26.8194 48.8588 29.8429 47.6908 32.6637C46.5228 35.4846 44.8108 38.0475 42.6527 40.2062C40.4946 42.3649 37.9326 44.0772 35.113 45.245C32.2934 46.4129 29.2715 47.0135 26.2199 47.0127C25.8799 47.0127 25.5532 47.0127 25.1999 47.0127H25C20.2999 46.7769 15.7844 45.108 12.0599 42.2299L11.8732 42.0898C11.5266 41.8164 11.2066 41.5296 10.8599 41.2427C6.48667 37.4126 3.70643 32.082 3.06745 26.302C2.42848 20.522 3.97716 14.7123 7.40809 10.0185C10.839 5.32465 15.9032 2.08743 21.6018 0.945221C27.3005 -0.196995 33.2201 0.838696 38.1932 3.84806C38.7933 4.20826 39.3733 4.59515 39.9333 5.00205L40.0199 5.06208C42.1627 6.64638 44.0203 8.58403 45.5133 10.792C47.1114 13.1553 48.2575 15.7948 48.8933 18.5765C48.96 18.8633 49.02 19.1568 49.0733 19.4502C49.3361 20.8738 49.4655 22.3186 49.46 23.7661Z"
    fill="#A8FF8C" />
  <path
    d="M49.6935 24.0998C49.69 30.2647 47.24 36.1758 42.882 40.5337C38.524 44.8917 32.6149 47.3398 26.4536 47.3397C26.2602 47.3397 26.0602 47.3397 25.8668 47.3397C25.8002 47.3397 25.7335 47.3397 25.6668 47.3397C21.0003 47.1921 16.4883 45.6315 12.7268 42.8639L12.5401 42.7238C12.2268 42.4903 11.9135 42.2502 11.6135 41.9967C9.70666 40.4097 8.06396 38.5297 6.74683 36.4268C6.86682 36.5069 6.9935 36.5803 7.12016 36.6536C7.83384 37.0909 8.57292 37.4851 9.33349 37.8343C12.3749 39.2376 15.6843 39.9636 19.0335 39.9622C21.2701 39.9639 23.4953 39.6427 25.6402 39.0083L25.8401 38.9483C30.0491 37.6623 33.8069 35.2077 36.677 31.8695C39.547 28.5315 41.4114 24.447 42.0536 20.0909C42.1002 19.7974 42.1335 19.5105 42.1669 19.217C42.2552 18.384 42.2997 17.5468 42.3002 16.709C42.3008 15.2541 42.1647 13.8024 41.8935 12.3731C41.5969 10.7902 41.1344 9.24303 40.5135 7.75717C40.2137 7.03261 39.8754 6.32453 39.5002 5.63596C39.2869 5.2424 39.0669 4.85551 38.8335 4.48197L38.7669 4.37524C39.3908 4.76336 39.9939 5.18419 40.5736 5.63596L40.6535 5.696C42.5883 7.20074 44.2735 9.00172 45.6468 11.0324C47.3473 13.5144 48.5433 16.3067 49.1669 19.2504C49.2335 19.5372 49.2936 19.8307 49.3403 20.1242C49.5712 21.4369 49.6894 22.767 49.6935 24.0998Z"
    fill="#389D9C" />
  <path
    d="M26.2267 31.9244C25.7159 31.9251 25.2218 31.7429 24.8334 31.4108L19.4067 26.7415C19.1781 26.5812 18.9855 26.3748 18.8414 26.1354C18.6973 25.8962 18.6049 25.6294 18.57 25.3522C18.5353 25.075 18.5588 24.7936 18.6393 24.5261C18.7197 24.2586 18.8553 24.0109 19.0371 23.7989C19.219 23.587 19.4432 23.4155 19.6954 23.2955C19.9475 23.1755 20.222 23.1096 20.501 23.1022C20.7802 23.0948 21.0577 23.1458 21.3159 23.2522C21.5741 23.3586 21.8071 23.5178 22 23.7198L25.8468 27.0216L31.3334 18.9637C31.4809 18.7448 31.6701 18.557 31.8902 18.4111C32.1102 18.2653 32.3568 18.1642 32.6159 18.1138C32.875 18.0632 33.1414 18.0643 33.4001 18.1169C33.6587 18.1695 33.9045 18.2725 34.1235 18.4201C34.3423 18.5677 34.53 18.757 34.6757 18.9771C34.8215 19.1973 34.9224 19.4441 34.9729 19.7032C35.0234 19.9625 35.0223 20.2291 34.9697 20.488C34.9173 20.7467 34.8143 20.9926 34.6667 21.2117L28 30.9906C27.8293 31.2399 27.6082 31.4508 27.351 31.6094C27.0937 31.7678 26.8062 31.8707 26.5068 31.9111C26.4138 31.9221 26.3203 31.9265 26.2267 31.9244Z"
    fill="white" />
  <g opacity="0.15">
    <path opacity="0.15"
      d="M17.3001 14.9076C19.6417 14.9076 21.5401 13.0083 21.5401 10.6653C21.5401 8.32225 19.6417 6.42285 17.3001 6.42285C14.9583 6.42285 13.0601 8.32225 13.0601 10.6653C13.0601 13.0083 14.9583 14.9076 17.3001 14.9076Z"
      fill="white" />
    <path opacity="0.15"
      d="M12.4132 19.0501C13.5841 19.0501 14.5332 18.1004 14.5332 16.9288C14.5332 15.7573 13.5841 14.8076 12.4132 14.8076C11.2424 14.8076 10.2932 15.7573 10.2932 16.9288C10.2932 18.1004 11.2424 19.0501 12.4132 19.0501Z"
      fill="white" />
  </g>
  <path
    d="M3.21324 27.8689C3.05146 27.8705 2.89464 27.8132 2.77198 27.7076C2.64932 27.6021 2.56921 27.4555 2.54657 27.2952C2.39211 26.1701 2.31415 25.0358 2.31323 23.9C2.31323 23.7231 2.38347 23.5534 2.5085 23.4283C2.63352 23.3033 2.80308 23.2329 2.9799 23.2329C3.15671 23.2329 3.32628 23.3033 3.45131 23.4283C3.57633 23.5534 3.64657 23.7231 3.64657 23.9C3.64638 24.9733 3.71989 26.0453 3.86656 27.1085C3.89202 27.2787 3.85075 27.4522 3.75135 27.5927C3.65197 27.7331 3.50215 27.8297 3.33323 27.8623L3.21324 27.8689Z"
    fill="#183154" />
  <path
    d="M4.46012 32.7512C4.32505 32.7503 4.19344 32.7083 4.08271 32.6309C3.972 32.5535 3.8874 32.4442 3.84013 32.3176C3.54029 31.5178 3.28216 30.7028 3.06679 29.8761C3.04474 29.7912 3.03969 29.7027 3.0519 29.6158C3.06411 29.5289 3.09335 29.4452 3.13794 29.3696C3.18254 29.294 3.2416 29.228 3.31176 29.1752C3.38192 29.1225 3.46179 29.0841 3.54679 29.0624C3.63171 29.0404 3.72015 29.0353 3.80704 29.0474C3.89393 29.0597 3.97755 29.089 4.05311 29.1336C4.12867 29.1782 4.19468 29.2373 4.24737 29.3075C4.30005 29.3778 4.33837 29.4576 4.36013 29.5427C4.56293 30.3239 4.80548 31.0942 5.08679 31.8506C5.14752 32.0153 5.14099 32.1972 5.06862 32.357C4.99624 32.5168 4.86385 32.6416 4.70013 32.7045C4.62407 32.736 4.54244 32.7519 4.46012 32.7512Z"
    fill="#183154" />
  <path
    d="M10.5867 22.4455C10.8519 22.4455 11.1063 22.3401 11.2938 22.1524C11.4813 21.9648 11.5867 21.7103 11.5867 21.4449C11.5867 21.1795 11.4813 20.925 11.2938 20.7373C11.1063 20.5498 10.8519 20.4443 10.5867 20.4443C10.3215 20.4443 10.0671 20.5498 9.87957 20.7373C9.69203 20.925 9.58667 21.1795 9.58667 21.4449C9.58667 21.7103 9.69203 21.9648 9.87957 22.1524C10.0671 22.3401 10.3215 22.4455 10.5867 22.4455Z"
    fill="#FDFEFF" />
  <path
    d="M12.5132 29.6366C11.9266 28.2022 11.5797 26.681 11.4865 25.134C11.4199 24.1735 9.91986 24.1668 9.98653 25.134C10.1044 26.9444 10.5212 28.7228 11.2199 30.397C11.5932 31.2842 12.8866 30.5171 12.5132 29.6366Z"
    fill="#FDFEFF" />
  <path
    d="M135.866 12.7066H46.7067C46.5298 12.7066 46.3603 12.6364 46.2353 12.5112C46.1103 12.3861 46.04 12.2165 46.04 12.0395C46.04 11.8627 46.1103 11.693 46.2353 11.5679C46.3603 11.4428 46.5298 11.3726 46.7067 11.3726H135.866C136.043 11.3726 136.213 11.4428 136.338 11.5679C136.463 11.693 136.534 11.8627 136.534 12.0395C136.534 12.2165 136.463 12.3861 136.338 12.5112C136.213 12.6364 136.043 12.7066 135.866 12.7066Z"
    fill="#183154" />
  <path
    d="M67.7068 76.5095H49.2735H31.2068L46.0468 50.7815L55.0735 66.4304L58.4868 60.5204L67.7068 76.5095ZM51.5535 75.1754H65.4001L58.4868 63.1685L55.0735 69.0786L46.0468 53.4496L33.5135 75.162H51.5602L51.5535 75.1754Z"
    fill="#183154" />
  <path
    d="M26.2201 47.8133C25.8668 47.8133 25.5068 47.8133 25.1601 47.8133H24.9335C20.1077 47.57 15.4726 45.8519 11.6534 42.8904L11.4867 42.7703C11.1001 42.4703 10.7601 42.1767 10.4201 41.8832C8.65216 40.3247 7.1245 38.5129 5.88676 36.5068C5.46493 35.8208 5.07994 35.1126 4.73342 34.3856C4.68705 34.3065 4.65749 34.2187 4.64659 34.1276C4.63568 34.0365 4.64367 33.9441 4.67003 33.8563C4.6964 33.7685 4.74059 33.687 4.79985 33.6171C4.85909 33.5471 4.93213 33.4901 5.01439 33.4496C5.09666 33.4092 5.18638 33.3861 5.27794 33.3819C5.36951 33.3776 5.46096 33.3924 5.54659 33.4251C5.63221 33.4579 5.71016 33.508 5.77558 33.5722C5.84099 33.6365 5.89245 33.7136 5.92675 33.7986C6.26009 34.4657 6.59342 35.1327 7.02009 35.7664C8.1969 37.6641 9.65076 39.3752 11.3334 40.8426C11.6534 41.1161 12.0001 41.3963 12.3134 41.6698L12.5001 41.8032C16.1131 44.609 20.4992 46.2386 25.0668 46.4725H25.2335C25.5935 46.4725 25.9001 46.4725 26.2535 46.4725C32.2306 46.4584 37.9586 44.075 42.1831 39.8443C46.4078 35.6135 48.7847 29.8802 48.7935 23.8996C48.7941 22.4849 48.6602 21.0733 48.3935 19.6839C48.3401 19.3971 48.2868 19.1102 48.2201 18.8367C47.6112 16.1517 46.5104 13.6029 44.9735 11.3191L44.9334 11.2591C43.4956 9.12658 41.7057 7.25438 39.6401 5.7226L39.5402 5.65591C38.9534 5.2112 38.3801 4.83099 37.8201 4.51526C34.6644 2.62415 31.0946 1.53333 27.4213 1.33772C23.7481 1.14211 20.0827 1.84765 16.7442 3.39293C13.4057 4.93821 10.4951 7.2764 8.26588 10.2041C6.03663 13.1317 4.55619 16.5601 3.95342 20.1908C3.89834 20.3325 3.79658 20.4511 3.66498 20.527C3.53337 20.6028 3.37981 20.6315 3.22972 20.6081C3.07962 20.5848 2.94199 20.5109 2.83961 20.3986C2.73724 20.2863 2.67625 20.1424 2.66675 19.9907C3.30785 16.1499 4.87591 12.5236 7.23487 9.42644C9.59383 6.32927 12.6724 3.85478 16.2036 2.21766C19.7348 0.580549 23.6118 -0.169751 27.4984 0.0318586C31.385 0.233469 35.1638 1.3809 38.5068 3.3746C39.1001 3.73481 39.7068 4.13504 40.2935 4.56194L40.3868 4.62865C42.5742 6.24014 44.4722 8.21147 46.0002 10.4587L46.0468 10.5253C47.6957 12.953 48.876 15.6679 49.5268 18.5299C49.5935 18.8234 49.6601 19.1236 49.7135 19.4304C49.9905 20.9019 50.1311 22.3957 50.1334 23.8929C50.1265 30.236 47.6045 36.3171 43.1212 40.8017C38.6379 45.2863 32.5595 47.8079 26.2201 47.8133Z"
    fill="#183154" />
  <g opacity="0.4">
    <path opacity="0.4"
      d="M23.2732 16.2817C25.6149 16.2817 27.5132 14.3823 27.5132 12.0392C27.5132 9.69626 25.6149 7.79688 23.2732 7.79688C20.9316 7.79688 19.0332 9.69626 19.0332 12.0392C19.0332 14.3823 20.9316 16.2817 23.2732 16.2817Z"
      fill="white" />
    <path opacity="0.4"
      d="M18.3866 20.424C19.5575 20.424 20.5066 19.4743 20.5066 18.3029C20.5066 17.1313 19.5575 16.1816 18.3866 16.1816C17.2158 16.1816 16.2666 17.1313 16.2666 18.3029C16.2666 19.4743 17.2158 20.424 18.3866 20.424Z"
      fill="white" />
  </g>
  <path
    d="M54.0933 54.0767C56.4129 54.0767 58.2933 52.1952 58.2933 49.8743C58.2933 47.5534 56.4129 45.6719 54.0933 45.6719C51.7737 45.6719 49.8933 47.5534 49.8933 49.8743C49.8933 52.1952 51.7737 54.0767 54.0933 54.0767Z"
    fill="#A8FF8C" />
  <path
    d="M54.3267 54.744C53.3641 54.744 52.4232 54.4585 51.6229 53.9234C50.8226 53.3883 50.1987 52.6278 49.8304 51.7381C49.462 50.8482 49.3657 49.8692 49.5535 48.9246C49.7413 47.9801 50.2048 47.1124 50.8853 46.4313C51.566 45.7504 52.4332 45.2866 53.3772 45.0987C54.3212 44.9108 55.2998 45.0072 56.189 45.3758C57.0783 45.7444 57.8384 46.3685 58.3731 47.1693C58.9079 47.9701 59.1933 48.9115 59.1933 49.8746C59.1915 51.1655 58.6783 52.403 57.766 53.3158C56.8537 54.2287 55.6169 54.7423 54.3267 54.744ZM54.3267 46.3459C53.6276 46.3459 52.9441 46.5534 52.3629 46.9422C51.7818 47.331 51.3288 47.8836 51.0616 48.5299C50.7944 49.1763 50.7248 49.8874 50.8617 50.5734C50.9985 51.2594 51.3357 51.8894 51.8306 52.3835C52.3254 52.8777 52.9556 53.2139 53.6414 53.3495C54.3273 53.4851 55.0379 53.4142 55.6834 53.1456C56.3289 52.877 56.8803 52.4229 57.2678 51.8406C57.6552 51.2583 57.8613 50.5741 57.86 49.8746C57.8582 48.9382 57.4852 48.0406 56.8228 47.379C56.1603 46.7175 55.2626 46.3459 54.3267 46.3459Z"
    fill="#183154" />
</svg>