<svg width="650" height="631" viewBox="0 0 650 631" fill="none" xmlns="http://www.w3.org/2000/svg">
  <rect width="387" height="318" fill="#83D0C7" />
  <g filter="url(#filter0_d_0_1)">
    <rect x="240" y="303" width="410" height="328" fill="#83D0C7" />
  </g>
  <path
    d="M334.597 483.15C332.125 478.56 330.409 473.645 329.507 468.571C325.366 447.069 334.801 417.529 350.31 401.068L357.369 395.23C358.627 394.206 359.953 393.258 361.339 392.391C380.35 380.836 402.879 375.488 425.446 377.174C449.201 378.933 472.384 384.919 493.761 394.815C500.541 397.476 506.811 401.161 512.324 405.726C512.744 406.056 513.199 406.345 513.682 406.587L530.989 417.051L531.668 417.497C547.89 429.045 557.799 447.58 561.193 466.593C565.583 490.748 560.248 515.575 546.227 536.234C545.693 536.981 545.04 537.648 544.293 538.212L525.967 551.738C522.125 554.472 517.543 556.138 512.742 556.544C507.942 556.95 503.117 556.081 498.817 554.035C496.533 553.07 494.531 551.6 492.983 549.75C491.434 547.9 490.386 545.725 489.926 543.411C489.791 540.411 490.147 537.41 490.978 534.511C491.955 530.417 491.672 526.146 490.164 522.197C489.396 520.228 488.124 518.468 486.461 517.072C484.798 515.675 482.794 514.685 480.627 514.189C476.069 513.735 471.492 514.871 467.765 517.38C461.385 520.985 455.785 525.738 449.439 529.375C433.265 538.056 414.133 540.481 396.091 536.138C378.783 532.342 365.548 523.377 351.973 512.658C351.002 511.889 350.235 510.916 349.733 509.82L339.348 495.463L334.597 483.15Z"
    fill="white" />
  <g opacity="0.4">
    <path opacity="0.4"
      d="M546.227 536.257C545.712 537.019 545.057 537.688 544.293 538.235L525.967 551.761C522.127 554.5 517.544 556.168 512.743 556.574C507.942 556.98 503.116 556.108 498.818 554.058C496.544 553.088 494.55 551.62 493.003 549.777C491.457 547.935 490.402 545.771 489.926 543.467C489.848 540.492 490.249 537.524 491.114 534.662C492.089 530.568 491.806 526.297 490.299 522.348C489.53 520.39 488.262 518.638 486.605 517.248C484.948 515.858 482.954 514.87 480.797 514.373C476.229 513.928 471.645 515.063 467.901 517.563C461.487 521.2 455.955 525.953 449.575 529.622C433.385 538.258 414.272 540.681 396.227 536.385C378.953 532.525 365.683 523.624 352.109 512.873C351.147 512.083 350.382 511.103 349.869 510.002L341.045 497.656C355.537 490.353 370.954 484.8 386.928 481.132C409.089 476.442 433.184 477.144 453.444 486.842C459.892 490.032 465.797 493.797 472.075 497.146C489.805 506.748 510.29 510.887 530.65 508.982C541.363 507.824 551.735 504.726 561.193 499.858C558.917 512.829 553.822 525.219 546.227 536.257Z"
      fill="#C9D2DF" />
  </g>
  <g opacity="0.1">
    <path opacity="0.1"
      d="M560.276 500.179C550.813 505.029 540.442 508.116 529.734 509.271C509.421 511.195 488.976 507.101 471.26 497.563C465.016 494.214 459.077 490.29 452.629 487.26C432.267 477.689 408.274 476.86 386.113 481.549C370.134 485.202 354.715 490.755 340.23 498.074L349.156 510.388C349.681 511.472 350.444 512.44 351.396 513.227C359.464 520.042 368.374 525.922 377.934 530.741C368.339 525.944 359.404 520.062 351.328 513.227C350.374 512.442 349.611 511.473 349.088 510.388L338.703 496L333.816 483.464C331.35 478.903 329.623 474.021 328.692 468.98C351.108 449.449 379.719 437.369 410.14 434.591C420.734 433.793 431.379 433.793 441.973 434.591C484.224 437.366 527.494 448.499 560.989 472.011C562.169 481.385 561.928 490.868 560.276 500.179Z"
      fill="#C9D2DF" />
  </g>
  <path
    d="M380.649 533.106C380.365 533.103 380.086 533.038 379.835 532.915C346.135 516.581 333.816 493.229 329.574 476.545C326.668 465.835 326.217 454.668 328.251 443.783C328.294 443.563 328.385 443.354 328.519 443.169C328.652 442.984 328.824 442.827 329.024 442.707C329.225 442.588 329.45 442.508 329.684 442.474C329.919 442.439 330.159 442.45 330.389 442.507C330.851 442.606 331.253 442.872 331.508 443.249C331.762 443.625 331.848 444.08 331.746 444.516C331.746 445.058 319.461 499.833 381.498 529.916C381.856 530.091 382.141 530.375 382.307 530.721C382.473 531.068 382.509 531.457 382.411 531.825C382.313 532.194 382.086 532.52 381.767 532.753C381.447 532.985 381.053 533.109 380.649 533.106Z"
    fill="#3E3126" />
  <path
    d="M334.529 428.817H334.02C333.567 428.685 333.187 428.389 332.965 427.995C332.742 427.6 332.695 427.139 332.832 426.712C333.002 426.042 350.514 375 417.369 375H419.914C420.151 375.004 420.384 375.052 420.6 375.141C420.816 375.23 421.012 375.358 421.176 375.518C421.34 375.678 421.469 375.866 421.555 376.073C421.642 376.28 421.684 376.501 421.679 376.723C421.675 376.943 421.623 377.161 421.529 377.363C421.434 377.565 421.297 377.747 421.126 377.898C420.955 378.05 420.755 378.168 420.535 378.245C420.315 378.323 420.081 378.358 419.846 378.35H417.301C353.228 378.382 336.905 425.595 336.26 427.637C336.139 427.979 335.907 428.277 335.597 428.489C335.286 428.701 334.913 428.816 334.529 428.817Z"
    fill="#3E3126" />
  <path
    d="M552.098 443.942C551.792 443.942 551.492 443.869 551.225 443.73C550.957 443.59 550.732 443.389 550.571 443.145C517.55 391.401 442.414 380.491 441.634 380.395C441.4 380.364 441.175 380.29 440.971 380.176C440.767 380.063 440.59 379.914 440.448 379.736C440.306 379.558 440.203 379.356 440.145 379.14C440.086 378.925 440.073 378.701 440.107 378.481C440.14 378.262 440.219 378.052 440.34 377.862C440.461 377.672 440.621 377.507 440.81 377.376C441 377.246 441.216 377.152 441.445 377.1C441.673 377.049 441.911 377.041 442.143 377.078C442.924 377.078 519.756 388.275 553.659 441.39C553.887 441.783 553.948 442.242 553.828 442.675C553.708 443.108 553.417 443.482 553.014 443.719C552.738 443.874 552.42 443.951 552.098 443.942Z"
    fill="#3E3126" />
  <path
    d="M515.276 557.312C514.897 557.308 514.529 557.192 514.224 556.98C513.919 556.768 513.694 556.471 513.579 556.132C513.506 555.923 513.477 555.701 513.495 555.482C513.514 555.262 513.579 555.047 513.686 554.851C513.793 554.655 513.941 554.481 514.121 554.339C514.301 554.198 514.509 554.091 514.733 554.026C542.459 545.764 553.217 524.23 557.358 507.61C561.114 492.239 561.184 476.274 557.561 460.875C557.522 460.483 557.629 460.091 557.865 459.765C558.101 459.44 558.449 459.202 558.851 459.093C559.253 458.983 559.683 459.009 560.067 459.165C560.451 459.322 560.765 459.599 560.955 459.95C564.824 472.71 572.562 540.34 515.751 557.217C515.599 557.272 515.439 557.304 515.276 557.312Z"
    fill="#3E3126" />
  <path
    d="M507.369 558.303C503.389 558.299 499.512 557.108 496.299 554.901C493.085 552.694 490.699 549.584 489.485 546.021C489.402 545.799 489.367 545.564 489.381 545.329C489.395 545.094 489.459 544.864 489.567 544.652C489.676 544.441 489.828 544.251 490.015 544.095C490.202 543.938 490.419 543.818 490.655 543.74C490.891 543.663 491.141 543.63 491.391 543.643C491.641 543.656 491.886 543.716 492.111 543.818C492.336 543.92 492.538 544.064 492.705 544.238C492.871 544.414 492.999 544.619 493.082 544.841C494.042 547.743 495.975 550.275 498.594 552.057C501.212 553.84 504.374 554.778 507.607 554.73C508.111 554.73 508.594 554.919 508.95 555.253C509.307 555.589 509.507 556.043 509.507 556.517C509.507 556.99 509.307 557.444 508.95 557.78C508.594 558.115 508.111 558.303 507.607 558.303H507.369Z"
    fill="#3E3126" />
  <path
    d="M390.388 536.839C391.532 536.839 392.459 535.969 392.459 534.894C392.459 533.819 391.532 532.948 390.388 532.948C389.245 532.948 388.318 533.819 388.318 534.894C388.318 535.969 389.245 536.839 390.388 536.839Z"
    fill="#3E3126" />
  <path
    d="M332.459 437.361C333.602 437.361 334.529 436.49 334.529 435.415C334.529 434.34 333.602 433.469 332.459 433.469C331.316 433.469 330.389 434.34 330.389 435.415C330.389 436.49 331.316 437.361 332.459 437.361Z"
    fill="#3E3126" />
  <path
    d="M557.595 454.755C558.738 454.755 559.665 453.885 559.665 452.81C559.665 451.735 558.738 450.864 557.595 450.864C556.452 450.864 555.525 451.735 555.525 452.81C555.525 453.885 556.452 454.755 557.595 454.755Z"
    fill="#3E3126" />
  <path
    d="M430.264 379.815C431.408 379.815 432.334 378.944 432.334 377.869C432.334 376.794 431.408 375.923 430.264 375.923C429.121 375.923 428.194 376.794 428.194 377.869C428.194 378.944 429.121 379.815 430.264 379.815Z"
    fill="#3E3126" />
  <path
    d="M434.438 400.112C436.125 398.301 438.349 397.006 440.826 396.394C443.301 395.782 445.916 395.88 448.332 396.676C450.748 397.472 452.856 398.929 454.384 400.861C455.911 402.792 456.789 405.109 456.905 407.513C456.946 408.686 456.797 409.859 456.463 410.99C455.627 414.509 453.346 417.575 450.118 419.522C446.89 421.47 442.975 422.141 439.224 421.39C437.485 420.885 435.881 420.037 434.517 418.904C433.154 417.771 432.063 416.378 431.316 414.818C430.249 412.349 429.975 409.639 430.53 407.025C431.086 404.411 432.444 402.007 434.438 400.112Z"
    fill="#4DF58C" />
  <path
    d="M395.547 397.109C397.232 395.3 399.453 394.006 401.927 393.392C404.399 392.779 407.011 392.874 409.426 393.666C411.841 394.458 413.949 395.911 415.479 397.838C417.009 399.764 417.892 402.077 418.013 404.478C418.057 405.662 417.908 406.846 417.572 407.987C416.727 411.5 414.444 414.559 411.217 416.499C407.99 418.44 404.079 419.107 400.332 418.355C398.595 417.855 396.993 417.01 395.634 415.876C394.276 414.742 393.193 413.346 392.459 411.784C391.377 409.324 391.092 406.619 391.642 404.007C392.191 401.396 393.55 398.996 395.547 397.109Z"
    fill="#42CAF8" />
  <path
    d="M469.054 411.851C470.741 410.041 472.965 408.746 475.441 408.133C477.917 407.521 480.531 407.619 482.947 408.415C485.364 409.211 487.471 410.669 488.999 412.6C490.527 414.531 491.405 416.848 491.52 419.252C491.594 420.469 491.445 421.688 491.079 422.857C490.25 426.373 487.977 429.439 484.754 431.387C481.531 433.335 477.62 434.007 473.873 433.257C472.129 432.761 470.52 431.917 469.156 430.783C467.791 429.649 466.703 428.251 465.966 426.685C464.894 424.219 464.615 421.511 465.164 418.897C465.713 416.283 467.065 413.878 469.054 411.979V411.851Z"
    fill="#FF7769" />
  <path
    d="M355.468 427.607C366.09 415.452 383.33 420.876 383.058 437.177C383.039 438.924 382.777 440.661 382.278 442.345C378.884 453.798 368.703 461.167 359.914 458.742C357.676 458.043 355.653 456.846 354.016 455.251C352.379 453.656 351.177 451.713 350.513 449.587C349.37 445.847 349.224 441.899 350.088 438.094C350.952 434.288 352.8 430.741 355.468 427.766V427.607Z"
    fill="#FFE56B" />
  <path
    d="M469.87 412.774C471.013 412.774 471.94 411.902 471.94 410.828C471.94 409.753 471.013 408.882 469.87 408.882C468.727 408.882 467.799 409.753 467.799 410.828C467.799 411.902 468.727 412.774 469.87 412.774Z"
    fill="#3E3126" />
  <path
    d="M478.116 435.84C476.75 435.834 475.391 435.652 474.078 435.298C472.13 434.756 470.323 433.841 468.769 432.612C467.216 431.382 465.949 429.863 465.05 428.152C463.151 424.626 462.763 420.55 463.965 416.763C464.09 416.34 464.39 415.981 464.798 415.766C465.205 415.55 465.687 415.496 466.136 415.615C466.586 415.733 466.968 416.015 467.198 416.398C467.426 416.78 467.484 417.233 467.358 417.656C466.403 420.657 466.707 423.888 468.207 426.684C468.886 428.004 469.852 429.174 471.043 430.12C472.235 431.066 473.624 431.767 475.121 432.176C476.619 432.585 478.19 432.693 479.735 432.495C481.28 432.296 482.763 431.795 484.089 431.023C486.927 429.383 489.013 426.806 489.935 423.796C490.858 420.787 490.552 417.562 489.078 414.753C488.41 413.452 487.462 412.295 486.294 411.356C485.125 410.416 483.762 409.716 482.291 409.298C481.84 409.175 481.46 408.89 481.235 408.504C481.009 408.118 480.955 407.663 481.085 407.24C481.216 406.817 481.52 406.46 481.931 406.248C482.341 406.036 482.824 405.985 483.275 406.108C485.189 406.675 486.96 407.604 488.477 408.838C489.994 410.073 491.227 411.586 492.098 413.286C493.93 416.834 494.298 420.893 493.132 424.681C491.967 428.469 489.35 431.717 485.786 433.798C483.472 435.117 480.822 435.822 478.116 435.84Z"
    fill="#3E3126" />
  <path
    d="M404.812 421.7C403.456 421.709 402.106 421.526 400.807 421.158C398.843 420.571 397.021 419.625 395.446 418.375C393.871 417.126 392.574 415.597 391.628 413.875C390.683 412.153 390.108 410.274 389.936 408.343C389.764 406.412 389.998 404.469 390.626 402.623C391.456 399.804 393.134 397.27 395.457 395.323C397.78 393.377 400.651 392.101 403.726 391.649C404.142 391.65 404.544 391.793 404.859 392.05C405.173 392.308 405.377 392.663 405.435 393.051C405.492 393.439 405.4 393.833 405.173 394.162C404.946 394.49 404.601 394.731 404.201 394.84C401.798 395.218 399.562 396.237 397.757 397.775C395.952 399.313 394.655 401.306 394.02 403.517C392.996 406.398 393.229 409.543 394.666 412.263C396.104 414.983 398.629 417.057 401.689 418.032C404.831 418.765 408.153 418.297 410.927 416.73C413.701 415.163 415.7 412.625 416.486 409.674C417.131 407.665 417.211 405.533 416.718 403.486C416.224 401.439 415.174 399.548 413.669 397.998C413.499 397.845 413.364 397.662 413.271 397.459C413.179 397.256 413.132 397.038 413.132 396.817C413.133 396.596 413.181 396.378 413.274 396.175C413.367 395.972 413.503 395.79 413.674 395.638C413.844 395.486 414.046 395.369 414.267 395.293C414.487 395.217 414.722 395.183 414.956 395.195C415.191 395.207 415.42 395.264 415.63 395.362C415.841 395.46 416.028 395.597 416.18 395.765C418.101 397.723 419.445 400.118 420.081 402.714C420.718 405.309 420.625 408.015 419.811 410.567C418.916 413.691 416.973 416.462 414.271 418.467C411.57 420.472 408.252 421.606 404.812 421.7Z"
    fill="#3E3126" />
  <path
    d="M443.024 424.321C441.668 424.329 440.318 424.147 439.019 423.779C437.065 423.254 435.248 422.349 433.687 421.124C432.127 419.899 430.857 418.38 429.959 416.665C428.046 413.132 427.645 409.046 428.838 405.244C428.972 404.836 429.271 404.493 429.671 404.29C430.071 404.087 430.54 404.04 430.976 404.16C431.198 404.215 431.404 404.311 431.585 404.443C431.764 404.575 431.915 404.739 432.026 404.927C432.137 405.115 432.206 405.321 432.23 405.535C432.254 405.748 432.231 405.964 432.165 406.169C431.209 409.17 431.513 412.401 433.013 415.197C433.683 416.529 434.643 417.712 435.832 418.672C437.021 419.631 438.41 420.345 439.912 420.766C441.413 421.187 442.992 421.307 444.545 421.117C446.099 420.927 447.593 420.432 448.929 419.664C451.765 418.029 453.849 415.458 454.772 412.454C455.695 409.45 455.39 406.23 453.918 403.426C452.699 401.029 450.548 399.162 447.909 398.213C445.269 397.263 442.342 397.302 439.732 398.322C439.282 398.482 438.783 398.469 438.344 398.283C437.904 398.098 437.561 397.756 437.391 397.333C437.219 396.91 437.234 396.44 437.431 396.027C437.629 395.615 437.993 395.292 438.443 395.132C441.859 393.818 445.679 393.776 449.127 395.014C452.575 396.252 455.392 398.678 457.006 401.799C458.838 405.347 459.206 409.406 458.04 413.195C456.875 416.983 454.257 420.231 450.694 422.311C448.379 423.623 445.727 424.318 443.024 424.321Z"
    fill="#3E3126" />
  <path
    d="M542.046 513.644C545.873 501.222 540.831 488.935 530.786 486.201C520.74 483.466 509.494 491.319 505.668 503.741C501.841 516.163 506.883 528.449 516.928 531.183C526.974 533.918 538.22 526.066 542.046 513.644Z"
    fill="white" />
  <path
    d="M520.706 534.702C519.133 534.712 517.567 534.508 516.056 534.096C504.993 531.066 499.36 517.795 503.466 504.428C507.572 491.062 519.891 482.672 530.955 485.702C542.018 488.733 547.618 502.004 543.511 515.37C541.745 521.477 537.909 526.875 532.584 530.747C529.185 533.241 525.017 534.629 520.706 534.702ZM526.305 488.638C518.331 488.638 510.219 495.496 507.131 505.45C503.738 516.87 508.081 528.195 517.108 530.651C519.39 531.186 521.772 531.211 524.064 530.723C526.357 530.236 528.496 529.249 530.31 527.844C534.964 524.439 538.311 519.702 539.846 514.35C543.24 502.897 538.896 491.572 529.903 489.116C528.733 488.799 527.523 488.638 526.305 488.638Z"
    fill="#3E3126" />
  <path opacity="0.4"
    d="M436.048 483.94C437.732 478.474 432.267 472.183 423.841 469.89C415.416 467.596 407.221 470.169 405.537 475.635C403.853 481.101 409.318 487.391 417.744 489.685C426.169 491.978 434.364 489.406 436.048 483.94Z"
    fill="#C9D2DF" />
  <path opacity="0.4"
    d="M452.73 491.881C455.467 491.881 457.685 489.796 457.685 487.224C457.685 484.651 455.467 482.566 452.73 482.566C449.994 482.566 447.775 484.651 447.775 487.224C447.775 489.796 449.994 491.881 452.73 491.881Z"
    fill="#C9D2DF" />
  <path opacity="0.2"
    d="M443.195 477.561C444.975 477.561 446.418 476.205 446.418 474.531C446.418 472.857 444.975 471.5 443.195 471.5C441.414 471.5 439.971 472.857 439.971 474.531C439.971 476.205 441.414 477.561 443.195 477.561Z"
    fill="#C9D2DF" />
  <path opacity="0.4"
    d="M376.983 496.32C382.081 496.32 386.214 492.436 386.214 487.643C386.214 482.851 382.081 478.966 376.983 478.966C371.885 478.966 367.752 482.851 367.752 487.643C367.752 492.436 371.885 496.32 376.983 496.32Z"
    fill="#C9D2DF" />
  <path opacity="0.2"
    d="M397.516 473.988C399.184 473.988 400.537 472.717 400.537 471.149C400.537 469.581 399.184 468.31 397.516 468.31C395.848 468.31 394.496 469.581 394.496 471.149C394.496 472.717 395.848 473.988 397.516 473.988Z"
    fill="#C9D2DF" />
  <path
    d="M400.812 402.186C402.035 401.227 402.453 399.802 401.745 399.004C401.037 398.206 399.471 398.336 398.248 399.295C397.024 400.254 396.606 401.679 397.314 402.477C398.022 403.275 399.589 403.145 400.812 402.186Z"
    fill="white" />
  <path
    d="M405.083 400.746C405.551 400.746 405.931 400.389 405.931 399.949C405.931 399.508 405.551 399.151 405.083 399.151C404.614 399.151 404.234 399.508 404.234 399.949C404.234 400.389 404.614 400.746 405.083 400.746Z"
    fill="white" />
  <path
    d="M438.974 403.594C440.198 402.635 440.616 401.211 439.908 400.412C439.199 399.614 437.634 399.744 436.41 400.703C435.186 401.662 434.768 403.087 435.476 403.885C436.185 404.684 437.75 404.553 438.974 403.594Z"
    fill="white" />
  <path
    d="M443.228 402.155C443.697 402.155 444.077 401.798 444.077 401.357C444.077 400.917 443.697 400.56 443.228 400.56C442.76 400.56 442.38 400.917 442.38 401.357C442.38 401.798 442.76 402.155 443.228 402.155Z"
    fill="white" />
  <path
    d="M477.218 413.838C478.441 412.879 478.859 411.454 478.151 410.656C477.443 409.857 475.877 409.987 474.653 410.946C473.43 411.906 473.012 413.33 473.72 414.129C474.428 414.927 475.994 414.797 477.218 413.838Z"
    fill="white" />
  <path
    d="M481.509 412.385C481.977 412.385 482.357 412.028 482.357 411.588C482.357 411.147 481.977 410.79 481.509 410.79C481.04 410.79 480.66 411.147 480.66 411.588C480.66 412.028 481.04 412.385 481.509 412.385Z"
    fill="white" />
  <path
    d="M504.859 435.075C506.548 433.288 508.764 432.013 511.227 431.413C513.688 430.813 516.284 430.914 518.685 431.704C521.085 432.494 523.182 433.936 524.708 435.849C526.235 437.761 527.122 440.057 527.256 442.444C527.301 443.628 527.152 444.812 526.815 445.953C525.979 449.463 523.703 452.521 520.48 454.463C517.259 456.404 513.352 457.072 509.61 456.321C507.867 455.825 506.258 454.981 504.893 453.847C503.528 452.713 502.44 451.315 501.702 449.749C500.629 447.288 500.35 444.584 500.899 441.975C501.448 439.366 502.801 436.966 504.79 435.075H504.859Z"
    fill="#F78A11" />
  <path
    d="M505.672 435.989C506.816 435.989 507.742 435.118 507.742 434.043C507.742 432.968 506.816 432.097 505.672 432.097C504.529 432.097 503.602 432.968 503.602 434.043C503.602 435.118 504.529 435.989 505.672 435.989Z"
    fill="#3E3126" />
  <path
    d="M513.919 459.032C512.553 459.026 511.194 458.843 509.88 458.489C505.918 457.296 502.622 454.674 500.714 451.2C498.805 447.726 498.441 443.681 499.699 439.954C499.762 439.745 499.867 439.549 500.01 439.378C500.153 439.207 500.33 439.064 500.532 438.957C500.734 438.851 500.956 438.782 501.185 438.757C501.415 438.731 501.648 438.747 501.871 438.806C502.093 438.865 502.302 438.964 502.484 439.098C502.666 439.233 502.818 439.399 502.931 439.589C503.045 439.779 503.117 439.987 503.146 440.203C503.173 440.419 503.155 440.638 503.093 440.848C502.083 443.741 502.334 446.893 503.791 449.613C505.247 452.334 507.791 454.401 510.864 455.363C512.36 455.769 513.93 455.877 515.473 455.679C517.016 455.482 518.498 454.982 519.824 454.214C522.673 452.596 524.76 450.018 525.661 447.005C526.171 445.568 526.374 444.05 526.26 442.54C526.145 441.028 525.714 439.554 524.993 438.2C524.271 436.845 523.271 435.638 522.053 434.647C520.834 433.657 519.419 432.902 517.889 432.426C517.439 432.303 517.059 432.017 516.833 431.631C516.608 431.246 516.554 430.791 516.684 430.368C516.815 429.945 517.119 429.588 517.529 429.376C517.94 429.163 518.423 429.113 518.873 429.236C522.835 430.429 526.131 433.05 528.04 436.525C529.948 439.999 530.313 444.043 529.054 447.77C527.91 451.584 525.265 454.846 521.656 456.894C519.333 458.258 516.657 458.998 513.919 459.032Z"
    fill="#3E3126" />
  <path
    d="M513.039 437.079C514.262 436.12 514.68 434.695 513.972 433.897C513.264 433.098 511.698 433.229 510.474 434.188C509.251 435.147 508.833 436.571 509.541 437.37C510.249 438.168 511.815 438.038 513.039 437.079Z"
    fill="white" />
  <path
    d="M517.313 435.613C517.781 435.613 518.161 435.256 518.161 434.816C518.161 434.375 517.781 434.018 517.313 434.018C516.844 434.018 516.464 434.375 516.464 434.816C516.464 435.256 516.844 435.613 517.313 435.613Z"
    fill="white" />
  <path
    d="M364.976 428.045C366.2 427.086 366.618 425.661 365.909 424.863C365.201 424.065 363.635 424.195 362.412 425.154C361.188 426.113 360.77 427.537 361.478 428.336C362.186 429.134 363.752 429.004 364.976 428.045Z"
    fill="white" />
  <path
    d="M369.247 426.616C369.716 426.616 370.095 426.259 370.095 425.818C370.095 425.378 369.716 425.021 369.247 425.021C368.778 425.021 368.399 425.378 368.399 425.818C368.399 426.259 368.778 426.616 369.247 426.616Z"
    fill="white" />
  <path
    d="M382.549 443.526C379.155 454.978 368.974 462.348 360.151 459.955C356.984 459.029 354.298 457.027 352.617 454.34C352.752 454.026 352.923 453.727 353.126 453.447C355.365 449.027 358.896 445.299 363.307 442.696C368.499 440.176 374.642 440.527 380.275 440.049C381.157 440.049 382.006 439.889 382.922 439.761C382.948 441.025 382.823 442.288 382.549 443.526Z"
    fill="#FFB320" />
  <path
    d="M364.563 461.798C363.19 461.75 361.831 461.524 360.525 461.128C350.887 458.48 345.932 446.995 349.461 435.607C350.687 431.598 352.895 427.916 355.909 424.856C356.22 424.596 356.623 424.456 357.039 424.461C357.454 424.467 357.853 424.619 358.155 424.888C358.457 425.156 358.642 425.521 358.672 425.91C358.703 426.3 358.576 426.687 358.319 426.993C355.642 429.711 353.698 432.993 352.651 436.564C349.597 446.453 353.534 456.247 361.441 458.384C369.348 460.522 378.206 454.237 381.26 444.347C382.761 439.777 382.63 434.869 380.887 430.375C380.229 428.542 379.126 426.878 377.665 425.516C376.204 424.153 374.426 423.13 372.47 422.527C372.052 422.413 371.699 422.147 371.489 421.788C371.279 421.429 371.229 421.006 371.35 420.613C371.472 420.22 371.755 419.888 372.137 419.69C372.518 419.493 372.968 419.446 373.387 419.56C375.819 420.269 378.041 421.504 379.874 423.166C381.707 424.828 383.1 426.871 383.941 429.131C385.981 434.25 386.148 439.863 384.416 445.081C381.328 455.035 372.979 461.765 364.563 461.798Z"
    fill="#3E3126" />
  <path
    d="M479.507 514.021C479.538 514.414 479.538 514.809 479.507 515.201C478.224 514.888 476.892 514.78 475.571 514.883H474.315C472.354 515.038 470.436 515.513 468.648 516.286C468.16 516.462 467.684 516.664 467.222 516.892C464.956 517.899 462.816 519.14 460.842 520.593C456.906 523.145 453.138 526.016 449.202 528.536L448.829 528.759C441.423 532.901 433.321 535.825 424.87 537.405C424.87 536.097 424.631 534.821 424.53 533.513C423.851 522.73 429.179 511.182 439.53 506.333C444.027 504.729 448.658 503.481 453.376 502.601C457.005 501.435 460.712 500.497 464.473 499.793C466.735 499.458 469.046 499.566 471.261 500.113C472.381 500.686 473.535 501.197 474.655 501.708L475.028 501.962C476.732 503.499 478.025 505.392 478.803 507.488C479.582 509.583 479.823 511.822 479.507 514.021Z"
    fill="#FF9E3E" />
  <path
    d="M412.99 539.86C409.407 539.907 405.827 539.63 402.3 539.03C401.95 538.86 401.67 538.588 401.5 538.254C401.332 537.92 401.284 537.542 401.365 537.18C401.445 536.818 401.651 536.491 401.948 536.249C402.246 536.006 402.62 535.863 403.013 535.84C413.346 537.158 423.858 536.418 433.866 533.671C443.876 530.923 453.159 526.227 461.113 519.889C464.069 517.474 467.414 515.515 471.022 514.084C474.077 512.967 481.713 510.894 487.244 514.785C491.927 518.199 493.624 525.026 492.301 535.106C492.226 535.544 491.977 535.937 491.606 536.21C491.235 536.482 490.768 536.612 490.299 536.574C489.827 536.518 489.397 536.289 489.105 535.936C488.812 535.583 488.68 535.135 488.737 534.692C489.891 526.014 488.737 520.049 485.038 517.433C481.339 514.817 474.857 516.316 472.346 517.21C469.095 518.512 466.083 520.288 463.42 522.473C449.328 533.695 431.46 539.855 412.99 539.86Z"
    fill="#3E3126" />
  <path
    d="M439.564 515.273C443.725 515.273 447.098 512.102 447.098 508.191C447.098 504.28 443.725 501.109 439.564 501.109C435.403 501.109 432.03 504.28 432.03 508.191C432.03 512.102 435.403 515.273 439.564 515.273Z"
    fill="#FF9E3E" />
  <path
    d="M469.224 502.51C471.304 502.51 472.99 500.924 472.99 498.968C472.99 497.013 471.304 495.427 469.224 495.427C467.143 495.427 465.456 497.013 465.456 498.968C465.456 500.924 467.143 502.51 469.224 502.51Z"
    fill="#FF9E3E" />
  <path
    d="M425.412 531.375C427.567 531.375 429.315 529.732 429.315 527.706C429.315 525.68 427.567 524.038 425.412 524.038C423.256 524.038 421.51 525.68 421.51 527.706C421.51 529.732 423.256 531.375 425.412 531.375Z"
    fill="#FF9E3E" />
  <path
    d="M415.196 516.955C416.527 516.955 417.605 515.941 417.605 514.69C417.605 513.439 416.527 512.425 415.196 512.425C413.865 512.425 412.787 513.439 412.787 514.69C412.787 515.941 413.865 516.955 415.196 516.955Z"
    fill="#FF9E3E" />
  <path
    d="M424.223 507.607C425.385 507.607 426.328 506.722 426.328 505.629C426.328 504.537 425.385 503.651 424.223 503.651C423.061 503.651 422.119 504.537 422.119 505.629C422.119 506.722 423.061 507.607 424.223 507.607Z"
    fill="#FF9E3E" />
  <path
    d="M486.329 489.655H485.955C485.711 489.562 485.514 489.384 485.407 489.158C485.299 488.932 485.289 488.676 485.379 488.443L490.775 476.384C490.892 476.164 491.093 475.992 491.337 475.904C491.582 475.815 491.853 475.816 492.098 475.905C492.219 475.95 492.328 476.018 492.42 476.105C492.512 476.191 492.584 476.294 492.632 476.408C492.679 476.521 492.702 476.644 492.698 476.765C492.693 476.887 492.663 477.007 492.607 477.118L487.211 489.145C487.126 489.296 487 489.423 486.844 489.513C486.689 489.603 486.511 489.652 486.329 489.655Z"
    fill="#3E3126" />
  <path
    d="M493.522 483.853C493.401 483.885 493.271 483.885 493.149 483.853C493.028 483.807 492.918 483.739 492.825 483.653C492.733 483.567 492.659 483.466 492.608 483.353C492.558 483.24 492.532 483.119 492.531 482.996C492.531 482.874 492.556 482.753 492.606 482.64L495.525 476.26C495.642 476.056 495.836 475.902 496.069 475.827C496.301 475.751 496.556 475.76 496.781 475.853C497.007 475.945 497.188 476.113 497.288 476.324C497.389 476.536 497.401 476.774 497.323 476.994L494.439 483.374C494.344 483.522 494.209 483.644 494.048 483.728C493.887 483.812 493.706 483.855 493.522 483.853Z"
    fill="#3E3126" />
  <path
    d="M248.734 43.3533H39.5319C33.1816 43.3533 28.0336 48.1924 28.0336 54.1618V102.931C28.0336 108.9 33.1816 113.739 39.5319 113.739H248.734C255.084 113.739 260.232 108.9 260.232 102.931V54.1618C260.232 48.1924 255.084 43.3533 248.734 43.3533Z"
    fill="white" />
  <path
    d="M260.232 87.4062V109.523C260.232 111.852 255.239 113.738 249.115 113.738H39.1642C33.0224 113.738 28.0472 111.852 28.0472 109.523V96.7213C42.201 100.246 58.3158 102.623 74.8437 104.099C94.8169 105.883 115.403 106.403 135.903 106.48C160.415 106.574 185.337 106.015 208.41 102.887C229.555 100.028 249.16 94.7585 260.232 87.4062Z"
    fill="#E8F0F9" />
  <path
    d="M248.516 115.527H39.314C35.7848 115.523 32.4011 114.204 29.9052 111.859C27.4092 109.514 26.0048 106.333 26 103.016V54.2428C26.0048 50.9253 27.4092 47.7451 29.9052 45.3996C32.4011 43.0542 35.7848 41.7351 39.314 41.7317H248.516C252.046 41.7351 255.43 43.0547 257.926 45.4011C260.422 47.7475 261.826 50.9289 261.83 54.2471V103.02C261.824 106.337 260.419 109.516 257.923 111.861C255.427 114.205 252.044 115.523 248.516 115.527ZM39.314 45.1454C36.7476 45.1476 34.2869 46.1067 32.4717 47.8122C30.6565 49.5177 29.6351 51.8303 29.6315 54.2428V103.016C29.6339 105.429 30.6548 107.743 32.4701 109.449C34.2854 111.156 36.7468 112.115 39.314 112.117H248.516C251.083 112.115 253.544 111.156 255.36 109.449C257.175 107.743 258.196 105.429 258.198 103.016V54.2428C258.196 51.8296 257.175 49.5159 255.36 47.8094C253.544 46.103 251.083 45.1434 248.516 45.1411L39.314 45.1454Z"
    fill="#314E5D" />
  <path
    d="M353.593 152.591H114.463C108.113 152.591 102.965 157.43 102.965 163.4V212.168C102.965 218.137 108.113 222.977 114.463 222.977H353.593C359.943 222.977 365.091 218.137 365.091 212.168V163.4C365.091 157.43 359.943 152.591 353.593 152.591Z"
    fill="white" />
  <path
    d="M365.091 196.644V218.76C365.091 221.09 359.472 222.976 352.54 222.976H115.517C108.585 222.976 102.965 221.09 102.965 218.76V205.959C118.944 209.483 137.138 211.86 155.794 213.337C178.319 215.12 201.579 215.641 224.725 215.718C252.388 215.812 280.532 215.253 306.579 212.125C330.461 209.266 352.595 203.996 365.091 196.644Z"
    fill="#E8F0F9" />
  <path
    d="M197.734 152.766C173.04 154.157 138.722 152.813 117.428 157.929C107.318 160.353 104.826 165.055 103.197 168.943L103.228 158.057C103.228 156.662 103.369 155.143 106.052 154.076C109.37 152.762 115.194 152.659 120.324 152.664C145.508 152.672 173.049 151.733 197.734 152.766Z"
    fill="#4ED9FF" />
  <path
    d="M353.348 224.764H114.214C110.684 224.76 107.301 223.441 104.805 221.096C102.309 218.75 100.905 215.57 100.9 212.252V163.479C100.903 160.161 102.307 156.98 104.803 154.634C107.299 152.287 110.684 150.968 114.214 150.964H353.348C356.878 150.968 360.263 152.287 362.759 154.634C365.254 156.98 366.658 160.161 366.662 163.479V212.252C366.657 215.57 365.253 218.75 362.757 221.096C360.261 223.441 356.877 224.76 353.348 224.764ZM114.214 154.382C111.647 154.384 109.187 155.343 107.372 157.049C105.556 158.755 104.535 161.067 104.531 163.479V212.252C104.533 214.666 105.554 216.979 107.37 218.686C109.185 220.392 111.647 221.352 114.214 221.354H353.348C355.915 221.352 358.377 220.392 360.192 218.686C362.007 216.979 363.028 214.666 363.031 212.252V163.479C363.028 161.066 362.007 158.752 360.192 157.046C358.377 155.34 355.915 154.38 353.348 154.378L114.214 154.382Z"
    fill="#314E5D" />
  <path
    d="M320.356 26.4417H81.2578C74.9077 26.4417 69.7595 31.2808 69.7595 37.2502V237.885C69.7595 243.854 74.9077 248.693 81.2578 248.693H320.356C326.706 248.693 331.854 243.854 331.854 237.885V37.2502C331.854 31.2808 326.706 26.4417 320.356 26.4417Z"
    fill="#1DCDFF" />
  <path
    d="M331.854 165.549V235.367C331.854 242.719 326.234 248.676 319.303 248.676H82.2883C75.3567 248.676 69.737 242.702 69.737 235.367V194.992C85.7156 206.121 103.905 213.631 122.557 218.295C145.082 223.931 168.337 225.579 191.479 225.818C219.141 226.112 247.277 224.345 273.323 214.467C297.228 205.412 319.362 188.762 331.854 165.549Z"
    fill="#1AB5E1" />
  <path
    d="M164.519 27.0008C139.829 31.4002 105.534 27.1545 84.2221 43.3011C74.1174 50.9563 71.6253 65.8015 69.9956 78.0778L70.0319 43.715C70.0319 39.3157 70.1726 34.5067 72.8555 31.1485C76.1737 27.0008 81.9978 26.6808 87.1227 26.6808C112.298 26.7064 139.834 23.7963 164.519 27.0008Z"
    fill="#4ED9FF" />
  <path
    d="M320.111 250.665H81.0082C77.4783 250.662 74.0938 249.342 71.5976 246.996C69.1017 244.65 67.6978 241.468 67.6942 238.15V37.5154C67.6978 34.1971 69.1017 31.0158 71.5976 28.6694C74.0938 26.3231 77.4783 25.0034 81.0082 25H320.111C323.641 25.0034 327.025 26.3231 329.521 28.6694C332.018 31.0158 333.421 34.1971 333.425 37.5154V238.154C333.42 241.472 332.016 244.652 329.52 246.997C327.024 249.343 323.64 250.662 320.111 250.665ZM81.0082 28.4137C78.4411 28.4159 75.9794 29.3756 74.1641 31.082C72.3488 32.7884 71.3281 35.1022 71.3257 37.5154V238.154C71.3281 240.567 72.3488 242.881 74.1641 244.588C75.9794 246.294 78.4411 247.254 81.0082 247.256H320.111C322.678 247.254 325.139 246.294 326.955 244.588C328.77 242.881 329.791 240.567 329.793 238.154V37.5154C329.791 35.1022 328.77 32.7884 326.955 31.082C325.139 29.3756 322.678 28.4159 320.111 28.4137H81.0082Z"
    fill="#314E5D" />
  <path
    d="M301.98 40.7715H100.695C96.7194 40.7715 93.496 43.8015 93.496 47.5391V225.37C93.496 229.108 96.7194 232.138 100.695 232.138H301.98C305.956 232.138 309.18 229.108 309.18 225.37V47.5391C309.18 43.8015 305.956 40.7715 301.98 40.7715Z"
    fill="white" />
  <path
    d="M308.835 46.1981V83.3559H93.1374V46.1981C93.1374 43.3477 96.2242 41.0349 100.033 41.0349H301.94C305.748 41.0349 308.835 43.3477 308.835 46.1981Z"
    fill="#DCEAEF" />
  <path
    d="M301.722 234.907H100.446C98.0554 234.905 95.7639 234.012 94.0739 232.423C92.3834 230.834 91.4329 228.68 91.4306 226.433V47.2148C91.4342 44.9687 92.3852 42.8156 94.0752 41.2277C95.7653 39.6399 98.0563 38.7469 100.446 38.7446H301.722C304.112 38.7469 306.404 39.6405 308.094 41.2292C309.784 42.818 310.735 44.9722 310.737 47.2191V226.437C310.733 228.683 309.782 230.837 308.092 232.424C306.402 234.012 304.111 234.905 301.722 234.907ZM100.446 42.1583C99.0186 42.1606 97.6505 42.6945 96.6414 43.6431C95.6323 44.5917 95.0644 45.8776 95.0621 47.2191V226.437C95.0657 227.778 95.6341 229.063 96.6432 230.01C97.6523 230.958 99.0195 231.492 100.446 231.494H301.722C303.149 231.492 304.517 230.957 305.526 230.009C306.535 229.06 307.103 227.774 307.105 226.433V47.2148C307.102 45.8741 306.534 44.5892 305.524 43.6416C304.515 42.6939 303.148 42.1606 301.722 42.1583H100.446Z"
    fill="#314E5D" />
  <path d="M209.209 65.7888H117.473V73.2393H209.209V65.7888Z" fill="white" />
  <path d="M114.613 101.692H159.494V99.9216H114.613V101.692Z" fill="#CED5D8" />
  <path d="M114.613 105.593H212.296V103.822H114.613V105.593Z" fill="#CED5D8" />
  <path d="M114.613 109.493H159.494V107.723H114.613V109.493Z" fill="#CED5D8" />
  <path d="M114.613 113.392H212.296V111.621H114.613V113.392Z" fill="#CED5D8" />
  <path d="M114.613 117.292H159.494V115.521H114.613V117.292Z" fill="#CED5D8" />
  <path d="M114.613 121.19H212.296V119.419H114.613V121.19Z" fill="#CED5D8" />
  <path d="M114.613 136.934H159.494V135.164H114.613V136.934Z" fill="#CED5D8" />
  <path d="M114.613 140.835H212.296V139.064H114.613V140.835Z" fill="#CED5D8" />
  <path d="M114.613 144.735H159.494V142.965H114.613V144.735Z" fill="#CED5D8" />
  <path d="M114.613 148.634H212.296V146.863H114.613V148.634Z" fill="#CED5D8" />
  <path d="M114.613 152.535H159.494V150.764H114.613V152.535Z" fill="#CED5D8" />
  <path d="M114.613 156.431H212.296V154.661H114.613V156.431Z" fill="#CED5D8" />
  <path d="M114.613 172.176H159.494V170.406H114.613V172.176Z" fill="#CED5D8" />
  <path d="M114.613 176.077H212.296V174.306H114.613V176.077Z" fill="#CED5D8" />
  <path d="M114.613 179.977H159.494V178.206H114.613V179.977Z" fill="#CED5D8" />
  <path d="M114.613 183.876H212.296V182.105H114.613V183.876Z" fill="#CED5D8" />
  <path d="M114.613 187.776H159.494V186.005H114.613V187.776Z" fill="#CED5D8" />
  <path d="M114.613 191.673H212.296V189.903H114.613V191.673Z" fill="#CED5D8" />
  <path d="M266.115 52.7027H299.806V48.9775H266.115V52.7027Z" fill="#EEA248" />
  <path d="M227.775 52.7027H261.467V48.9775H227.775V52.7027Z" fill="#EEA248" />
  <path
    d="M103.855 54.4294C105.966 54.4294 107.677 52.8208 107.677 50.8365C107.677 48.8523 105.966 47.2437 103.855 47.2437C101.744 47.2437 100.033 48.8523 100.033 50.8365C100.033 52.8208 101.744 54.4294 103.855 54.4294Z"
    fill="#EEA248" />
  <path d="M238.98 185.545L226.793 196.409L251.522 220.922L263.709 210.058L238.98 185.545Z" fill="#314E5D" />
  <g opacity="0.5">
    <path opacity="0.5"
      d="M228.407 185.933C244.29 171.774 244.955 148.193 229.893 133.263C214.832 118.333 189.746 117.707 173.863 131.865C157.981 146.024 157.315 169.605 172.376 184.535C187.438 199.465 212.524 200.091 228.407 185.933Z"
      fill="#8BDDEB" />
    <path opacity="0.5"
      d="M180.248 180.428C176.24 176.457 173.213 171.705 171.381 166.508C169.55 161.312 168.96 155.8 169.654 150.365C170.347 144.93 172.307 139.706 175.394 135.064C178.48 130.422 182.618 126.477 187.511 123.51C182.275 125.313 177.503 128.135 173.506 131.792C169.51 135.448 166.379 139.855 164.319 144.726C162.259 149.598 161.315 154.823 161.55 160.06C161.785 165.298 163.193 170.43 165.682 175.12C168.171 179.811 171.685 183.956 175.995 187.283C180.305 190.61 185.313 193.044 190.692 194.427C196.071 195.81 201.7 196.11 207.211 195.309C212.722 194.507 217.991 192.62 222.673 189.773C215.403 192.281 207.512 192.733 199.972 191.073C192.432 189.412 185.575 185.711 180.248 180.428Z"
      fill="#62D6F8" />
  </g>
  <path
    d="M244.389 119.124C240.07 114.833 235.071 111.195 229.568 108.341C229.473 108.286 229.378 108.239 229.273 108.192C216.552 101.68 201.782 99.6327 187.604 102.416C173.424 105.2 160.761 112.633 151.876 123.387C142.991 134.14 138.464 147.514 139.105 161.117C139.745 174.72 145.511 187.665 155.372 197.639C155.513 197.788 155.658 197.933 155.826 198.065C160.335 202.546 165.585 206.311 171.374 209.215L171.537 209.296C184.328 215.656 199.108 217.537 213.238 214.604C227.368 211.67 239.93 204.113 248.682 193.28C257.434 182.447 261.807 169.043 261.021 155.461C260.235 141.878 254.34 129 244.389 119.124ZM229.459 133.265C234.854 138.612 238.44 145.342 239.765 152.604C241.09 159.867 240.095 167.336 236.904 174.066C233.714 180.797 228.472 186.487 221.841 190.417C215.21 194.347 207.489 196.34 199.653 196.145C191.817 195.95 184.218 193.575 177.818 189.321C171.418 185.066 166.504 179.123 163.697 172.243C160.89 165.363 160.317 157.855 162.049 150.669C163.781 143.482 167.742 136.94 173.43 131.87C177.206 128.503 181.651 125.869 186.511 124.116C191.371 122.365 196.55 121.53 201.753 121.66C206.956 121.79 212.081 122.882 216.834 124.874C221.589 126.866 225.878 129.719 229.459 133.269V133.265Z"
    fill="#E7E7E7" />
  <path
    d="M248.67 192.023C238.306 201.263 224.823 206.793 210.569 207.651C196.314 208.509 182.191 204.64 170.658 196.719C159.125 188.797 150.913 177.324 147.452 164.297C143.99 151.271 145.498 137.516 151.714 125.427C146.689 131.856 143.146 139.199 141.31 146.987C139.475 154.776 139.387 162.839 141.053 170.661C142.718 178.483 146.101 185.892 150.984 192.417C155.868 198.941 162.145 204.436 169.414 208.552C176.684 212.668 184.787 215.313 193.205 216.32C201.624 217.326 210.173 216.671 218.308 214.397C226.442 212.123 233.982 208.279 240.447 203.112C246.912 197.944 252.16 191.566 255.856 184.385C253.705 187.126 251.3 189.682 248.67 192.023Z"
    fill="#CED0D0" />
  <path
    d="M200.612 217.988C190.161 217.992 179.877 215.53 170.702 210.827L170.475 210.712C157.15 203.821 146.923 192.636 141.677 179.217C141.559 178.927 141.445 178.624 141.341 178.312C137.198 167.105 136.739 154.984 140.025 143.528C143.311 132.072 150.19 121.812 159.766 114.082C169.343 106.352 181.172 101.512 193.716 100.19C206.26 98.8682 218.936 101.127 230.095 106.672C230.217 106.727 230.34 106.791 230.458 106.855C242.205 112.792 251.639 122.086 257.395 133.395C263.151 144.704 264.932 157.441 262.479 169.764C260.026 182.087 253.467 193.358 243.751 201.945C234.034 210.533 221.664 215.992 208.428 217.535C205.835 217.836 203.225 217.987 200.612 217.988ZM200.716 103.203C191.262 103.206 181.947 105.335 173.547 109.413C165.147 113.49 157.908 119.398 152.432 126.642C146.956 133.886 143.404 142.257 142.071 151.055C140.739 159.853 141.665 168.823 144.773 177.216V177.267C144.859 177.523 144.959 177.779 145.059 178.031C150.002 190.688 159.648 201.238 172.218 207.734L172.377 207.815C184.769 214.187 199.177 216.185 213 213.448C226.822 210.711 239.148 203.42 247.754 192.891C256.359 182.361 260.677 169.286 259.928 156.027C259.178 142.767 253.411 130.196 243.668 120.583C239.327 116.268 234.277 112.637 228.71 109.83L228.642 109.791L228.497 109.719L228.429 109.684C219.893 105.43 210.378 103.209 200.716 103.216V103.203ZM200.716 197.851C200.339 197.851 199.967 197.851 199.59 197.851C188.66 197.711 178.233 193.514 170.583 186.174C162.933 178.835 158.681 168.949 158.755 158.674C158.829 148.399 163.224 138.568 170.98 131.328C178.735 124.087 189.222 120.023 200.153 120.023C211.084 120.023 221.571 124.087 229.327 131.328C237.083 138.568 241.477 148.399 241.551 158.674C241.626 168.949 237.374 178.835 229.724 186.174C222.074 193.514 211.646 197.711 200.716 197.851ZM200.666 123.339C190.987 123.32 181.674 126.815 174.669 133.094C168.322 138.752 164.258 146.305 163.17 154.464C162.083 162.624 164.038 170.885 168.704 177.842C173.37 184.797 180.456 190.018 188.758 192.613C197.058 195.208 206.06 195.017 214.228 192.073C222.396 189.129 229.226 183.614 233.553 176.467C237.88 169.32 239.437 160.984 237.959 152.879C236.481 144.774 232.06 137.401 225.448 132.017C218.835 126.633 210.442 123.571 201.697 123.352C201.361 123.352 201.022 123.352 200.68 123.352L200.666 123.339Z"
    fill="#314E5D" />
  <path
    d="M248.721 205.676L248.718 205.679C243.545 210.291 243.328 217.971 248.234 222.835L284.939 259.219C289.845 264.082 298.016 264.286 303.19 259.674L303.193 259.671C308.366 255.06 308.583 247.378 303.677 242.515L266.972 206.131C262.066 201.267 253.895 201.064 248.721 205.676Z"
    fill="#426372" />
  <path
    d="M293.773 264.705H293.369C291.436 264.664 289.531 264.263 287.764 263.525C285.996 262.788 284.403 261.728 283.074 260.408L246.373 224.018C245.042 222.699 244.001 221.146 243.308 219.449C242.616 217.751 242.286 215.942 242.337 214.125C242.388 212.308 242.82 210.517 243.607 208.857C244.394 207.196 245.522 205.698 246.925 204.447C248.328 203.196 249.98 202.217 251.785 201.566C253.591 200.915 255.515 200.604 257.449 200.653C259.382 200.701 261.286 201.107 263.053 201.846C264.819 202.586 266.414 203.646 267.745 204.965L304.45 241.342C307.128 244.011 308.573 247.567 308.47 251.234C308.366 254.901 306.721 258.38 303.896 260.911C301.168 263.355 297.542 264.714 293.773 264.705ZM257.054 204.069C254.888 204.074 252.77 204.674 250.962 205.797C249.154 206.919 247.735 208.514 246.879 210.385C246.024 212.256 245.769 214.321 246.147 216.327C246.525 218.332 247.519 220.19 249.006 221.671L285.707 258.052C287.737 260.051 290.526 261.214 293.465 261.288C296.404 261.361 299.255 260.339 301.395 258.445C303.522 256.536 304.759 253.915 304.837 251.152C304.915 248.389 303.828 245.71 301.813 243.698L265.112 207.316C264.075 206.288 262.825 205.469 261.44 204.911C260.054 204.353 258.562 204.066 257.054 204.069Z"
    fill="#314E5D" />
  <g opacity="0.5">
    <path opacity="0.5"
      d="M261.094 210.225C265.634 213.81 269.143 218.269 273.382 222.126C274.644 223.274 276.56 221.465 275.307 220.317C271.067 216.477 267.558 212 263.019 208.416C261.685 207.362 259.751 209.163 261.094 210.225Z"
      fill="white" />
    <path opacity="0.5"
      d="M253.259 209.419C253.987 208.996 254.804 208.728 255.653 208.635C256.503 208.542 257.364 208.627 258.176 208.882C259.86 209.343 260.581 206.872 258.902 206.411C257.739 206.066 256.512 205.959 255.302 206.096C254.091 206.232 252.926 206.611 251.884 207.205C250.381 208.058 251.748 210.264 253.246 209.415L253.259 209.419Z"
      fill="white" />
  </g>
  <path
    d="M215.769 112.112C223.009 114.182 229.818 117.493 235.474 122.217C242.655 128.191 247.54 136.034 250.527 144.551C251.071 146.108 253.704 145.443 253.155 143.868C250.027 134.95 244.925 126.676 237.403 120.399C231.375 115.372 224.176 111.865 216.5 109.638C214.82 109.155 214.103 111.626 215.773 112.108L215.769 112.112Z"
    fill="white" />
  <path
    d="M189.318 109.736C194.052 109.147 198.959 109.365 203.689 109.817C205.432 109.984 205.419 107.424 203.689 107.257C198.959 106.805 194.052 106.587 189.318 107.176C187.606 107.389 187.584 109.954 189.318 109.736Z"
    fill="white" />
  <defs>
    <filter id="filter0_d_0_1" x="228" y="291" width="422" height="340" filterUnits="userSpaceOnUse"
      color-interpolation-filters="sRGB">
      <feFlood flood-opacity="0" result="BackgroundImageFix" />
      <feColorMatrix in="SourceAlpha" type="matrix" values="0 0 0 0 0 0 0 0 0 0 0 0 0 0 0 0 0 0 127 0"
        result="hardAlpha" />
      <feOffset dx="-8" dy="-8" />
      <feGaussianBlur stdDeviation="2" />
      <feComposite in2="hardAlpha" operator="out" />
      <feColorMatrix type="matrix" values="0 0 0 0 0 0 0 0 0 0 0 0 0 0 0 0 0 0 0.25 0" />
      <feBlend mode="normal" in2="BackgroundImageFix" result="effect1_dropShadow_0_1" />
      <feBlend mode="normal" in="SourceGraphic" in2="effect1_dropShadow_0_1" result="shape" />
    </filter>
  </defs>
</svg>