<svg width="251" height="406" viewBox="0 0 251 406" fill="none" xmlns="http://www.w3.org/2000/svg">
  <g clip-path="url(#clip0_7_906)">
    <path
      d="M243.522 387.443L232.17 405.289L28.1253 404.813L15.5944 391.741C11.259 387.21 7.93838 381.809 5.85283 375.898C3.76725 369.987 2.96445 363.7 3.4977 357.455C5.1529 337.758 8.53314 318.242 13.5997 299.133C15.141 293.325 16.8637 287.497 19.8365 282.269C27.8246 268.24 43.4811 260.621 58.4886 254.664C65.3935 251.924 82.6772 249.356 91.152 246.963C91.7404 247.706 92.4128 248.377 93.1562 248.965C102.91 257.104 114.983 261.354 126.946 260.854C138.909 261.331 150.982 257.104 160.731 248.965C161.637 248.263 162.427 247.424 163.074 246.477C170.709 248.998 186.155 251.243 193.528 254.188C208.549 260.144 224.206 267.764 232.18 281.793C235.153 287.034 236.875 292.848 238.417 298.657C244.176 320.389 247.755 342.64 249.101 365.08C249.583 372.929 247.635 380.737 243.522 387.443Z"
      fill="white" />
    <path
      d="M12.1683 306.759C13.7096 300.95 15.4322 295.123 18.4051 289.895C26.3932 275.866 42.0497 268.247 57.0571 262.29C63.962 259.55 81.2457 256.981 89.7205 254.589C90.3089 255.332 90.9812 256.004 91.7247 256.591C101.478 264.73 113.551 268.98 125.514 268.48C137.477 268.957 149.55 264.73 159.299 256.591C160.205 255.889 160.996 255.05 161.642 254.103C169.277 256.624 184.724 258.868 192.096 261.813C207.118 267.77 222.774 275.39 230.748 289.419C233.721 294.66 235.444 300.474 236.985 306.283C242.517 327.185 246.032 348.567 247.483 370.137C247.723 367.976 247.779 365.798 247.65 363.628C246.304 341.188 242.725 318.937 236.966 297.205C235.425 291.396 233.702 285.568 230.729 280.341C222.741 266.312 207.084 258.692 192.077 252.736C184.704 249.805 169.248 247.546 161.623 245.025C160.977 245.972 160.187 246.811 159.28 247.513C149.531 255.652 137.458 259.903 125.495 259.402C113.532 259.879 101.459 255.652 91.7056 247.513C90.9622 246.926 90.2898 246.254 89.7014 245.511C81.2266 247.894 63.9334 250.472 57.038 253.212C42.0211 259.169 26.3646 266.788 18.386 280.817C15.4132 286.059 13.6905 291.873 12.1492 297.681C7.08769 316.799 3.71379 336.322 2.06623 356.027C1.8345 358.772 1.85846 361.532 2.13781 364.271C3.81608 344.848 7.17206 325.606 12.1683 306.759Z"
      fill="#F4F4F4" />
    <path
      d="M233.229 405.834L229.202 403.279L240.554 385.434C244.424 379.16 246.258 371.844 245.803 364.49C244.463 342.208 240.908 320.114 235.191 298.534C233.759 293.088 232.094 287.341 229.188 282.237C221.624 268.952 206.707 261.613 191.719 255.666C187.797 254.108 181.584 252.707 175.576 251.377C170.494 250.234 165.693 249.152 162.181 247.97L163.703 243.453C166.977 244.553 171.663 245.611 176.626 246.726C182.829 248.123 189.209 249.586 193.48 251.258C209.279 257.529 225.046 265.339 233.339 279.902C236.527 285.501 238.35 291.815 239.81 297.333C245.6 319.215 249.198 341.617 250.551 364.209C251.069 372.549 248.99 380.845 244.601 387.959L233.229 405.834Z"
      fill="#385868" />
    <path
      d="M25.4483 405.728L12.9173 392.657C8.34981 387.881 4.85099 382.19 2.65281 375.961C0.454625 369.732 -0.392731 363.108 0.166903 356.527C1.83722 336.692 5.2398 317.039 10.3358 297.795C11.796 292.296 13.614 285.963 16.8064 280.364C25.0999 265.801 40.8614 257.967 56.6657 251.72C60.927 250.028 68.1182 248.456 75.0947 246.955C80.7112 245.725 86.0175 244.572 89.3053 243.462L90.8275 247.979C87.2916 249.166 81.866 250.362 76.1159 251.611C69.335 253.093 62.3252 254.627 58.4266 256.171C43.4239 262.089 28.5213 269.433 20.9532 282.718C18.0471 287.822 16.3913 293.569 14.9502 299.015C9.92453 317.988 6.56828 337.362 4.9197 356.918C4.41785 362.826 5.17938 368.774 7.15384 374.366C9.12825 379.958 12.2705 385.068 16.3722 389.355L28.9031 402.426L25.4483 405.728Z"
      fill="#385868" />
    <path d="M220.579 269.022L207.013 287.916L208.176 288.749L221.743 269.855L220.579 269.022Z" fill="#385868" />
    <path
      d="M212.109 277.337L210.95 276.499C213.231 273.354 214.233 272 215.201 270.685C216.17 269.37 217.167 268.026 219.439 264.891L220.598 265.729C218.322 268.865 217.32 270.223 216.351 271.533C215.383 272.844 214.385 274.197 212.109 277.337Z"
      fill="#385868" />
    <path d="M162.472 405.291V250.434L88.9856 249.944V405.291H162.472Z" fill="#83D0C7" />
    <path d="M56.6085 253.264H52.791V327.86H56.6085V253.264Z" fill="#385868" />
    <path
      d="M54.6283 345.481C51.4665 345.481 48.3758 344.545 45.7471 342.791C43.1183 341.037 41.0694 338.544 39.8594 335.627C38.6495 332.71 38.3329 329.5 38.9497 326.404C39.5666 323.307 41.0891 320.462 43.3247 318.23C45.5604 315.997 48.4087 314.477 51.5094 313.861C54.6107 313.245 57.825 313.561 60.7459 314.769C63.6667 315.978 66.1634 318.023 67.9199 320.649C69.6764 323.274 70.6141 326.36 70.6141 329.518C70.6088 333.75 68.9234 337.807 65.9262 340.8C62.9295 343.793 58.8662 345.476 54.6283 345.481ZM54.6283 317.366C52.2219 317.366 49.8689 318.079 47.868 319.414C45.8669 320.75 44.3073 322.647 43.3863 324.868C42.4653 327.088 42.2243 329.531 42.6939 331.888C43.1634 334.245 44.3223 336.411 46.0241 338.11C47.7258 339.81 49.8942 340.967 52.2543 341.436C54.615 341.905 57.0615 341.664 59.2847 340.744C61.5084 339.825 63.4086 338.267 64.7456 336.269C66.0827 334.271 66.7966 331.921 66.7966 329.518C66.7928 326.296 65.5096 323.208 63.2282 320.93C60.9472 318.652 57.8546 317.37 54.6283 317.366Z"
      fill="#385868" />
    <path
      d="M54.8763 351.92C50.3932 351.92 46.0111 350.592 42.2836 348.105C38.5561 345.618 35.6509 342.083 33.9353 337.947C32.2198 333.811 31.7709 329.26 32.6455 324.869C33.5201 320.478 35.6789 316.445 38.8488 313.279C42.0187 310.114 46.0575 307.958 50.4542 307.085C54.851 306.212 59.4086 306.66 63.5501 308.373C67.6921 310.086 71.2319 312.987 73.7228 316.71C76.2132 320.432 77.5427 324.808 77.5427 329.285C77.5365 335.286 75.1462 341.04 70.8969 345.283C66.6475 349.527 60.886 351.913 54.8763 351.92ZM54.8763 310.462C51.1485 310.462 47.5041 311.566 44.4045 313.634C41.3048 315.703 38.8889 318.642 37.4623 322.082C36.0356 325.521 35.6624 329.306 36.3896 332.957C37.1169 336.608 38.9121 339.962 41.5482 342.594C44.1842 345.227 47.5428 347.02 51.1991 347.746C54.8553 348.472 58.6451 348.1 62.0895 346.675C65.5338 345.25 68.4776 342.837 70.5485 339.742C72.6195 336.647 73.7252 333.008 73.7252 329.285C73.7199 324.294 71.7324 319.51 68.1989 315.981C64.6653 312.452 59.8739 310.467 54.8763 310.462Z"
      fill="#385868" />
    <path
      d="M203.51 303.313V319.749H181.56V303.309C181.56 301.792 182.163 300.338 183.237 299.265C184.311 298.193 185.767 297.59 187.286 297.59H197.784C198.537 297.59 199.282 297.739 199.976 298.026C200.672 298.314 201.303 298.735 201.835 299.267C202.367 299.799 202.788 300.429 203.076 301.124C203.363 301.818 203.511 302.562 203.51 303.313Z"
      fill="#DCA892" />
    <path
      d="M197.784 297.596H187.286C185.767 297.596 184.311 298.199 183.237 299.271C182.163 300.343 181.56 301.798 181.56 303.315V308.08C181.56 306.563 182.163 305.109 183.237 304.036C184.311 302.964 185.767 302.361 187.286 302.361H197.784C199.303 302.361 200.759 302.964 201.833 304.036C202.907 305.109 203.51 306.563 203.51 308.08V303.315C203.51 301.798 202.907 300.343 201.833 299.271C200.759 298.199 199.303 297.596 197.784 297.596Z"
      fill="#C48E7C" />
    <path d="M213.293 319.278H203.51V322.137H213.293V319.278Z" fill="#385868" />
    <path d="M181.56 319.278H171.3V322.137H181.56V319.278Z" fill="#385868" />
    <path
      d="M204.942 322.131H180.128V304.262C180.128 302.366 180.882 300.548 182.224 299.207C183.567 297.867 185.388 297.114 187.286 297.114H197.784C199.682 297.114 201.503 297.867 202.846 299.207C204.188 300.548 204.942 302.366 204.942 304.262V322.131ZM182.991 319.272H202.079V304.262C202.079 303.124 201.626 302.033 200.821 301.229C200.015 300.425 198.923 299.973 197.784 299.973H187.286C186.147 299.973 185.055 300.425 184.249 301.229C183.444 302.033 182.991 303.124 182.991 304.262V319.272Z"
      fill="#385868" />
    <path
      d="M161.041 251.85V261.504C151.685 265.372 141.746 267.645 131.637 268.228C117.546 269.055 103.451 266.673 90.4172 261.261V251.373L161.041 251.85Z"
      fill="#78C1B6" />
    <path
      d="M191.562 110.039C199.798 108.729 207.447 115.915 209.695 123.944C211.942 131.974 210.139 140.494 208.354 148.628C207.471 152.646 206.407 156.972 203.224 159.588C201.396 161.085 199.077 161.833 196.777 162.39C192.942 163.329 189.015 163.844 185.067 163.925"
      fill="#FFCDAA" />
    <path
      d="M205.896 136.286C205.897 141.391 203.921 146.297 200.383 149.98C196.844 153.663 192.016 155.837 186.909 156.047L191.586 117.277C195.711 118.469 199.338 120.968 201.919 124.396C204.5 127.824 205.896 131.997 205.896 136.286Z"
      fill="#E0B698" />
    <path
      d="M185.105 164.878L185.029 161.066C188.828 160.991 192.608 160.5 196.3 159.603C198.209 159.126 200.399 158.478 201.983 157.182C204.584 155.047 205.548 151.44 206.464 147.289C208.115 139.784 209.981 131.278 207.829 123.52C205.357 114.604 197.612 110.073 191.858 110.992L191.256 107.228C200.728 105.722 209.146 113.985 211.508 122.505C213.894 131.173 211.938 140.17 210.191 148.109C209.37 151.854 208.239 156.982 204.408 160.132C202.232 161.919 199.545 162.743 197.202 163.31C193.24 164.273 189.183 164.798 185.105 164.878Z"
      fill="#385868" />
    <path
      d="M196.343 133.981C195.274 134.945 194.276 135.985 193.356 137.092C192.609 137.993 191.931 138.949 191.328 139.951C190.307 141.681 189.954 142.896 190.254 143.092C190.913 143.502 193.862 139.789 198.147 135.982C202.432 132.175 206.412 129.611 206.073 128.91C205.911 128.586 204.641 128.81 202.833 129.639C201.767 130.13 200.74 130.7 199.76 131.345C198.559 132.141 197.417 133.022 196.343 133.981Z"
      fill="#385868" />
    <path
      d="M202.82 145.256C203.446 144.851 201.9 141.359 199.368 137.456C196.836 133.553 194.276 130.718 193.65 131.123C193.024 131.528 194.569 135.02 197.101 138.923C199.634 142.826 202.194 145.661 202.82 145.256Z"
      fill="#385868" />
    <path
      d="M57.7395 110.039C49.5033 108.729 41.854 115.915 39.6065 123.944C37.3589 131.974 39.1627 140.494 40.9474 148.628C41.8301 152.646 42.8943 156.972 46.0771 159.588C47.9047 161.085 50.2238 161.833 52.5238 162.39C56.3528 163.328 60.2734 163.842 64.2149 163.925"
      fill="#FFCDAA" />
    <path
      d="M43.3906 136.286C43.39 141.391 45.3657 146.297 48.9044 149.98C52.4432 153.663 57.2709 155.837 62.3778 156.047L57.7013 117.277C53.5756 118.469 49.949 120.968 47.368 124.396C44.7869 127.824 43.3911 131.997 43.3906 136.286Z"
      fill="#E0B698" />
    <path
      d="M64.1814 164.879C60.102 164.798 56.044 164.271 52.08 163.306C49.737 162.735 47.0504 161.915 44.8745 160.128C41.057 156.983 39.9117 151.851 39.091 148.105C37.3492 140.166 35.3689 131.17 37.7739 122.502C40.1599 113.981 48.5536 105.718 58.0257 107.224L57.4245 110.989C51.6696 110.074 43.9249 114.601 41.453 123.517C39.3009 131.27 41.1715 139.78 42.8178 147.286C43.7292 151.436 44.6979 155.043 47.2986 157.178C48.8828 158.479 51.0636 159.132 52.9819 159.599C56.6738 160.498 60.4536 160.991 64.253 161.067L64.1814 164.879Z"
      fill="#385868" />
    <path
      d="M52.9677 133.981C54.037 134.945 55.0353 135.985 55.9549 137.092C56.7017 137.993 57.3797 138.949 57.9829 139.951C59.0041 141.681 59.3572 142.896 59.0566 143.092C58.3981 143.502 55.449 139.789 51.1639 135.982C46.8788 132.175 42.8705 129.616 43.2093 128.92C43.3715 128.596 44.6408 128.82 46.4494 129.649C47.5152 130.139 48.5427 130.71 49.5224 131.355C50.7325 132.146 51.884 133.024 52.9677 133.981Z"
      fill="#385868" />
    <path
      d="M52.1817 138.895C54.7137 134.993 56.2593 131.501 55.6332 131.096C55.0072 130.691 52.447 133.526 49.9151 137.429C47.3827 141.331 45.8374 144.824 46.4633 145.228C47.0892 145.634 49.6493 142.798 52.1817 138.895Z"
      fill="#385868" />
    <path
      d="M159.938 195.923C159.402 210.475 160.32 225.045 162.677 239.415C162.949 241.064 163.236 242.803 162.754 244.385C162.277 246.044 161.007 247.211 159.786 248.231C149.875 256.499 137.573 260.744 125.428 260.096H126.574C114.424 260.744 102.123 256.499 92.2161 248.231C90.9945 247.211 89.7491 246.039 89.248 244.385C88.7709 242.803 89.0572 241.05 89.3244 239.415C91.6822 225.045 92.5998 210.475 92.0634 195.923"
      fill="#FFCDAA" />
    <path
      d="M161.723 229.528C160.107 230.662 158.474 231.774 156.823 232.863C147.026 239.235 136.046 244.343 124.727 243.676C111.915 242.923 100.705 235.041 90.446 226.044C90.624 220.939 90.6163 215.831 90.4221 210.719H161.594C161.353 216.975 161.395 223.244 161.723 229.528Z"
      fill="#E0B698" />
    <path
      d="M124.107 262.566C112.177 262.566 100.395 258.186 90.7036 250.081C89.167 248.799 87.6496 247.303 86.9815 245.091C86.3421 242.98 86.6856 240.889 86.9815 239.049C89.314 224.834 90.2221 210.423 89.6919 196.028L94.4638 195.852C95.0044 210.562 94.0753 225.29 91.6913 239.816C91.4623 241.213 91.2141 242.675 91.5434 243.71C91.8345 244.663 92.6075 245.458 93.7575 246.416C102.967 254.103 114.186 258.105 125.443 257.777V257.729H126.588V257.777C137.85 258.115 149.063 254.103 158.273 246.416C159.423 245.463 160.182 244.667 160.487 243.71C160.807 242.656 160.568 241.213 160.339 239.816C157.95 225.29 157.017 210.563 157.553 195.852L162.324 196.028C161.794 210.423 162.702 224.834 165.035 239.049C165.34 240.893 165.684 242.98 165.035 245.091C164.367 247.303 162.849 248.794 161.313 250.081C151.087 258.615 138.57 263.018 126.001 262.532C125.371 262.537 124.736 262.566 124.107 262.566Z"
      fill="#385868" />
    <path
      d="M123.486 244.972C124.082 244.905 124.67 244.782 125.242 244.605C125.495 244.505 125.758 244.434 125.977 244.319C126.087 244.267 126.211 244.229 126.311 244.172L126.612 244.015C127.38 243.609 127.9 243.209 128.215 243.376C128.363 243.457 128.416 243.667 128.368 244.01C128.343 244.214 128.282 244.413 128.187 244.596C128.079 244.843 127.939 245.076 127.771 245.287C127.679 245.405 127.579 245.527 127.471 245.654C127.353 245.776 127.229 245.892 127.099 246.002C126.813 246.249 126.503 246.466 126.173 246.65C125.415 247.061 124.581 247.316 123.721 247.398C122.862 247.48 121.995 247.387 121.172 247.126C120.813 247.003 120.467 246.844 120.141 246.65C119.992 246.567 119.847 246.476 119.707 246.378C119.577 246.277 119.454 246.177 119.34 246.078C119.134 245.902 118.953 245.7 118.8 245.477C118.672 245.316 118.574 245.134 118.509 244.939C118.395 244.61 118.409 244.396 118.538 244.286C118.815 244.062 119.402 244.358 120.237 244.61L120.561 244.71C120.671 244.744 120.8 244.758 120.919 244.791C121.153 244.863 121.425 244.882 121.692 244.934C122.288 245.003 122.888 245.016 123.486 244.972Z"
      fill="#516D7B" />
    <path
      d="M125.538 39.495C133.474 39.9143 142.688 40.143 150.605 39.2424C157.338 38.4752 165.087 33.9577 171.739 36.3404C174.822 37.4411 177.346 39.9334 179.665 42.4875C184.523 47.8342 188.98 53.9242 191.323 61.1149C196.639 77.4693 190.135 95.8251 192.53 113.056L192.564 113.29C195.243 131.403 194.181 149.873 189.443 167.561L184.738 184.864C181.218 197.804 173.531 209.228 162.864 217.372C152.197 225.517 139.142 229.929 125.715 229.929C112.287 229.929 99.2322 225.517 88.5652 217.372C77.8982 209.228 70.2116 197.804 66.6914 184.864L61.9864 167.561C57.2498 149.868 56.191 131.393 58.8751 113.275L58.9085 113.042C61.2945 95.8203 54.8 77.4645 60.1158 61.1006C62.4588 53.8956 66.9205 47.8246 71.7735 42.4732C74.0926 39.9191 76.6217 37.4316 79.6995 36.3261C86.3515 33.9434 94.101 38.4609 100.834 39.2281C108.751 40.1287 117.97 39.9 125.901 39.4807"
      fill="#FFCDAA" />
    <path
      d="M191.643 97.3404C192.082 88.2864 193.427 79.1466 192.869 70.3547C192.425 79.2991 191.094 88.4341 191.643 97.3404Z"
      fill="#E0B698" />
    <path
      d="M57.6344 70.3547C57.0714 79.1466 58.4218 88.2816 58.8608 97.3404C59.4096 88.4341 58.0782 79.2991 57.6344 70.3547Z"
      fill="#E0B698" />
    <path
      d="M188.966 156.124L184.261 173.427C180.741 186.367 173.054 197.79 162.387 205.935C151.72 214.079 138.665 218.492 125.238 218.492C111.81 218.492 98.7551 214.079 88.0881 205.935C77.4211 197.79 69.7346 186.367 66.2144 173.427L61.5093 156.124C58.8915 146.447 57.3979 136.502 57.0571 126.484C56.5685 139.69 58.0693 152.894 61.5093 165.655L66.2144 182.957C69.7346 195.897 77.4211 207.321 88.0881 215.465C98.7551 223.61 111.81 228.022 125.238 228.022C138.665 228.022 151.72 223.61 162.387 215.465C173.054 207.321 180.741 195.897 184.261 182.957L188.966 165.655C192.405 152.894 193.906 139.69 193.418 126.484C193.077 136.502 191.584 146.447 188.966 156.124Z"
      fill="#E0B698" />
    <path
      d="M192.063 80.9384C175.452 63.6119 151.631 52.7614 125.171 52.7614C98.5818 52.7614 74.6604 63.7215 58.0448 81.1814C58.0019 75.6346 58.4886 70.1832 60.1921 64.9414C62.5351 57.7363 66.9968 51.6606 71.8546 46.3189C74.1737 43.7648 76.7028 41.2725 79.7806 40.1718C86.4326 37.7891 94.1773 42.3066 100.915 43.0738C108.779 43.9697 117.927 43.7505 125.82 43.3359C137.315 43.9649 148.997 44.5558 160.177 41.3869C160.759 41.2201 161.341 41.0438 161.919 40.858C163.768 40.2711 165.723 40.0912 167.649 40.3306C169.575 40.5699 171.426 41.2229 173.075 42.2446C174.952 43.5002 176.701 44.9367 178.296 46.5334C181.025 49.2256 183.903 51.9703 185.974 55.4299C190.397 62.8161 191.943 72.1465 192.063 80.9384Z"
      fill="#E0B698" />
    <path
      d="M95.7091 99.1168C94.4169 99.1311 93.1275 99.2312 91.8487 99.417C91.2236 99.4933 90.6223 99.6172 90.0211 99.7172C89.4198 99.8173 88.8472 99.9603 88.2841 100.118C86.2694 100.631 84.3015 101.312 82.4004 102.152C79.1078 103.582 77.1179 104.845 76.6742 104.359C76.469 104.135 76.698 103.515 77.3709 102.615C78.3572 101.383 79.5158 100.3 80.8114 99.398C82.7301 98.0237 84.8369 96.9324 87.0673 96.1576C87.6924 95.9193 88.3557 95.743 89.0285 95.5381C89.7014 95.3332 90.4076 95.1902 91.1281 95.0616C92.615 94.7785 94.1239 94.627 95.6375 94.6089C98.4797 94.6108 101.313 94.9301 104.084 95.5619C106.56 96.0909 108.727 96.6341 110.559 97.1535C114.214 98.1924 116.424 99.1406 116.319 99.7506C116.214 100.361 113.818 100.523 110.025 100.289C108.116 100.175 105.868 99.946 103.416 99.6553C100.862 99.306 98.2869 99.1259 95.7091 99.1168Z"
      fill="#E1B79B" />
    <path
      d="M156.369 94.4521C157.624 94.121 158.899 93.8741 160.187 93.7135C160.807 93.6182 161.423 93.5801 162.029 93.5181C162.635 93.4562 163.226 93.4371 163.809 93.4419C165.884 93.4019 167.959 93.5339 170.012 93.8374C173.567 94.3473 175.824 95.0287 176.125 94.4378C176.263 94.1662 175.877 93.6325 174.989 92.9415C173.71 92.0161 172.303 91.2794 170.814 90.7543C168.597 89.9404 166.275 89.4491 163.918 89.2961C163.25 89.2342 162.563 89.2389 161.862 89.2247C161.16 89.2104 160.43 89.2532 159.714 89.3295C158.206 89.4534 156.711 89.7102 155.248 90.0967C152.508 90.8539 149.863 91.9151 147.36 93.2608C145.117 94.4283 143.175 95.5291 141.543 96.5155C138.298 98.4883 136.423 99.9894 136.685 100.552C136.948 101.114 139.305 100.633 142.889 99.3937C144.678 98.779 146.802 97.9641 149.092 97.0111C151.458 95.9985 153.89 95.1436 156.369 94.4521Z"
      fill="#E1B79B" />
    <path
      d="M154.332 88.458C155.795 88.0734 157.29 87.818 158.798 87.6955C159.528 87.6193 160.23 87.6097 160.945 87.5907C161.661 87.5716 162.334 87.5907 163.002 87.6622C165.352 87.8142 167.667 88.3021 169.878 89.1108C171.368 89.6359 172.774 90.3726 174.054 91.298C174.941 91.9842 175.328 92.5227 175.189 92.7943C174.889 93.3852 172.632 92.7038 169.077 92.1939C167.023 91.8908 164.948 91.7584 162.873 91.7984C162.291 91.7984 161.699 91.8508 161.093 91.8746C160.487 91.8985 159.872 91.9747 159.251 92.07C157.964 92.2297 156.688 92.4746 155.434 92.8039C152.951 93.5001 150.516 94.3597 148.147 95.3771C145.861 96.3302 143.738 97.1307 141.944 97.7597C138.351 98.9939 135.998 99.4752 135.74 98.9129C135.483 98.3506 137.353 96.8496 140.598 94.8768C142.23 93.8903 144.172 92.7896 146.415 91.6221C148.927 90.2749 151.582 89.2132 154.332 88.458Z"
      fill="#385868" />
    <path
      d="M96.0624 96.6395C94.7702 96.6538 93.4808 96.7539 92.202 96.9397C91.5768 97.016 90.9756 97.1399 90.3743 97.2399C89.7731 97.34 89.2005 97.483 88.6374 97.6402C86.6227 98.1539 84.6548 98.8344 82.7537 99.675C79.4611 101.105 77.4712 102.367 77.0274 101.881C76.8222 101.657 77.0513 101.038 77.7241 100.137C78.7105 98.9054 79.8691 97.8223 81.1646 96.9207C83.0834 95.5464 85.1902 94.4551 87.4205 93.6803C88.0457 93.442 88.7089 93.2657 89.3818 93.0608C90.0546 92.8559 90.7609 92.713 91.4814 92.5843C92.9683 92.3012 94.4772 92.1497 95.9908 92.1316C98.8329 92.133 101.666 92.4528 104.437 93.0846C106.914 93.6136 109.08 94.1568 110.912 94.6762C114.568 95.7151 116.777 96.6634 116.672 97.2733C116.567 97.8833 114.172 98.0453 110.378 97.8118C108.469 97.6974 106.222 97.4687 103.769 97.178C101.215 96.8287 98.6402 96.6486 96.0624 96.6395Z"
      fill="#385868" />
    <path
      d="M125.252 232.311C111.308 232.287 97.7583 227.693 86.6828 219.234C75.6073 210.775 67.6183 198.92 63.943 185.488L59.2379 168.185C54.3992 150.439 53.3303 131.85 56.0503 112.937L56.0837 112.713C57.081 105.565 56.4655 97.9642 55.869 90.621C55.053 80.5568 54.2131 70.1304 57.3864 60.3759C59.4956 53.8951 63.356 47.7003 69.5499 40.8859C72.0551 38.1221 74.8896 35.363 78.4351 34.0954C83.5076 32.2751 88.9905 33.862 93.8148 35.2629C96.0452 35.9843 98.3304 36.523 100.648 36.8736C108.894 37.8266 118.571 37.4693 125.185 37.1214H125.319C131.932 37.4693 141.615 37.8123 149.856 36.8736C152.173 36.523 154.459 35.9843 156.689 35.2629C161.508 33.862 166.977 32.2751 172.064 34.0954C175.605 35.363 178.434 38.1221 180.959 40.8859C187.162 47.7003 191.013 53.8951 193.122 60.3759C196.3 70.1447 195.456 80.5568 194.64 90.621C194.043 97.969 193.427 105.565 194.425 112.717L194.458 112.941C197.178 131.85 196.114 150.439 191.285 168.185L186.58 185.488C182.904 198.922 174.912 210.78 163.832 219.24C152.753 227.699 139.199 232.291 125.252 232.311ZM83.4694 38.0316C82.3046 38.0213 81.147 38.2132 80.048 38.5986C77.6287 39.4659 75.5147 41.4244 73.0811 44.1025C67.3548 50.4022 63.8141 56.0443 61.9245 61.8627C59.0614 70.726 59.8105 80.2089 60.6265 90.2541C61.2421 97.8785 61.8768 105.717 60.8126 113.389L60.7792 113.632C58.1499 131.898 59.1807 149.848 63.8332 166.956L68.5383 184.258C71.9215 196.692 79.3084 207.669 89.5588 215.495C99.8092 223.321 112.354 227.561 125.257 227.561C138.16 227.561 150.704 223.321 160.954 215.495C171.205 207.669 178.592 196.692 181.975 184.258L186.68 166.956C191.333 149.839 192.363 131.902 189.734 113.637L189.701 113.389C188.632 105.722 189.271 97.8594 189.887 90.2588C190.698 80.2184 191.466 70.7213 188.589 61.8674C186.68 56.049 183.154 50.407 177.432 44.1073C174.999 41.4292 172.885 39.4707 170.465 38.6034C166.834 37.3025 162.558 38.5462 158.03 39.8566C155.538 40.6561 152.985 41.2474 150.395 41.6246C141.877 42.5776 132.028 42.2583 125.247 41.9057C118.466 42.2583 108.622 42.5919 100.099 41.6246C97.5097 41.2476 94.9558 40.6562 92.4644 39.8566C89.3102 38.9179 86.261 38.0316 83.4694 38.0316Z"
      fill="#385868" />
    <path
      d="M106.369 6.92397C105.611 3.11176 105.992 -0.0142469 106.369 4.88385e-05C106.746 0.0143446 107.047 3.02122 107.772 6.64758C108.498 10.2739 109.376 13.1712 108.994 13.3189C108.612 13.4667 107.109 10.7171 106.369 6.92397Z"
      fill="#385868" />
    <path
      d="M80.1959 8.71144C80.5261 7.86875 81.0825 7.13333 81.804 6.58614C82.3718 6.18585 82.8156 6.10961 82.9254 6.25733C83.1544 6.59567 82.1428 7.65355 81.5272 9.24992C80.9117 10.8463 80.8592 12.2901 80.4631 12.3759C80.277 12.4093 80.0145 12.0471 79.8857 11.3657C79.7416 10.4693 79.849 9.55065 80.1959 8.71144Z"
      fill="#385868" />
    <path
      d="M87.4635 7.12498C87.1997 5.70755 87.1997 4.25368 87.4635 2.83626C87.6878 1.75931 88.0123 1.14936 88.1984 1.18748C88.604 1.27325 88.3034 3.82743 88.8617 6.85813C89.42 9.88883 90.5366 12.1904 90.1835 12.4097C90.0213 12.5097 89.5059 12.0475 88.9285 11.1135C88.2013 9.88416 87.7045 8.5325 87.4635 7.12498Z"
      fill="#385868" />
    <path
      d="M199.464 86.7276C201.85 84.1925 203 81.5239 203.396 81.6621C203.572 81.7241 203.515 82.496 203.081 83.6492C201.864 86.6599 199.574 89.114 196.653 90.5398C195.532 91.0592 194.744 91.1736 194.692 91.0163C194.52 90.6208 197.102 89.277 199.464 86.7276Z"
      fill="#385868" />
    <path
      d="M202.804 58.212C203.594 58.2968 204.34 58.619 204.942 59.1365C205.391 59.5463 205.524 59.9275 205.419 60.0895C205.138 60.3802 204.059 59.7989 202.656 59.6559C201.253 59.5129 200.075 59.775 199.869 59.4224C199.779 59.2556 199.998 58.9173 200.533 58.6266C201.231 58.264 202.023 58.1196 202.804 58.212Z"
      fill="#385868" />
    <path
      d="M202.017 55.9632C202.663 55.3647 203.422 54.9015 204.25 54.6004C204.894 54.3859 205.338 54.3955 205.414 54.5718C205.567 54.9482 204.307 55.8012 202.981 57.0211C201.654 58.241 200.666 59.4037 200.309 59.2084C200.142 59.1131 200.175 58.6699 200.447 58.0552C200.825 57.2603 201.359 56.5489 202.017 55.9632Z"
      fill="#385868" />
    <path
      d="M46.6211 53.5001C44.9176 51.8942 43.0566 51.1985 43.1472 50.7982C43.1902 50.6171 43.7485 50.5457 44.6122 50.7649C45.7251 51.0875 46.7474 51.6645 47.598 52.4503C48.4488 53.2361 49.1044 54.2092 49.5129 55.2919C49.7992 56.1305 49.7706 56.6928 49.594 56.75C49.1932 56.8739 48.3581 55.0727 46.6211 53.5001Z"
      fill="#385868" />
    <path
      d="M46.4922 55.9818C46.0624 55.7068 45.6089 55.4709 45.137 55.2765C44.7446 55.1212 44.341 54.9949 43.9297 54.9001C43.2139 54.7333 42.7129 54.6809 42.6699 54.4759C42.627 54.271 43.0994 53.9994 43.9918 53.8898C44.5123 53.8465 45.0364 53.8898 45.5426 54.0185C46.7954 54.3368 47.9014 55.073 48.6778 56.1057C48.9913 56.5217 49.2332 56.9872 49.3935 57.4828C49.656 58.3358 49.5367 58.9124 49.3601 58.9124C49.1836 58.9124 48.9116 58.5074 48.4821 57.9117C48.2359 57.5743 47.9644 57.2555 47.6708 56.9586C47.308 56.5984 46.9135 56.2715 46.4922 55.9818Z"
      fill="#385868" />
    <path
      d="M200.561 71.2444C198.653 85.34 194.535 94.9516 192.64 109.047C189.577 95.8903 190.135 86.8078 185.005 74.2608C179.875 61.7139 170.551 49.958 157.376 45.86C151.65 44.0778 145.513 43.849 139.491 43.8014C131.618 43.741 123.752 44.0063 115.894 44.5972C108.307 45.169 100.476 46.0268 93.7624 49.5482C79.924 56.8152 74.465 73.079 70.1941 87.818C68.3236 94.2749 65.8995 102.409 64.0194 108.866L62.4017 113.117C60.4929 100.251 57.4246 84.4632 54.8574 69.8625C52.8766 58.6313 53.7999 47.081 57.5392 36.3056C60.7005 27.206 67.3253 19.7172 75.9781 15.4624C84.6309 11.2075 94.6141 10.5295 103.764 13.5754L129.532 6.62285C137.983 4.34136 146.849 4.05304 155.43 5.78064C164.011 7.50828 172.073 11.2045 178.978 16.5775L179.627 17.0826C187.707 23.3665 193.923 31.7261 197.61 41.2667C201.298 50.8072 202.318 61.1697 200.561 71.2444Z"
      fill="#CB9280" />
    <path opacity="0.5"
      d="M177.718 16.6114L177.069 16.1062C167.512 8.6733 155.815 4.50668 143.705 4.22168C152.562 5.87638 160.893 9.62468 168.003 15.1532L168.652 15.6583C176.731 21.9418 182.946 30.3006 186.634 39.8402C190.321 49.3799 191.342 59.7411 189.586 69.8153C188.87 74.9174 187.866 79.9748 186.58 84.964C188.245 92.5265 188.656 99.6029 190.741 108.566C192.65 94.4707 196.768 84.8592 198.662 70.7636C200.416 60.6893 199.393 50.3282 195.704 40.7896C192.015 31.2509 185.798 22.8934 177.718 16.6114Z"
      fill="#805872" />
    <path
      d="M100.467 12.8894C97.4842 17.8786 93.2468 22.2388 88.8901 26.1654C82.2381 32.1744 74.9515 37.7354 70.0842 45.2693C63.3272 55.7054 61.972 68.7765 62.7737 81.1805C63.1803 87.6632 64.1089 94.1029 65.5509 100.437C64.6872 103.382 63.8378 106.27 63.0791 108.886L61.4614 113.141C59.5527 100.251 56.4844 84.4876 53.9171 69.8868C51.9359 58.6556 52.8587 47.105 56.5989 36.3297C59.6109 27.6242 65.8024 20.375 73.9356 16.0318C82.0687 11.6885 91.5442 10.5713 100.467 12.9036V12.8894Z"
      fill="#D39C8D" />
    <path
      d="M98.9208 124.998C103.696 124.998 107.567 121.132 107.567 116.363C107.567 111.594 103.696 107.728 98.9208 107.728C94.1456 107.728 90.2742 111.594 90.2742 116.363C90.2742 121.132 94.1456 124.998 98.9208 124.998Z"
      fill="#385868" />
    <path
      d="M153.63 124.998C158.406 124.998 162.277 121.132 162.277 116.363C162.277 111.594 158.406 107.728 153.63 107.728C148.855 107.728 144.983 111.594 144.983 116.363C144.983 121.132 148.855 124.998 153.63 124.998Z"
      fill="#385868" />
    <path
      d="M150.628 115.482C151.799 115.482 152.747 114.534 152.747 113.366C152.747 112.198 151.799 111.25 150.628 111.25C149.458 111.25 148.51 112.198 148.51 113.366C148.51 114.534 149.458 115.482 150.628 115.482Z"
      fill="white" />
    <path
      d="M95.9192 115.482C97.0893 115.482 98.0379 114.534 98.0379 113.366C98.0379 112.198 97.0893 111.25 95.9192 111.25C94.7492 111.25 93.8005 112.198 93.8005 113.366C93.8005 114.534 94.7492 115.482 95.9192 115.482Z"
      fill="white" />
    <path
      d="M59.0041 122.525L57.668 113.471C56.3653 104.636 54.4661 94.2239 52.6337 84.1549C51.7986 79.5755 50.9349 74.834 50.1333 70.2832C48.0914 58.6526 49.0467 46.6945 52.9105 35.5348C56.2365 25.9613 63.1638 18.0571 72.2255 13.4966C81.2868 8.93613 91.7701 8.07772 101.455 11.1033L126.536 4.33185C135.345 1.97744 144.58 1.68831 153.52 3.48703C162.46 5.28575 170.862 9.12364 178.072 14.701L178.721 15.2062C187.144 21.7426 193.626 30.446 197.471 40.3825C201.316 50.3192 202.38 61.1134 200.547 71.6079C199.593 78.7558 198.037 84.8506 196.539 90.7309C195.074 96.4921 193.556 102.449 192.631 109.363L190.875 122.277L187.93 109.601C186.78 104.655 186.136 100.328 185.516 96.1395C184.499 89.2966 183.54 82.8349 180.424 75.1724C174.808 61.4103 165.283 51.5605 154.293 48.1486C148.749 46.4281 142.76 46.2423 137.115 46.1994C129.341 46.1375 121.473 46.4043 113.733 46.9904C106.479 47.5337 98.8635 48.344 92.536 51.6749C79.7427 58.3748 74.4411 73.5379 70.113 88.4913C69.1587 91.7221 68.0993 95.3723 67.0257 99.0225C65.952 102.673 64.8974 106.313 63.943 109.539L63.881 109.725L59.0041 122.525ZM89.7731 14.0768C82.6554 14.0918 75.7185 16.3158 69.9222 20.441C64.1258 24.5663 59.7567 30.3887 57.4199 37.1025C53.8209 47.4954 52.931 58.6321 54.8335 69.4636C55.6304 74.0049 56.4941 78.7368 57.3292 83.3067C58.5365 89.9351 59.7724 96.7113 60.8509 103.102L62.4447 97.6882C63.5183 94.0476 64.592 90.4021 65.5273 87.2046C70.1465 71.2267 75.8727 55.0296 90.2789 47.4527C97.4367 43.7024 105.587 42.8161 113.341 42.2109C121.224 41.62 129.232 41.3484 137.134 41.4103C143.151 41.458 149.541 41.6629 155.711 43.5737C168.065 47.4098 178.682 58.2652 184.819 73.352C188.159 81.5292 189.157 88.2673 190.216 95.4056L190.292 95.9346C190.808 93.7521 191.347 91.6459 191.881 89.5396C193.346 83.7784 194.864 77.8218 195.79 70.9075V70.8169C197.484 61.1682 196.513 51.2412 192.982 42.1025C189.451 32.9636 183.493 24.9583 175.748 18.9469L175.127 18.4608C168.506 13.3362 160.787 9.8096 152.575 8.15634C144.363 6.50308 135.879 6.76798 127.786 8.93032L101.326 16.0782L100.643 15.8495C97.139 14.6786 93.4685 14.0801 89.7731 14.0768Z"
      fill="#385868" />
    <path opacity="0.4"
      d="M97.8519 131.841C106.438 131.841 113.399 124.89 113.399 116.316C113.399 107.742 106.438 100.791 97.8519 100.791C89.2659 100.791 82.3052 107.742 82.3052 116.316C82.3052 124.89 89.2659 131.841 97.8519 131.841Z"
      fill="#B5E5F7" />
    <path opacity="0.5"
      d="M106.851 104.655L101.163 131.697C98.7556 132.35 96.226 132.418 93.7861 131.898L100.18 101.5C102.627 101.997 104.916 103.08 106.851 104.655Z"
      fill="white" />
    <path opacity="0.5"
      d="M97.117 101.977L90.8133 131.902C89.649 131.432 88.5462 130.82 87.5303 130.082L93.3758 102.329C94.4547 102.098 95.5551 101.981 96.6588 101.981L97.117 101.977Z"
      fill="white" />
    <path
      d="M97.8519 134.228C94.305 134.228 90.8382 133.178 87.8892 131.21C84.9402 129.242 82.6416 126.445 81.2845 123.173C79.9269 119.901 79.5719 116.3 80.2638 112.826C80.9557 109.352 82.6635 106.161 85.1716 103.657C87.6797 101.153 90.875 99.4472 94.3532 98.7562C97.8319 98.0653 101.437 98.4198 104.714 99.775C107.991 101.13 110.792 103.426 112.763 106.371C114.733 109.316 115.785 112.778 115.785 116.32C115.778 121.067 113.887 125.618 110.525 128.976C107.164 132.333 102.606 134.221 97.8519 134.228ZM97.8519 103.173C95.2489 103.173 92.7045 103.943 90.54 105.388C88.3759 106.831 86.6891 108.884 85.6927 111.286C84.6968 113.687 84.4363 116.33 84.944 118.879C85.4517 121.428 86.7053 123.77 88.5458 125.608C90.3863 127.446 92.7312 128.698 95.2842 129.205C97.8371 129.712 100.484 129.452 102.888 128.457C105.293 127.463 107.348 125.778 108.795 123.617C110.241 121.456 111.013 118.914 111.013 116.315C111.009 112.83 109.621 109.49 107.154 107.026C104.687 104.562 101.341 103.176 97.8519 103.173Z"
      fill="#385868" />
    <path opacity="0.4"
      d="M153.682 131.841C162.268 131.841 169.229 124.89 169.229 116.316C169.229 107.742 162.268 100.791 153.682 100.791C145.096 100.791 138.136 107.742 138.136 116.316C138.136 124.89 145.096 131.841 153.682 131.841Z"
      fill="#B5E5F7" />
    <path opacity="0.5"
      d="M162.682 104.655L156.994 131.697C154.586 132.35 152.057 132.418 149.617 131.898L156.011 101.5C158.458 101.997 160.747 103.08 162.682 104.655Z"
      fill="white" />
    <path opacity="0.5"
      d="M152.948 101.977L146.644 131.902C145.48 131.432 144.377 130.82 143.361 130.082L149.207 102.329C150.286 102.098 151.386 101.981 152.49 101.981L152.948 101.977Z"
      fill="white" />
    <path
      d="M153.683 134.228C150.136 134.228 146.669 133.178 143.72 131.21C140.771 129.242 138.472 126.445 137.115 123.173C135.758 119.901 135.403 116.3 136.095 112.826C136.787 109.352 138.494 106.161 141.002 103.657C143.511 101.153 146.706 99.4472 150.184 98.7562C153.663 98.0653 157.268 98.4198 160.545 99.775C163.822 101.13 166.623 103.426 168.593 106.371C170.564 109.316 171.615 112.778 171.615 116.32C171.609 121.067 169.718 125.618 166.356 128.976C162.995 132.333 158.437 134.221 153.683 134.228ZM153.683 103.173C151.08 103.173 148.535 103.943 146.371 105.388C144.207 106.831 142.52 108.884 141.524 111.286C140.528 113.687 140.267 116.33 140.775 118.879C141.283 121.428 142.536 123.77 144.377 125.608C146.217 127.446 148.562 128.698 151.115 129.205C153.668 129.712 156.314 129.452 158.719 128.457C161.124 127.463 163.179 125.778 164.626 123.617C166.071 121.456 166.844 118.914 166.844 116.315C166.84 112.83 165.452 109.49 162.985 107.026C160.517 104.562 157.172 103.176 153.683 103.173Z"
      fill="#385868" />
    <path d="M138.136 110.988H113.866V115.753H138.136V110.988Z" fill="#385868" />
    <path d="M128.592 124.617H123.82V161.786H128.592V124.617Z" fill="#385868" />
    <path
      d="M101.416 193.831C116.262 202.728 136.766 202.475 151.626 193.779C154.012 192.382 151.85 188.675 149.459 190.076C135.893 198.015 117.14 198.248 103.583 190.128C101.197 188.699 99.0447 192.411 101.416 193.831Z"
      fill="#385868" />
    <path d="M133.455 203.72H119.378V205.15H133.455V203.72Z" fill="#385868" />
    <path
      d="M142.149 36.3584C146.098 36.8492 149.999 37.6685 153.811 38.8077C156.929 39.7376 159.962 40.93 162.878 42.3721C164.843 43.3432 166.733 44.4582 168.533 45.7078C169.797 46.5989 170.441 47.1374 170.398 47.2232C170.279 47.4042 167.492 45.4171 162.511 43.1727C159.593 41.8659 156.583 40.7749 153.506 39.9085C149.736 38.8486 145.892 38.0728 142.006 37.5878C133.722 36.5633 126.12 36.792 120.647 37.0827C115.174 37.3734 111.776 37.7165 111.752 37.5306C111.752 37.4496 112.578 37.2638 114.1 37.0207C115.622 36.7777 117.836 36.4823 120.585 36.2249C127.757 35.496 134.986 35.5407 142.149 36.3584Z"
      fill="#BC887A" />
    <path
      d="M132.505 32.4615C136.484 32.5314 140.451 32.9331 144.363 33.6623C147.559 34.2567 150.699 35.1207 153.749 36.2451C155.805 36.996 157.802 37.8975 159.724 38.9422C161.074 39.6952 161.78 40.186 161.742 40.2479C161.642 40.4385 158.66 38.7612 153.468 37.0552C150.428 36.0647 147.32 35.2986 144.168 34.7631C140.307 34.1095 136.402 33.7462 132.486 33.6766C124.14 33.5337 116.605 34.5677 111.194 35.4398C105.783 36.3118 102.438 37.0123 102.399 36.8312C102.399 36.7502 103.192 36.4786 104.68 36.0736C106.169 35.6685 108.34 35.1205 111.041 34.5916C118.098 33.1136 125.295 32.3994 132.505 32.4615Z"
      fill="#BC887A" />
    <path
      d="M61.7431 35.335C62.9747 33.0344 64.4688 30.8836 66.1953 28.9258C67.6187 27.3227 69.2722 25.9386 71.1007 24.8181C72.3362 24.0695 73.6733 23.5029 75.0709 23.136C76.0635 22.912 76.6266 22.8739 76.6409 22.9501C76.7029 23.1693 74.4697 23.5696 71.5636 25.5424C69.8815 26.7143 68.3588 28.0999 67.0351 29.6644C65.4155 31.5985 63.9988 33.6935 62.8072 35.9164C61.5909 38.1339 60.5568 40.4463 59.7151 42.8308C59.0308 44.7708 58.5512 46.7767 58.2835 48.8159C58.1065 50.1935 58.0554 51.5845 58.1308 52.9712C58.1738 53.9576 58.231 54.5152 58.1308 54.5294C58.0306 54.5437 57.8493 54.0196 57.6536 53.0236C57.3912 51.6103 57.3124 50.1688 57.4198 48.7349C57.573 46.6074 57.9848 44.5064 58.6462 42.4782C59.4517 40.0053 60.4886 37.6137 61.7431 35.335Z"
      fill="#BC887A" />
    <path
      d="M152.127 12.5663C154.159 13.3066 156.119 14.2318 157.982 15.3302C158.822 15.8639 159.633 16.3547 160.33 16.898C160.683 17.1648 161.036 17.4031 161.351 17.6652L162.253 18.4276C162.767 18.8647 163.26 19.3276 163.727 19.8143C163.937 20.024 164.133 20.2193 164.305 20.4052L164.753 20.9389C165.288 21.587 165.55 21.9682 165.488 22.0254C165.34 22.1636 164.057 20.8579 161.709 19.0995L160.783 18.4181C160.463 18.1846 160.105 17.9701 159.748 17.7271C159.041 17.2506 158.24 16.7741 157.409 16.2975C153.756 14.2508 149.782 12.8346 145.656 12.1089C144.702 11.9659 143.8 11.7991 142.941 11.7372C142.512 11.6991 142.101 11.6371 141.705 11.6181L140.56 11.5609C137.635 11.4465 135.788 11.6371 135.788 11.437C135.788 11.356 136.222 11.2225 137.043 11.0605L137.73 10.9319C137.983 10.8937 138.26 10.8699 138.556 10.8413C139.226 10.7614 139.9 10.7152 140.574 10.7031H141.753C142.163 10.7031 142.588 10.7365 143.032 10.7555C143.919 10.7555 144.855 10.908 145.842 11.0272C147.98 11.3471 150.084 11.8623 152.127 12.5663Z"
      fill="#BC887A" />
    <path
      d="M74.9993 51.4072C76.2157 49.7527 77.6506 48.2697 79.2654 46.9994C80.5857 45.9574 82.0497 45.1116 83.6125 44.4881C84.6609 44.0649 85.7623 43.786 86.886 43.6589C87.6782 43.5827 88.1219 43.6256 88.1267 43.7018C88.1553 43.9115 86.4136 44.0878 83.9561 45.2791C82.5269 45.9797 81.1889 46.8519 79.9716 47.8761C78.4799 49.1327 77.1424 50.5609 75.9871 52.1315C73.5248 55.5005 71.9739 59.0173 70.8287 61.5429C69.6835 64.0685 68.9724 65.6553 68.8102 65.5933C68.648 65.5314 69.0965 63.8635 70.0318 61.2236C71.2114 57.7321 72.8839 54.4264 74.9993 51.4072Z"
      fill="#BC887A" />
    <path
      d="M77.5762 43.8413C78.5716 43.2286 79.6328 42.7299 80.7399 42.3545C81.2238 42.1963 81.7158 42.0659 82.2144 41.9638C82.6453 41.8684 83.0824 41.8015 83.5219 41.7636C85.1396 41.6159 86.1273 41.8351 86.1226 41.9828C86.1178 42.1306 85.1682 42.2592 83.6651 42.6119C83.2929 42.7024 82.8873 42.7977 82.4673 42.9407C82.0474 43.0836 81.5941 43.2361 81.1264 43.4172C79.1055 44.2138 77.2498 45.377 75.6531 46.8482C75.2952 47.196 74.9421 47.5153 74.6462 47.8536C74.3504 48.192 74.0688 48.4922 73.8255 48.8067C72.8711 49.9885 72.3605 50.8224 72.1887 50.7414C72.0169 50.6604 72.2842 49.6978 73.1431 48.3063C73.3593 47.9142 73.6017 47.5369 73.8684 47.177C74.1767 46.7724 74.5083 46.3857 74.861 46.019C75.6817 45.194 76.5922 44.4635 77.5762 43.8413Z"
      fill="#BC887A" />
    <path
      d="M188.116 53.9274C188.322 51.2736 188.261 48.6065 187.935 45.9647C187.73 43.9061 187.639 42.629 187.811 42.5814C187.983 42.5337 188.36 43.787 188.765 45.8361C189.357 48.5336 189.538 51.3046 189.305 54.056C189.142 55.5924 188.767 57.0982 188.188 58.5306C187.717 59.7043 187.074 60.8013 186.279 61.7853C184.891 63.4627 183.631 64.0202 183.564 63.9011C183.497 63.7819 184.475 62.948 185.587 61.2706C186.999 59.0567 187.866 56.5402 188.116 53.9274Z"
      fill="#BC887A" />
    <path
      d="M185.392 43.4071C185.207 42.4268 184.967 41.4578 184.671 40.5051C184.385 39.6235 184.094 38.842 183.812 38.194C183.263 36.8931 182.858 36.0972 183.001 35.9924C183.144 35.8875 183.798 36.5404 184.576 37.7985C185.027 38.5399 185.412 39.3197 185.726 40.1286C186.501 42.1223 186.884 44.2469 186.852 46.3854C186.839 47.2541 186.75 48.1201 186.585 48.9731C186.293 50.4265 185.888 51.2556 185.74 51.2175C185.592 51.1794 185.668 50.2645 185.74 48.873C185.778 48.1678 185.778 47.3289 185.74 46.4045C185.682 45.3995 185.566 44.3987 185.392 43.4071Z"
      fill="#BC887A" />
    <path
      d="M126.192 173.117C125.874 173.117 125.556 173.106 125.238 173.084C119.115 172.645 115.279 168.042 115.116 167.842L117.698 165.726C117.727 165.764 120.833 169.438 125.51 169.758C128.735 169.972 132.037 168.566 135.325 165.559L137.582 168.018C133.894 171.406 130.062 173.117 126.192 173.117Z"
      fill="#385868" />
    <path d="M90.4171 247.084H85.6453V405.291H90.4171V247.084Z" fill="#385868" />
    <path d="M165.336 245.178H160.564V405.291H165.336V245.178Z" fill="#385868" />
  </g>
  <defs>
    <clipPath id="clip0_7_906">
      <rect width="251" height="406" fill="white" />
    </clipPath>
  </defs>
</svg>