<svg width="46" height="234" viewBox="0 0 46 234" fill="none" xmlns="http://www.w3.org/2000/svg">
  <path
    d="M21.9393 232.061C22.5251 232.646 23.4749 232.646 24.0607 232.061L33.6066 222.515C34.1924 221.929 34.1924 220.979 33.6066 220.393C33.0208 219.808 32.0711 219.808 31.4853 220.393L23 228.879L14.5147 220.393C13.9289 219.808 12.9792 219.808 12.3934 220.393C11.8076 220.979 11.8076 221.929 12.3934 222.515L21.9393 232.061ZM21.5 0V3.03947H24.5V0L21.5 0ZM21.5 9.11842V15.1974H24.5V9.11842H21.5ZM21.5 21.2763V27.3553H24.5V21.2763H21.5ZM21.5 33.4342V39.5132H24.5V33.4342H21.5ZM21.5 45.5921V51.6711H24.5V45.5921H21.5ZM21.5 57.75V63.829H24.5V57.75H21.5ZM21.5 69.9079V75.9869H24.5V69.9079H21.5ZM21.5 82.0658L21.5 88.1448H24.5L24.5 82.0658H21.5ZM21.5 94.2237V100.303H24.5V94.2237H21.5ZM21.5 106.382V112.461H24.5V106.382H21.5ZM21.5 118.54V124.618H24.5V118.54H21.5ZM21.5 130.697V136.776H24.5V130.697H21.5ZM21.5 142.855L21.5 148.934H24.5L24.5 142.855H21.5ZM21.5 155.013V161.092H24.5V155.013H21.5ZM21.5 167.171V173.25H24.5V167.171H21.5ZM21.5 179.329V185.408H24.5V179.329H21.5ZM21.5 191.487V197.566H24.5V191.487H21.5ZM21.5 203.645V209.724H24.5V203.645H21.5ZM21.5 215.803V221.882H24.5V215.803H21.5ZM21.5 227.961V231H24.5V227.961H21.5ZM20.8787 233.121C22.0503 234.293 23.9497 234.293 25.1213 233.121L44.2132 214.029C45.3848 212.858 45.3848 210.958 44.2132 209.787C43.0416 208.615 41.1421 208.615 39.9706 209.787L23 226.757L6.02944 209.787C4.85786 208.615 2.95837 208.615 1.7868 209.787C0.615223 210.958 0.615223 212.858 1.7868 214.029L20.8787 233.121ZM20 0V3.03947H26V0L20 0ZM20 9.11842V15.1974H26V9.11842H20ZM20 21.2763V27.3553H26V21.2763H20ZM20 33.4342V39.5132H26V33.4342H20ZM20 45.5921V51.6711H26V45.5921H20ZM20 57.75V63.829H26V57.75H20ZM20 69.9079V75.9869H26V69.9079H20ZM20 82.0658L20 88.1448H26L26 82.0658H20ZM20 94.2237V100.303H26V94.2237H20ZM20 106.382V112.461H26V106.382H20ZM20 118.54V124.618H26V118.54H20ZM20 130.697V136.776H26V130.697H20ZM20 142.855L20 148.934H26L26 142.855H20ZM20 155.013V161.092H26V155.013H20ZM20 167.171V173.25H26V167.171H20ZM20 179.329V185.408H26V179.329H20ZM20 191.487V197.566H26V191.487H20ZM20 203.645V209.724H26V203.645H20ZM20 215.803V221.882H26V215.803H20ZM20 227.961V231H26V227.961H20Z"
    fill="black" fill-opacity="0.2" />
</svg>