<svg width="293" height="151" viewBox="0 0 293 151" fill="none" xmlns="http://www.w3.org/2000/svg">
  <path
    d="M1.58942 137.49C1.30764 138.269 1.71075 139.129 2.48978 139.411L15.1849 144.002C15.9639 144.284 16.8239 143.881 17.1056 143.102C17.3874 142.323 16.9843 141.463 16.2053 141.181L4.92075 137.1L9.00239 125.815C9.28417 125.036 8.88106 124.176 8.10203 123.894C7.323 123.613 6.46305 124.016 6.18127 124.795L1.58942 137.49ZM290.363 1.64181L287.697 2.89181L288.97 5.60819L291.637 4.35819L290.363 1.64181ZM282.363 5.39181L277.03 7.89181L278.303 10.6082L283.637 8.10819L282.363 5.39181ZM271.697 10.3918L266.363 12.8918L267.637 15.6082L272.97 13.1082L271.697 10.3918ZM261.03 15.3918L255.697 17.8918L256.97 20.6082L262.303 18.1082L261.03 15.3918ZM250.363 20.3918L245.03 22.8918L246.303 25.6082L251.637 23.1082L250.363 20.3918ZM239.697 25.3918L234.363 27.8918L235.637 30.6082L240.97 28.1082L239.697 25.3918ZM229.03 30.3918L223.697 32.8918L224.97 35.6082L230.303 33.1082L229.03 30.3918ZM218.363 35.3918L213.03 37.8918L214.303 40.6082L219.637 38.1082L218.363 35.3918ZM207.697 40.3918L202.363 42.8918L203.637 45.6082L208.97 43.1082L207.697 40.3918ZM197.03 45.3918L191.697 47.8918L192.97 50.6082L198.303 48.1082L197.03 45.3918ZM186.363 50.3918L181.03 52.8918L182.303 55.6082L187.637 53.1082L186.363 50.3918ZM175.697 55.3918L170.363 57.8918L171.637 60.6082L176.97 58.1082L175.697 55.3918ZM165.03 60.3918L159.697 62.8918L160.97 65.6082L166.303 63.1082L165.03 60.3918ZM154.363 65.3918L149.03 67.8918L150.303 70.6082L155.637 68.1082L154.363 65.3918ZM143.697 70.3918L138.363 72.8918L139.637 75.6082L144.97 73.1082L143.697 70.3918ZM133.03 75.3918L127.697 77.8918L128.97 80.6082L134.303 78.1082L133.03 75.3918ZM122.363 80.3918L117.03 82.8918L118.303 85.6082L123.637 83.1082L122.363 80.3918ZM111.697 85.3918L106.363 87.8918L107.637 90.6082L112.97 88.1082L111.697 85.3918ZM101.03 90.3918L95.6967 92.8918L96.97 95.6082L102.303 93.1082L101.03 90.3918ZM90.3634 95.3918L85.03 97.8918L86.3033 100.608L91.6367 98.1082L90.3634 95.3918ZM79.6967 100.392L74.3634 102.892L75.6367 105.608L80.97 103.108L79.6967 100.392ZM69.03 105.392L63.6967 107.892L64.97 110.608L70.3033 108.108L69.03 105.392ZM58.3634 110.392L53.03 112.892L54.3033 115.608L59.6367 113.108L58.3634 110.392ZM47.6967 115.392L42.3634 117.892L43.6367 120.608L48.97 118.108L47.6967 115.392ZM37.03 120.392L31.6967 122.892L32.97 125.608L38.3033 123.108L37.03 120.392ZM26.3634 125.392L21.03 127.892L22.3033 130.608L27.6367 128.108L26.3634 125.392ZM15.6967 130.392L10.3634 132.892L11.6367 135.608L16.97 133.108L15.6967 130.392ZM5.03003 135.392L2.36334 136.642L3.63664 139.358L6.30333 138.108L5.03003 135.392ZM0.178873 136.98C-0.384708 138.538 0.421502 140.258 1.97959 140.821L27.3697 150.005C28.9278 150.568 30.6477 149.762 31.2113 148.204C31.7748 146.646 30.9686 144.926 29.4106 144.363L6.84153 136.199L15.0048 113.63C15.5683 112.072 14.7621 110.352 13.2041 109.789C11.646 109.225 9.92611 110.031 9.36253 111.589L0.178873 136.98ZM289.727 0.283623L287.06 1.53362L289.607 6.96638L292.273 5.71638L289.727 0.283623ZM281.727 4.03362L276.393 6.53362L278.94 11.9664L284.273 9.46638L281.727 4.03362ZM271.06 9.03362L265.727 11.5336L268.273 16.9664L273.607 14.4664L271.06 9.03362ZM260.393 14.0336L255.06 16.5336L257.607 21.9664L262.94 19.4664L260.393 14.0336ZM249.727 19.0336L244.393 21.5336L246.94 26.9664L252.273 24.4664L249.727 19.0336ZM239.06 24.0336L233.727 26.5336L236.273 31.9664L241.607 29.4664L239.06 24.0336ZM228.393 29.0336L223.06 31.5336L225.607 36.9664L230.94 34.4664L228.393 29.0336ZM217.727 34.0336L212.393 36.5336L214.94 41.9664L220.273 39.4664L217.727 34.0336ZM207.06 39.0336L201.727 41.5336L204.273 46.9664L209.607 44.4664L207.06 39.0336ZM196.393 44.0336L191.06 46.5336L193.607 51.9664L198.94 49.4664L196.393 44.0336ZM185.727 49.0336L180.393 51.5336L182.94 56.9664L188.273 54.4664L185.727 49.0336ZM175.06 54.0336L169.727 56.5336L172.273 61.9664L177.607 59.4664L175.06 54.0336ZM164.393 59.0336L159.06 61.5336L161.607 66.9664L166.94 64.4664L164.393 59.0336ZM153.727 64.0336L148.393 66.5336L150.94 71.9664L156.273 69.4664L153.727 64.0336ZM143.06 69.0336L137.727 71.5336L140.273 76.9664L145.607 74.4664L143.06 69.0336ZM132.393 74.0336L127.06 76.5336L129.607 81.9664L134.94 79.4664L132.393 74.0336ZM121.727 79.0336L116.393 81.5336L118.94 86.9664L124.273 84.4664L121.727 79.0336ZM111.06 84.0336L105.727 86.5336L108.273 91.9664L113.607 89.4664L111.06 84.0336ZM100.393 89.0336L95.06 91.5336L97.6067 96.9664L102.94 94.4664L100.393 89.0336ZM89.7267 94.0336L84.3934 96.5336L86.94 101.966L92.2733 99.4664L89.7267 94.0336ZM79.0601 99.0336L73.7267 101.534L76.2733 106.966L81.6067 104.466L79.0601 99.0336ZM68.3934 104.034L63.0601 106.534L65.6067 111.966L70.94 109.466L68.3934 104.034ZM57.7267 109.034L52.3934 111.534L54.94 116.966L60.2733 114.466L57.7267 109.034ZM47.06 114.034L41.7267 116.534L44.2733 121.966L49.6066 119.466L47.06 114.034ZM36.3934 119.034L31.06 121.534L33.6066 126.966L38.94 124.466L36.3934 119.034ZM25.7267 124.034L20.3934 126.534L22.94 131.966L28.2733 129.466L25.7267 124.034ZM15.06 129.034L9.72672 131.534L12.2733 136.966L17.6067 134.466L15.06 129.034ZM4.39338 134.034L1.72669 135.284L4.27329 140.716L6.93999 139.466L4.39338 134.034Z"
    fill="black" fill-opacity="0.2" />
</svg>