<svg width="257" height="149" viewBox="0 0 257 149" fill="none" xmlns="http://www.w3.org/2000/svg">
  <path
    d="M254.434 139.436C255.227 139.196 255.676 138.359 255.436 137.566L251.529 124.644C251.289 123.851 250.452 123.402 249.659 123.642C248.866 123.882 248.418 124.719 248.657 125.512L252.13 136.998L240.644 140.471C239.851 140.711 239.402 141.548 239.642 142.341C239.882 143.134 240.719 143.582 241.512 143.343L254.434 139.436ZM1.29167 4.32222L3.91667 5.72847L5.33333 3.08403L2.70833 1.67778L1.29167 4.32222ZM9.16667 8.54097L14.4167 11.3535L15.8333 8.70903L10.5833 5.89653L9.16667 8.54097ZM19.6667 14.166L24.9167 16.9785L26.3333 14.334L21.0833 11.5215L19.6667 14.166ZM30.1667 19.791L35.4167 22.6035L36.8333 19.959L31.5833 17.1465L30.1667 19.791ZM40.6667 25.416L45.9167 28.2285L47.3333 25.584L42.0833 22.7715L40.6667 25.416ZM51.1667 31.041L56.4167 33.8535L57.8333 31.209L52.5833 28.3965L51.1667 31.041ZM61.6667 36.666L66.9167 39.4785L68.3333 36.834L63.0833 34.0215L61.6667 36.666ZM72.1667 42.291L77.4167 45.1035L78.8333 42.459L73.5833 39.6465L72.1667 42.291ZM82.6667 47.916L87.9167 50.7285L89.3334 48.084L84.0833 45.2715L82.6667 47.916ZM93.1667 53.541L98.4167 56.3535L99.8334 53.709L94.5834 50.8965L93.1667 53.541ZM103.667 59.166L108.917 61.9785L110.333 59.334L105.083 56.5215L103.667 59.166ZM114.167 64.791L119.417 67.6035L120.833 64.959L115.583 62.1465L114.167 64.791ZM124.667 70.416L129.917 73.2285L131.333 70.584L126.083 67.7715L124.667 70.416ZM135.167 76.041L140.417 78.8535L141.833 76.209L136.583 73.3965L135.167 76.041ZM145.667 81.666L150.917 84.4785L152.333 81.834L147.083 79.0215L145.667 81.666ZM156.167 87.291L161.417 90.1035L162.833 87.459L157.583 84.6465L156.167 87.291ZM166.667 92.916L171.917 95.7284L173.333 93.084L168.083 90.2715L166.667 92.916ZM177.167 98.5409L182.417 101.353L183.833 98.709L178.583 95.8965L177.167 98.5409ZM187.667 104.166L192.917 106.978L194.333 104.334L189.083 101.522L187.667 104.166ZM198.167 109.791L203.417 112.603L204.833 109.959L199.583 107.146L198.167 109.791ZM208.667 115.416L213.917 118.228L215.333 115.584L210.083 112.771L208.667 115.416ZM219.167 121.041L224.417 123.853L225.833 121.209L220.583 118.396L219.167 121.041ZM229.667 126.666L234.917 129.478L236.333 126.834L231.083 124.021L229.667 126.666ZM240.167 132.291L245.417 135.103L246.833 132.459L241.583 129.646L240.167 132.291ZM250.667 137.916L253.292 139.322L254.708 136.678L252.083 135.272L250.667 137.916ZM254.868 140.872C256.454 140.392 257.351 138.718 256.872 137.132L249.058 111.287C248.579 109.701 246.904 108.804 245.318 109.284C243.732 109.763 242.835 111.438 243.315 113.023L250.26 135.997L227.287 142.942C225.701 143.421 224.804 145.096 225.284 146.682C225.763 148.268 227.437 149.165 229.023 148.685L254.868 140.872ZM0.583336 5.64444L3.20834 7.05069L6.04166 1.76181L3.41666 0.35556L0.583336 5.64444ZM8.45834 9.86319L13.7083 12.6757L16.5417 7.38681L11.2917 4.57431L8.45834 9.86319ZM18.9583 15.4882L24.2083 18.3007L27.0417 13.0118L21.7917 10.1993L18.9583 15.4882ZM29.4583 21.1132L34.7083 23.9257L37.5417 18.6368L32.2917 15.8243L29.4583 21.1132ZM39.9583 26.7382L45.2083 29.5507L48.0417 24.2618L42.7917 21.4493L39.9583 26.7382ZM50.4583 32.3632L55.7083 35.1757L58.5417 29.8868L53.2917 27.0743L50.4583 32.3632ZM60.9583 37.9882L66.2083 40.8007L69.0417 35.5118L63.7917 32.6993L60.9583 37.9882ZM71.4583 43.6132L76.7084 46.4257L79.5417 41.1368L74.2917 38.3243L71.4583 43.6132ZM81.9583 49.2382L87.2084 52.0507L90.0417 46.7618L84.7917 43.9493L81.9583 49.2382ZM92.4584 54.8632L97.7084 57.6757L100.542 52.3868L95.2917 49.5743L92.4584 54.8632ZM102.958 60.4882L108.208 63.3007L111.042 58.0118L105.792 55.1993L102.958 60.4882ZM113.458 66.1132L118.708 68.9257L121.542 63.6368L116.292 60.8243L113.458 66.1132ZM123.958 71.7382L129.208 74.5507L132.042 69.2618L126.792 66.4493L123.958 71.7382ZM134.458 77.3632L139.708 80.1757L142.542 74.8868L137.292 72.0743L134.458 77.3632ZM144.958 82.9882L150.208 85.8007L153.042 80.5118L147.792 77.6993L144.958 82.9882ZM155.458 88.6132L160.708 91.4257L163.542 86.1368L158.292 83.3243L155.458 88.6132ZM165.958 94.2382L171.208 97.0507L174.042 91.7618L168.792 88.9493L165.958 94.2382ZM176.458 99.8632L181.708 102.676L184.542 97.3868L179.292 94.5743L176.458 99.8632ZM186.958 105.488L192.208 108.301L195.042 103.012L189.792 100.199L186.958 105.488ZM197.458 111.113L202.708 113.926L205.542 108.637L200.292 105.824L197.458 111.113ZM207.958 116.738L213.208 119.551L216.042 114.262L210.792 111.449L207.958 116.738ZM218.458 122.363L223.708 125.176L226.542 119.887L221.292 117.074L218.458 122.363ZM228.958 127.988L234.208 130.801L237.042 125.512L231.792 122.699L228.958 127.988ZM239.458 133.613L244.708 136.426L247.542 131.137L242.292 128.324L239.458 133.613ZM249.958 139.238L252.583 140.644L255.417 135.356L252.792 133.949L249.958 139.238Z"
    fill="black" fill-opacity="0.2" />
</svg>