<svg width="156" height="180" viewBox="0 0 156 180" fill="none" xmlns="http://www.w3.org/2000/svg">
  <path d="M78 0L155.942 45V135L78 180L0.0577164 135V45L78 0Z" fill="#7EC9E9" />
  <path
    d="M19.5256 70H15.571L21.5966 52.5455H26.3523L32.3693 70H28.4148L24.0426 56.5341H23.9062L19.5256 70ZM19.2784 63.1392H28.6193V66.0199H19.2784V63.1392ZM31.6726 55.5881V52.5455H46.0078V55.5881H40.6641V70H37.0163V55.5881H31.6726ZM48.3686 70V52.5455H52.0589V66.9574H59.5419V70H48.3686ZM65.4396 70H61.4851L67.5107 52.5455H72.2663L78.2834 70H74.3288L69.9567 56.5341H69.8203L65.4396 70ZM65.1925 63.1392H74.5334V66.0199H65.1925V63.1392ZM89.4545 57.5653C89.3864 56.8778 89.0938 56.3437 88.5767 55.9631C88.0597 55.5824 87.358 55.392 86.4716 55.392C85.8693 55.392 85.3608 55.4773 84.946 55.6477C84.5313 55.8125 84.2131 56.0426 83.9915 56.3381C83.7756 56.6335 83.6676 56.9688 83.6676 57.3438C83.6563 57.6562 83.7216 57.929 83.8636 58.1619C84.0114 58.3949 84.2131 58.5966 84.4688 58.767C84.7244 58.9318 85.0199 59.0767 85.3551 59.2017C85.6903 59.321 86.0483 59.4233 86.429 59.5085L87.9972 59.8835C88.7585 60.054 89.4574 60.2812 90.0938 60.5653C90.7301 60.8494 91.2813 61.1989 91.7472 61.6136C92.2131 62.0284 92.5739 62.517 92.8295 63.0795C93.0909 63.642 93.2244 64.2869 93.2301 65.0142C93.2244 66.0824 92.9517 67.0085 92.4119 67.7926C91.8778 68.571 91.1051 69.1761 90.0938 69.608C89.0881 70.0341 87.875 70.2472 86.4545 70.2472C85.0455 70.2472 83.8182 70.0312 82.7727 69.5994C81.733 69.1676 80.9205 68.5284 80.3352 67.6818C79.7557 66.8295 79.4517 65.7756 79.4233 64.5199H82.9943C83.0341 65.1051 83.2017 65.5937 83.4972 65.9858C83.7983 66.3722 84.1989 66.6648 84.6989 66.8636C85.2045 67.0568 85.7756 67.1534 86.4119 67.1534C87.0369 67.1534 87.5795 67.0625 88.0398 66.8807C88.5057 66.6989 88.8665 66.446 89.1222 66.1222C89.3778 65.7983 89.5057 65.4261 89.5057 65.0057C89.5057 64.6136 89.3892 64.2841 89.1562 64.017C88.929 63.75 88.5938 63.5227 88.1506 63.3352C87.7131 63.1477 87.1761 62.9773 86.5398 62.8239L84.6392 62.3466C83.1676 61.9886 82.0057 61.429 81.1534 60.6676C80.3011 59.9062 79.8778 58.8807 79.8835 57.5909C79.8778 56.5341 80.1591 55.6108 80.7273 54.821C81.3011 54.0312 82.0881 53.4148 83.0881 52.9716C84.0881 52.5284 85.2244 52.3068 86.4972 52.3068C87.7926 52.3068 88.9233 52.5284 89.8892 52.9716C90.8608 53.4148 91.6165 54.0312 92.1562 54.821C92.696 55.6108 92.9744 56.5256 92.9915 57.5653H89.4545ZM117.307 61.2727C117.307 63.1761 116.946 64.7955 116.224 66.1307C115.509 67.4659 114.531 68.4858 113.293 69.1903C112.06 69.8892 110.673 70.2386 109.134 70.2386C107.582 70.2386 106.19 69.8864 104.957 69.1818C103.724 68.4773 102.75 67.4574 102.034 66.1222C101.318 64.7869 100.96 63.1705 100.96 61.2727C100.96 59.3693 101.318 57.75 102.034 56.4148C102.75 55.0795 103.724 54.0625 104.957 53.3636C106.19 52.6591 107.582 52.3068 109.134 52.3068C110.673 52.3068 112.06 52.6591 113.293 53.3636C114.531 54.0625 115.509 55.0795 116.224 56.4148C116.946 57.75 117.307 59.3693 117.307 61.2727ZM113.565 61.2727C113.565 60.0398 113.381 59 113.011 58.1534C112.648 57.3068 112.134 56.6648 111.469 56.2273C110.804 55.7898 110.026 55.571 109.134 55.571C108.241 55.571 107.463 55.7898 106.798 56.2273C106.134 56.6648 105.616 57.3068 105.247 58.1534C104.884 59 104.702 60.0398 104.702 61.2727C104.702 62.5057 104.884 63.5455 105.247 64.392C105.616 65.2386 106.134 65.8807 106.798 66.3182C107.463 66.7557 108.241 66.9744 109.134 66.9744C110.026 66.9744 110.804 66.7557 111.469 66.3182C112.134 65.8807 112.648 65.2386 113.011 64.392C113.381 63.5455 113.565 62.5057 113.565 61.2727ZM120.04 70V52.5455H131.597V55.5881H123.731V59.7472H130.83V62.7898H123.731V70H120.04ZM16.517 99V81.5455H28.2784V84.5881H20.2074V88.7472H27.6733V91.7898H20.2074V95.9574H28.3125V99H16.517ZM31.2124 81.5455H35.7635L40.5703 93.2727H40.7749L45.5817 81.5455H50.1328V99H46.5533V87.6392H46.4084L41.8913 98.9148H39.4538L34.9368 87.5966H34.7919V99H31.2124V81.5455ZM53.1733 99V81.5455H64.9347V84.5881H56.8636V88.7472H64.3295V91.7898H56.8636V95.9574H64.9688V99H53.1733ZM67.8686 99V81.5455H74.755C76.0732 81.5455 77.1982 81.7812 78.13 82.2528C79.0675 82.7187 79.7805 83.3807 80.2692 84.2386C80.7635 85.0909 81.0107 86.0937 81.0107 87.2472C81.0107 88.4062 80.7607 89.4034 80.2607 90.2386C79.7607 91.0682 79.0362 91.7045 78.0874 92.1477C77.1442 92.5909 76.0021 92.8125 74.6612 92.8125H70.0504V89.8466H74.0646C74.7692 89.8466 75.3544 89.75 75.8203 89.5568C76.2862 89.3636 76.6328 89.0739 76.8601 88.6875C77.093 88.3011 77.2095 87.821 77.2095 87.2472C77.2095 86.6676 77.093 86.179 76.8601 85.7812C76.6328 85.3835 76.2834 85.0824 75.8118 84.8778C75.3459 84.6676 74.7578 84.5625 74.0476 84.5625H71.5589V99H67.8686ZM77.2947 91.0568L81.6328 99H77.5589L73.3146 91.0568H77.2947ZM95.1925 87.1875C95.0732 86.7727 94.9055 86.4062 94.6896 86.0881C94.4737 85.7642 94.2095 85.4915 93.897 85.2699C93.5902 85.0426 93.2379 84.8693 92.8402 84.75C92.4482 84.6307 92.0135 84.571 91.5362 84.571C90.6442 84.571 89.8601 84.7926 89.1839 85.2358C88.5135 85.679 87.9908 86.3239 87.6158 87.1705C87.2408 88.0114 87.0533 89.0398 87.0533 90.2557C87.0533 91.4716 87.2379 92.5057 87.6072 93.358C87.9766 94.2102 88.4993 94.8608 89.1754 95.3097C89.8516 95.7528 90.6499 95.9744 91.5703 95.9744C92.4055 95.9744 93.1186 95.8267 93.7095 95.5312C94.3061 95.2301 94.7607 94.8068 95.0732 94.2614C95.3913 93.7159 95.5504 93.071 95.5504 92.3267L96.3004 92.4375H91.8004V89.6591H99.1044V91.858C99.1044 93.392 98.7805 94.7102 98.1328 95.8125C97.4851 96.9091 96.593 97.7557 95.4567 98.3523C94.3203 98.9432 93.0192 99.2386 91.5533 99.2386C89.9169 99.2386 88.4794 98.8778 87.2408 98.1562C86.0021 97.429 85.0362 96.3977 84.343 95.0625C83.6555 93.7216 83.3118 92.1307 83.3118 90.2898C83.3118 88.875 83.5163 87.6136 83.9254 86.5057C84.3402 85.392 84.9197 84.4489 85.6641 83.6761C86.4084 82.9034 87.2749 82.3153 88.2635 81.9119C89.2521 81.5085 90.3232 81.3068 91.4766 81.3068C92.4652 81.3068 93.3857 81.4517 94.2379 81.7415C95.0902 82.0256 95.8459 82.429 96.505 82.9517C97.1697 83.4744 97.7124 84.0966 98.1328 84.8182C98.5533 85.5341 98.8232 86.3239 98.9425 87.1875H95.1925ZM105.567 81.5455V99H101.876V81.5455H105.567ZM123.202 81.5455V99H120.015L112.421 88.0142H112.293V99H108.603V81.5455H111.842L119.376 92.5227H119.529V81.5455H123.202ZM137.825 87.1875C137.706 86.7727 137.538 86.4062 137.322 86.0881C137.107 85.7642 136.842 85.4915 136.53 85.2699C136.223 85.0426 135.871 84.8693 135.473 84.75C135.081 84.6307 134.646 84.571 134.169 84.571C133.277 84.571 132.493 84.7926 131.817 85.2358C131.146 85.679 130.624 86.3239 130.249 87.1705C129.874 88.0114 129.686 89.0398 129.686 90.2557C129.686 91.4716 129.871 92.5057 130.24 93.358C130.609 94.2102 131.132 94.8608 131.808 95.3097C132.484 95.7528 133.283 95.9744 134.203 95.9744C135.038 95.9744 135.751 95.8267 136.342 95.5312C136.939 95.2301 137.393 94.8068 137.706 94.2614C138.024 93.7159 138.183 93.071 138.183 92.3267L138.933 92.4375H134.433V89.6591H141.737V91.858C141.737 93.392 141.413 94.7102 140.766 95.8125C140.118 96.9091 139.226 97.7557 138.089 98.3523C136.953 98.9432 135.652 99.2386 134.186 99.2386C132.55 99.2386 131.112 98.8778 129.874 98.1562C128.635 97.429 127.669 96.3977 126.976 95.0625C126.288 93.7216 125.945 92.1307 125.945 90.2898C125.945 88.875 126.149 87.6136 126.558 86.5057C126.973 85.392 127.553 84.4489 128.297 83.6761C129.041 82.9034 129.908 82.3153 130.896 81.9119C131.885 81.5085 132.956 81.3068 134.109 81.3068C135.098 81.3068 136.018 81.4517 136.871 81.7415C137.723 82.0256 138.479 82.429 139.138 82.9517C139.803 83.4744 140.345 84.0966 140.766 84.8182C141.186 85.5341 141.456 86.3239 141.575 87.1875H137.825ZM23.5057 110.545H27.1534V122.716C27.1534 123.841 26.9006 124.818 26.3949 125.648C25.8949 126.477 25.1989 127.116 24.3068 127.565C23.4148 128.014 22.3778 128.239 21.196 128.239C20.1449 128.239 19.1903 128.054 18.3324 127.685C17.4801 127.31 16.804 126.741 16.304 125.98C15.804 125.213 15.5568 124.25 15.5625 123.091H19.2358C19.2472 123.551 19.3409 123.946 19.517 124.276C19.6989 124.599 19.946 124.849 20.2585 125.026C20.5767 125.196 20.9517 125.281 21.3835 125.281C21.8381 125.281 22.2216 125.185 22.5341 124.991C22.8523 124.793 23.0938 124.503 23.2585 124.122C23.4233 123.741 23.5057 123.273 23.5057 122.716V110.545ZM46.2443 119.273C46.2443 121.176 45.8835 122.795 45.1619 124.131C44.446 125.466 43.4688 126.486 42.2301 127.19C40.9972 127.889 39.6108 128.239 38.071 128.239C36.5199 128.239 35.1278 127.886 33.8949 127.182C32.6619 126.477 31.6875 125.457 30.9716 124.122C30.2557 122.787 29.8977 121.17 29.8977 119.273C29.8977 117.369 30.2557 115.75 30.9716 114.415C31.6875 113.08 32.6619 112.062 33.8949 111.364C35.1278 110.659 36.5199 110.307 38.071 110.307C39.6108 110.307 40.9972 110.659 42.2301 111.364C43.4688 112.062 44.446 113.08 45.1619 114.415C45.8835 115.75 46.2443 117.369 46.2443 119.273ZM42.5028 119.273C42.5028 118.04 42.3182 117 41.9489 116.153C41.5852 115.307 41.071 114.665 40.4062 114.227C39.7415 113.79 38.9631 113.571 38.071 113.571C37.179 113.571 36.4006 113.79 35.7358 114.227C35.071 114.665 34.554 115.307 34.1847 116.153C33.821 117 33.6392 118.04 33.6392 119.273C33.6392 120.506 33.821 121.545 34.1847 122.392C34.554 123.239 35.071 123.881 35.7358 124.318C36.4006 124.756 37.179 124.974 38.071 124.974C38.9631 124.974 39.7415 124.756 40.4062 124.318C41.071 123.881 41.5852 123.239 41.9489 122.392C42.3182 121.545 42.5028 120.506 42.5028 119.273ZM48.978 128V110.545H55.9666C57.2507 110.545 58.3217 110.736 59.1797 111.116C60.0376 111.497 60.6825 112.026 61.1143 112.702C61.5462 113.372 61.7621 114.145 61.7621 115.02C61.7621 115.702 61.6257 116.301 61.353 116.818C61.0803 117.33 60.7053 117.75 60.228 118.08C59.7564 118.403 59.2166 118.634 58.6087 118.77V118.94C59.2734 118.969 59.8956 119.156 60.4751 119.503C61.0604 119.849 61.5348 120.335 61.8984 120.96C62.2621 121.58 62.4439 122.318 62.4439 123.176C62.4439 124.102 62.2138 124.929 61.7536 125.656C61.299 126.378 60.6257 126.949 59.7337 127.369C58.8416 127.79 57.7422 128 56.4354 128H48.978ZM52.6683 124.983H55.6768C56.7053 124.983 57.4553 124.787 57.9268 124.395C58.3984 123.997 58.6342 123.469 58.6342 122.81C58.6342 122.327 58.5178 121.901 58.2848 121.531C58.0518 121.162 57.7195 120.872 57.2876 120.662C56.8615 120.452 56.353 120.347 55.7621 120.347H52.6683V124.983ZM52.6683 117.849H55.4041C55.9098 117.849 56.3587 117.761 56.7507 117.585C57.1484 117.403 57.4609 117.148 57.6882 116.818C57.9212 116.489 58.0376 116.094 58.0376 115.634C58.0376 115.003 57.8132 114.494 57.3643 114.108C56.9212 113.722 56.2905 113.528 55.4723 113.528H52.6683V117.849ZM74.3139 115.565C74.2457 114.878 73.9531 114.344 73.4361 113.963C72.919 113.582 72.2173 113.392 71.331 113.392C70.7287 113.392 70.2202 113.477 69.8054 113.648C69.3906 113.812 69.0724 114.043 68.8509 114.338C68.6349 114.634 68.527 114.969 68.527 115.344C68.5156 115.656 68.581 115.929 68.723 116.162C68.8707 116.395 69.0724 116.597 69.3281 116.767C69.5838 116.932 69.8793 117.077 70.2145 117.202C70.5497 117.321 70.9077 117.423 71.2884 117.509L72.8565 117.884C73.6179 118.054 74.3168 118.281 74.9531 118.565C75.5895 118.849 76.1406 119.199 76.6065 119.614C77.0724 120.028 77.4332 120.517 77.6889 121.08C77.9503 121.642 78.0838 122.287 78.0895 123.014C78.0838 124.082 77.8111 125.009 77.2713 125.793C76.7372 126.571 75.9645 127.176 74.9531 127.608C73.9474 128.034 72.7344 128.247 71.3139 128.247C69.9048 128.247 68.6776 128.031 67.6321 127.599C66.5923 127.168 65.7798 126.528 65.1946 125.682C64.6151 124.83 64.3111 123.776 64.2827 122.52H67.8537C67.8935 123.105 68.0611 123.594 68.3565 123.986C68.6577 124.372 69.0582 124.665 69.5582 124.864C70.0639 125.057 70.6349 125.153 71.2713 125.153C71.8963 125.153 72.4389 125.062 72.8991 124.881C73.3651 124.699 73.7259 124.446 73.9815 124.122C74.2372 123.798 74.3651 123.426 74.3651 123.006C74.3651 122.614 74.2486 122.284 74.0156 122.017C73.7884 121.75 73.4531 121.523 73.0099 121.335C72.5724 121.148 72.0355 120.977 71.3991 120.824L69.4986 120.347C68.027 119.989 66.8651 119.429 66.0128 118.668C65.1605 117.906 64.7372 116.881 64.7429 115.591C64.7372 114.534 65.0185 113.611 65.5866 112.821C66.1605 112.031 66.9474 111.415 67.9474 110.972C68.9474 110.528 70.0838 110.307 71.3565 110.307C72.652 110.307 73.7827 110.528 74.7486 110.972C75.7202 111.415 76.4759 112.031 77.0156 112.821C77.5554 113.611 77.8338 114.526 77.8509 115.565H74.3139Z"
    fill="white" />
</svg>